<svg width="102" height="102" viewBox="0 0 102 102" fill="none" xmlns="http://www.w3.org/2000/svg">
<circle cx="51" cy="51" r="51" fill="#020202"/>
<path d="M45.04 19.2H56.24L59.44 22.16V73.6H55.04L60.16 85.92L56.16 86.48L54.56 85.12L51.04 73.6H42V22.88L45.04 19.2ZM54.08 24.88C54.08 24.4 53.84 24.16 53.36 24.16H48.4C47.92 24.16 47.68 24.4 47.68 24.88L46.88 67.52C46.88 67.84 47.12 68 47.6 68H49.36L48.56 65.44L51.44 64.72L52.8 68C53.0667 68 53.3333 67.9467 53.6 67.84C53.92 67.7333 54.08 67.6267 54.08 67.52V24.88Z" fill="#EA1FE2"/>
</svg>
