<svg width="260" height="49" viewBox="0 0 260 49" fill="none" xmlns="http://www.w3.org/2000/svg">
<path d="M42.8516 20.918C42.959 20.918 43.0127 20.9961 43.0127 21.1523C43.0127 21.2988 42.959 21.4014 42.8516 21.46C42.5879 21.5674 42.3145 21.6602 42.0312 21.7383C41.7578 21.8164 41.5039 21.9189 41.2695 22.0459C40.7324 22.3389 40.4639 22.8125 40.4639 23.4668V28.2275C40.4639 28.4424 39.9463 28.7305 38.9111 29.0918C37.8857 29.4531 37.0508 29.7168 36.4062 29.8828C33.3887 30.625 30.6934 30.5469 28.3203 29.6484C25.5957 28.6035 23.667 26.7334 22.5342 24.0381C21.9678 22.6904 21.6846 21.3525 21.6846 20.0244C21.6846 18.6865 21.8164 17.5635 22.0801 16.6553C22.8809 13.8818 24.5605 11.748 27.1191 10.2539C28.7891 9.27734 30.542 8.78906 32.3779 8.78906C34.2236 8.78906 36.1816 9.16016 38.252 9.90234C38.6328 10.0391 38.8477 10.1074 38.8965 10.1074H39.0723L39.6582 9.96094H40.0244C40.1318 9.96094 40.1855 10.0146 40.1855 10.1221V15C40.1855 15.1855 40.0781 15.2783 39.8633 15.2783H39.8047C39.6191 15.2588 39.4922 15.0098 39.4238 14.5312C39.4043 14.4336 39.3896 14.3604 39.3799 14.3115C38.4033 11.2549 36.3428 9.72656 33.1982 9.72656C30.6787 9.72656 28.667 10.6787 27.1631 12.583C25.6689 14.4873 24.9219 16.7529 24.9219 19.3799C24.9219 22.0068 25.6738 24.3311 27.1777 26.3525C28.6914 28.3643 30.7666 29.3701 33.4033 29.3701C34.7607 29.3701 35.8789 29.1602 36.7578 28.7402C37.0996 28.5742 37.3633 28.3643 37.5488 28.1104V24.0967C37.5488 23.1885 37.29 22.5244 36.7725 22.1045C36.2549 21.6748 35.3027 21.46 33.916 21.46C33.8086 21.46 33.7549 21.3721 33.7549 21.1963C33.7549 21.0107 33.8086 20.918 33.916 20.918H42.8516ZM47.1436 22.2803C46.9775 22.2803 46.8945 22.6367 46.8945 23.3496C46.8945 24.8633 47.3438 26.1328 48.2422 27.1582C49.1406 28.1836 50.2539 28.6963 51.582 28.6963C52.9199 28.6963 54.2041 28.1201 55.4346 26.9678C55.4541 26.9482 55.4785 26.9385 55.5078 26.9385H55.5811C55.6396 26.9385 55.6934 26.9873 55.7422 27.085C55.8008 27.1729 55.8545 27.2314 55.9033 27.2607C54.7705 28.6377 53.4375 29.5898 51.9043 30.1172C51.377 30.3027 50.7812 30.3955 50.1172 30.3955C49.4531 30.3955 48.7793 30.2148 48.0957 29.8535C47.4121 29.4824 46.8262 28.999 46.3379 28.4033C45.3027 27.1631 44.7852 25.6201 44.7852 23.7744C44.7852 21.9189 45.3467 20.2295 46.4697 18.7061C47.6025 17.1826 49.1553 16.4209 51.1279 16.4209C52.5439 16.4209 53.7012 17.0557 54.5996 18.3252C55.498 19.585 55.9473 20.6934 55.9473 21.6504C55.9473 22.0703 55.8447 22.2803 55.6396 22.2803H47.1436ZM47.3047 20.874C47.3047 21.0596 47.3926 21.1523 47.5684 21.1523H53.0908C53.3447 21.1523 53.4717 21.001 53.4717 20.6982C53.4717 19.9951 53.1543 19.2773 52.5195 18.5449C51.8945 17.8027 51.2061 17.4316 50.4541 17.4316C49.7217 17.4316 49.0527 17.7637 48.4473 18.4277C47.8516 19.0918 47.4707 19.8486 47.3047 20.6982V20.874ZM61.9678 18.7354C61.9092 18.7354 61.8799 18.7793 61.8799 18.8672V26.9531C61.8799 27.5391 62.0068 27.998 62.2607 28.3301C62.5244 28.6621 62.8564 28.8281 63.2568 28.8281C63.6572 28.8281 64.0039 28.7646 64.2969 28.6377C64.5996 28.501 64.8584 28.3545 65.0732 28.1982C65.2979 28.042 65.498 27.9004 65.6738 27.7734C65.8496 27.6367 66.0059 27.5684 66.1426 27.5684C66.2793 27.5684 66.3477 27.6025 66.3477 27.6709C66.3477 27.9053 66.3232 28.0566 66.2744 28.125C65.1025 29.6387 63.9697 30.3955 62.876 30.3955C61.792 30.3955 60.9717 30.0537 60.415 29.3701C59.8682 28.6768 59.5947 27.8516 59.5947 26.8945V18.7354H58.4961C58.2227 18.7354 58.0762 18.6475 58.0566 18.4717C58.0469 18.2959 58.0762 18.1836 58.1445 18.1348C58.6621 17.8027 59.375 17.207 60.2832 16.3477C60.3809 16.2402 60.5127 16.0791 60.6787 15.8643C60.8447 15.6494 61.084 15.3564 61.3965 14.9854C61.7188 14.6143 61.9629 14.4287 62.1289 14.4287C62.2949 14.4287 62.3779 14.4971 62.3779 14.6338C62.3779 14.6533 62.2119 15.293 61.8799 16.5527C61.8799 16.7285 61.958 16.8213 62.1143 16.8311H65.8496C66.2793 16.8311 66.4941 17.4365 66.4941 18.6475C66.4941 18.7061 66.4551 18.7354 66.377 18.7354H61.9678ZM85.0098 27.583C85.0098 27.8369 85.127 28.042 85.3613 28.1982C85.6055 28.3447 85.8838 28.418 86.1963 28.418C86.5088 28.418 86.7676 28.3398 86.9727 28.1836C87.1875 28.0176 87.334 27.9346 87.4121 27.9346C87.4902 27.9346 87.5293 28.042 87.5293 28.2568C87.5293 28.4619 87.4316 28.6377 87.2363 28.7842C85.7715 29.8584 84.7803 30.3955 84.2627 30.3955C83.6377 30.3955 83.1299 29.7461 82.7393 28.4473C82.71 28.3496 82.6855 28.3057 82.666 28.3154C81.4551 29.2236 80.6934 29.7705 80.3809 29.9561C79.5801 30.415 78.7744 30.4883 77.9639 30.1758C77.1631 29.8633 76.582 29.3457 76.2207 28.623C76.0449 28.252 75.957 27.8564 75.957 27.4365C75.957 26.6064 76.2646 25.9473 76.8799 25.459C77.4951 24.9707 78.667 24.502 80.3955 24.0527C80.9814 23.8965 81.5039 23.6963 81.9629 23.4521C82.4219 23.208 82.6611 23.0518 82.6807 22.9834C82.71 22.915 82.7246 22.8516 82.7246 22.793V19.9805C82.7246 18.877 82.2949 18.1006 81.4355 17.6514C81.1523 17.5049 80.8105 17.4316 80.4102 17.4316C80.0195 17.4316 79.6191 17.5879 79.209 17.9004C78.8086 18.2129 78.6084 18.6572 78.6084 19.2334L78.6816 19.8047C78.623 19.9219 78.2715 20.1172 77.627 20.3906C76.9824 20.6641 76.6113 20.8105 76.5137 20.8301C76.3574 20.8301 76.2793 20.6445 76.2793 20.2734C76.2793 19.8926 76.3916 19.4727 76.6162 19.0137C76.8408 18.5547 77.1582 18.1348 77.5684 17.7539C78.5254 16.8652 79.6191 16.4209 80.8496 16.4209C82.0801 16.4209 83.0811 16.7627 83.8525 17.4463C84.624 18.1201 85.0098 18.9258 85.0098 19.8633V27.583ZM78.2568 27.1582C78.2568 27.627 78.4375 28.0371 78.7988 28.3887C79.1602 28.7305 79.5703 28.9014 80.0293 28.9014C80.498 28.9014 81.0645 28.7061 81.7285 28.3154C82.3926 27.915 82.7246 27.5049 82.7246 27.085V24.1113C82.7246 24.0039 82.7002 23.9502 82.6514 23.9502C82.6025 23.9502 82.5684 23.9551 82.5488 23.9648L79.1504 25.5469C78.7988 25.8008 78.5596 26.0156 78.4326 26.1914C78.3154 26.3672 78.2568 26.6895 78.2568 27.1582ZM105.005 29.7656C105.005 29.9219 104.917 30 104.741 30H96.6992C96.6016 29.9805 96.5527 29.9121 96.5527 29.7949C96.5527 29.6191 96.7822 29.502 97.2412 29.4434C98.2959 29.2871 98.8232 28.7305 98.8232 27.7734V18.8965C98.8232 18.7891 98.7646 18.7354 98.6475 18.7354H97.0508C96.9336 18.7354 96.8213 18.7012 96.7139 18.6328C96.6064 18.5547 96.5527 18.457 96.5527 18.3398C96.5527 18.2129 96.6113 18.1152 96.7285 18.0469C96.8945 17.9492 97.2852 17.8174 97.9004 17.6514C98.5156 17.4854 98.8232 17.2119 98.8232 16.8311V16.3477C98.8232 12.832 99.585 10.127 101.108 8.23242C101.958 7.16797 103.252 6.34766 104.99 5.77148C105.518 5.5957 106.04 5.50781 106.558 5.50781C107.075 5.50781 107.681 5.64453 108.374 5.91797C109.067 6.18164 109.414 6.50391 109.414 6.88477C109.414 6.96289 109.399 7.03125 109.37 7.08984C109.351 7.14844 109.326 7.22168 109.297 7.30957L108.696 8.59863C108.618 8.75488 108.525 8.83301 108.418 8.83301C108.389 8.83301 108.179 8.68164 107.788 8.37891C107.397 8.06641 106.982 7.7832 106.543 7.5293C106.113 7.26562 105.605 7.13379 105.02 7.13379C103.877 7.13379 103.013 7.42676 102.427 8.0127C101.841 8.59863 101.475 9.2627 101.328 10.0049C101.182 10.7373 101.108 11.5479 101.108 12.4365V16.6992C101.108 16.7773 101.157 16.8164 101.255 16.8164H104.111C104.385 16.8164 104.561 16.8457 104.639 16.9043C104.727 16.9531 104.81 17.1289 104.888 17.4316C104.966 17.7246 105.005 17.998 105.005 18.252C105.005 18.4961 104.98 18.6377 104.932 18.6768C104.883 18.7158 104.78 18.7354 104.624 18.7354H101.299C101.172 18.7354 101.108 18.7842 101.108 18.8818V27.4805C101.108 28.877 102.319 29.5752 104.741 29.5752C104.917 29.5947 105.005 29.6582 105.005 29.7656ZM115.039 19.4971C114.922 19.4775 114.751 19.4141 114.526 19.3066C113.716 18.9355 113.081 18.75 112.622 18.75C112.163 18.75 111.68 19.0381 111.172 19.6143C110.674 20.1807 110.425 20.6934 110.425 21.1523V27.7734C110.425 28.5059 110.85 28.9941 111.699 29.2383C112.07 29.3359 112.417 29.4092 112.739 29.458C113.062 29.4971 113.267 29.5361 113.354 29.5752C113.452 29.6143 113.501 29.6924 113.501 29.8096C113.501 29.917 113.452 29.9805 113.354 30H106.016C105.918 29.9805 105.869 29.9121 105.869 29.7949C105.869 29.6191 106.099 29.502 106.558 29.4434C107.612 29.2871 108.14 28.7305 108.14 27.7734V20.0244C108.14 19.6143 107.915 19.3311 107.466 19.1748C107.271 19.1064 107.061 19.0527 106.836 19.0137C106.611 18.9648 106.431 18.9209 106.294 18.8818C106.167 18.8428 106.084 18.8086 106.045 18.7793C106.016 18.7402 106.001 18.667 106.001 18.5596C106.001 18.4424 106.074 18.3447 106.221 18.2666L109.956 16.5088C110.073 16.4502 110.146 16.4209 110.176 16.4209C110.342 16.4209 110.425 16.5381 110.425 16.7725V19.1455C110.425 19.2627 110.454 19.3213 110.513 19.3213C110.591 19.3213 110.791 19.0918 111.113 18.6328C112.041 17.334 112.808 16.6846 113.413 16.6846C113.755 16.6846 114.277 16.8213 114.98 17.0947C115.693 17.3682 116.05 17.5977 116.05 17.7832C116.05 18.0078 115.938 18.3496 115.713 18.8086C115.488 19.2676 115.264 19.4971 115.039 19.4971ZM119.448 22.2803C119.282 22.2803 119.199 22.6367 119.199 23.3496C119.199 24.8633 119.648 26.1328 120.547 27.1582C121.445 28.1836 122.559 28.6963 123.887 28.6963C125.225 28.6963 126.509 28.1201 127.739 26.9678C127.759 26.9482 127.783 26.9385 127.812 26.9385H127.886C127.944 26.9385 127.998 26.9873 128.047 27.085C128.105 27.1729 128.159 27.2314 128.208 27.2607C127.075 28.6377 125.742 29.5898 124.209 30.1172C123.682 30.3027 123.086 30.3955 122.422 30.3955C121.758 30.3955 121.084 30.2148 120.4 29.8535C119.717 29.4824 119.131 28.999 118.643 28.4033C117.607 27.1631 117.09 25.6201 117.09 23.7744C117.09 21.9189 117.651 20.2295 118.774 18.7061C119.907 17.1826 121.46 16.4209 123.433 16.4209C124.849 16.4209 126.006 17.0557 126.904 18.3252C127.803 19.585 128.252 20.6934 128.252 21.6504C128.252 22.0703 128.149 22.2803 127.944 22.2803H119.448ZM119.609 20.874C119.609 21.0596 119.697 21.1523 119.873 21.1523H125.396C125.649 21.1523 125.776 21.001 125.776 20.6982C125.776 19.9951 125.459 19.2773 124.824 18.5449C124.199 17.8027 123.511 17.4316 122.759 17.4316C122.026 17.4316 121.357 17.7637 120.752 18.4277C120.156 19.0918 119.775 19.8486 119.609 20.6982V20.874ZM133.071 22.2803C132.905 22.2803 132.822 22.6367 132.822 23.3496C132.822 24.8633 133.271 26.1328 134.17 27.1582C135.068 28.1836 136.182 28.6963 137.51 28.6963C138.848 28.6963 140.132 28.1201 141.362 26.9678C141.382 26.9482 141.406 26.9385 141.436 26.9385H141.509C141.567 26.9385 141.621 26.9873 141.67 27.085C141.729 27.1729 141.782 27.2314 141.831 27.2607C140.698 28.6377 139.365 29.5898 137.832 30.1172C137.305 30.3027 136.709 30.3955 136.045 30.3955C135.381 30.3955 134.707 30.2148 134.023 29.8535C133.34 29.4824 132.754 28.999 132.266 28.4033C131.23 27.1631 130.713 25.6201 130.713 23.7744C130.713 21.9189 131.274 20.2295 132.397 18.7061C133.53 17.1826 135.083 16.4209 137.056 16.4209C138.472 16.4209 139.629 17.0557 140.527 18.3252C141.426 19.585 141.875 20.6934 141.875 21.6504C141.875 22.0703 141.772 22.2803 141.567 22.2803H133.071ZM133.232 20.874C133.232 21.0596 133.32 21.1523 133.496 21.1523H139.019C139.272 21.1523 139.399 21.001 139.399 20.6982C139.399 19.9951 139.082 19.2773 138.447 18.5449C137.822 17.8027 137.134 17.4316 136.382 17.4316C135.649 17.4316 134.98 17.7637 134.375 18.4277C133.779 19.0918 133.398 19.8486 133.232 20.6982V20.874ZM161.431 17.0361C161.86 17.1826 162.124 17.2559 162.222 17.2559C162.319 17.2559 162.378 17.2559 162.397 17.2559C162.427 17.2461 162.461 17.1826 162.5 17.0654V9.50684C162.5 9.09668 162.275 8.81348 161.826 8.65723C161.631 8.58887 161.421 8.53516 161.196 8.49609C160.972 8.44727 160.791 8.40332 160.654 8.36426C160.527 8.3252 160.444 8.29102 160.405 8.26172C160.376 8.22266 160.361 8.14941 160.361 8.04199C160.361 7.9248 160.435 7.82715 160.581 7.74902L164.316 5.99121C164.434 5.93262 164.507 5.90332 164.536 5.90332C164.702 5.90332 164.785 6.02051 164.785 6.25488V27.1143C164.834 27.5439 164.956 27.8516 165.151 28.0371C165.347 28.2227 165.664 28.3154 166.104 28.3154L166.953 28.2568C167.012 28.2568 167.041 28.3154 167.041 28.4326C167.041 28.54 166.968 28.6279 166.821 28.6963L162.925 30.3076C162.808 30.3662 162.705 30.3955 162.617 30.3955C162.539 30.3955 162.5 30.2734 162.5 30.0293V28.6963C162.5 28.5986 162.476 28.5498 162.427 28.5498C162.358 28.5498 161.953 28.7695 161.211 29.209C158.936 30.5566 157.017 30.7568 155.454 29.8096C154.204 29.0479 153.359 27.8418 152.92 26.1914C152.715 25.4199 152.612 24.6045 152.612 23.7451C152.612 22.876 152.788 22.0166 153.14 21.167C153.501 20.3076 153.994 19.5557 154.619 18.9111C155.996 17.5049 157.656 16.8018 159.6 16.8018C160.391 16.8018 161.001 16.8799 161.431 17.0361ZM154.824 23.3203C154.824 24.7949 155.234 26.0889 156.055 27.2021C156.875 28.3057 158.018 28.8574 159.482 28.8574C160.127 28.8574 160.791 28.7012 161.475 28.3887C162.158 28.0664 162.5 27.8223 162.5 27.6562V20.0977C162.5 19.9121 162.373 19.6924 162.119 19.4385C161.338 18.3643 160.298 17.8271 158.999 17.8271C157.71 17.8271 156.689 18.374 155.938 19.4678C155.195 20.5518 154.824 21.8359 154.824 23.3203ZM170.718 22.2803C170.552 22.2803 170.469 22.6367 170.469 23.3496C170.469 24.8633 170.918 26.1328 171.816 27.1582C172.715 28.1836 173.828 28.6963 175.156 28.6963C176.494 28.6963 177.778 28.1201 179.009 26.9678C179.028 26.9482 179.053 26.9385 179.082 26.9385H179.155C179.214 26.9385 179.268 26.9873 179.316 27.085C179.375 27.1729 179.429 27.2314 179.478 27.2607C178.345 28.6377 177.012 29.5898 175.479 30.1172C174.951 30.3027 174.355 30.3955 173.691 30.3955C173.027 30.3955 172.354 30.2148 171.67 29.8535C170.986 29.4824 170.4 28.999 169.912 28.4033C168.877 27.1631 168.359 25.6201 168.359 23.7744C168.359 21.9189 168.921 20.2295 170.044 18.7061C171.177 17.1826 172.729 16.4209 174.702 16.4209C176.118 16.4209 177.275 17.0557 178.174 18.3252C179.072 19.585 179.521 20.6934 179.521 21.6504C179.521 22.0703 179.419 22.2803 179.214 22.2803H170.718ZM170.879 20.874C170.879 21.0596 170.967 21.1523 171.143 21.1523H176.665C176.919 21.1523 177.046 21.001 177.046 20.6982C177.046 19.9951 176.729 19.2773 176.094 18.5449C175.469 17.8027 174.78 17.4316 174.028 17.4316C173.296 17.4316 172.627 17.7637 172.021 18.4277C171.426 19.0918 171.045 19.8486 170.879 20.6982V20.874ZM201.289 25.3857L201.26 22.2949C201.26 21.0352 201.152 20.1514 200.938 19.6436C200.723 19.1357 200.449 18.7549 200.117 18.501C199.785 18.2373 199.336 18.1055 198.77 18.1055C198.213 18.1055 197.026 18.5449 195.21 19.4238C194.966 19.5703 194.839 19.707 194.829 19.834V27.7148C194.829 28.7012 195.356 29.2676 196.411 29.4141C196.87 29.4824 197.1 29.5947 197.1 29.751C197.1 29.8975 197.051 29.9805 196.953 30H190.42C190.322 29.9805 190.273 29.9121 190.273 29.7949C190.273 29.6094 190.503 29.4824 190.962 29.4141C192.017 29.2676 192.544 28.7012 192.544 27.7148V20.4199C192.544 18.8867 191.597 18.1201 189.702 18.1201C189.009 18.1201 188.047 18.5303 186.816 19.3506C186.504 19.5557 186.274 19.7461 186.128 19.9219V27.7148C186.128 28.7012 186.655 29.2676 187.71 29.4141C188.169 29.4824 188.398 29.5947 188.398 29.751C188.398 29.8975 188.35 29.9805 188.252 30H181.719C181.621 29.9805 181.572 29.9121 181.572 29.7949C181.572 29.6094 181.802 29.4824 182.261 29.4141C183.315 29.2676 183.843 28.7109 183.843 27.7441V19.3066C183.843 18.8965 183.618 18.6133 183.169 18.457C182.974 18.3887 182.764 18.335 182.539 18.2959C182.314 18.2471 182.134 18.2031 181.997 18.1641C181.87 18.125 181.787 18.0908 181.748 18.0615C181.719 18.0225 181.704 17.9492 181.704 17.8418C181.704 17.7246 181.777 17.627 181.924 17.5488L185.659 15.791C185.776 15.7324 185.85 15.7031 185.879 15.7031C186.045 15.7031 186.128 15.8203 186.128 16.0547V18.4863C186.138 18.5449 186.172 18.5742 186.23 18.5742C186.299 18.5742 186.46 18.5059 186.714 18.3691C186.978 18.2324 187.319 18.042 187.739 17.7979C188.159 17.5439 188.711 17.251 189.395 16.9189C190.088 16.5869 190.82 16.4209 191.592 16.4209C192.832 16.4209 193.721 16.9531 194.258 18.0176C194.463 18.4473 194.648 18.6328 194.814 18.5742C194.98 18.5059 195.239 18.3838 195.591 18.208C196.421 17.7979 197.261 17.3975 198.11 17.0068C198.96 16.6162 199.663 16.4209 200.22 16.4209C202.476 16.4209 203.604 18.4766 203.604 22.5879L203.472 26.8652V27.7148C203.472 28.4766 203.853 28.9746 204.614 29.209C204.937 29.3164 205.244 29.3945 205.537 29.4434C205.84 29.4824 206.035 29.5215 206.123 29.5605C206.221 29.5996 206.27 29.6777 206.27 29.7949C206.27 29.9121 206.221 29.9805 206.123 30H199.062C198.965 29.9805 198.916 29.9121 198.916 29.7949C198.916 29.6094 199.146 29.4824 199.604 29.4141C200.649 29.2676 201.172 28.6621 201.172 27.5977C201.25 27.1094 201.289 26.3721 201.289 25.3857ZM207.427 23.4229C207.427 21.499 208.105 19.8486 209.463 18.4717C210.83 17.085 212.466 16.3916 214.37 16.3916C216.274 16.3916 217.93 17.0654 219.336 18.4131C220.742 19.751 221.445 21.4062 221.445 23.3789C221.445 25.3516 220.776 27.0166 219.438 28.374C218.11 29.7217 216.44 30.3955 214.429 30.3955C212.417 30.3955 210.747 29.7119 209.419 28.3447C208.091 26.9775 207.427 25.3369 207.427 23.4229ZM211.074 27.1875C212.031 28.7988 213.335 29.6045 214.985 29.6045C216.265 29.6045 217.241 29.0918 217.915 28.0664C218.599 27.041 218.94 25.7812 218.94 24.2871C218.94 22.793 218.462 21.2598 217.505 19.6875C216.558 18.1152 215.278 17.3291 213.667 17.3291C212.485 17.3291 211.553 17.8418 210.869 18.8672C210.195 19.8828 209.858 21.1768 209.858 22.749C209.858 24.3115 210.264 25.791 211.074 27.1875Z" fill="#A3A3A3"/>
<path d="M0.332031 30.4805C0.332031 30.0156 0.348633 29.584 0.381836 29.1855C0.415039 28.7871 0.470378 28.3997 0.547852 28.0234C0.625326 27.6361 0.713867 27.2487 0.813477 26.8613C0.924154 26.4629 1.05697 26.0368 1.21191 25.583C1.31152 25.2731 1.46647 24.8968 1.67676 24.4541C1.89811 24.0114 2.1582 23.5964 2.45703 23.209C2.76693 22.8105 3.11003 22.473 3.48633 22.1963C3.8737 21.9196 4.27767 21.7812 4.69824 21.7812H6.07617C6.08724 21.7812 6.12044 21.7923 6.17578 21.8145C6.24219 21.8255 6.29199 21.8366 6.3252 21.8477C6.75684 22.0579 7.0944 22.318 7.33789 22.6279C7.58138 22.9268 7.7474 23.3141 7.83594 23.79C7.93555 24.2438 8.04069 24.681 8.15137 25.1016C8.27311 25.5111 8.33398 25.9427 8.33398 26.3965C8.33398 26.9388 8.31738 27.4756 8.28418 28.0068C8.26204 28.5381 8.25098 29.0749 8.25098 29.6172C8.25098 29.6504 8.25098 29.7113 8.25098 29.7998C8.25098 29.8773 8.25098 29.9658 8.25098 30.0654C8.26204 30.165 8.26758 30.2591 8.26758 30.3477C8.26758 30.4362 8.26758 30.4915 8.26758 30.5137C8.27865 30.6022 8.28971 30.7295 8.30078 30.8955C8.31185 31.0615 8.33398 31.2441 8.36719 31.4434C8.40039 31.6426 8.43359 31.8473 8.4668 32.0576C8.5 32.2679 8.53874 32.4616 8.58301 32.6387C8.63835 32.8047 8.69922 32.943 8.76562 33.0537C8.83203 33.1644 8.90951 33.2197 8.99805 33.2197C9.29688 33.2197 9.60677 33.181 9.92773 33.1035C10.2598 33.026 10.5586 32.9043 10.8242 32.7383C10.8464 32.7161 10.8962 32.6774 10.9736 32.6221C11.0622 32.5557 11.1507 32.4893 11.2393 32.4229C11.3389 32.3454 11.4274 32.279 11.5049 32.2236C11.5934 32.1572 11.6598 32.1074 11.7041 32.0742C11.7816 32.0189 11.8424 31.9801 11.8867 31.958C11.9421 31.9248 12.0085 31.9082 12.0859 31.9082C12.1523 31.9082 12.2132 31.9303 12.2686 31.9746C12.3239 32.0078 12.3516 32.0632 12.3516 32.1406C12.3516 32.3952 12.2077 32.6331 11.9199 32.8545C11.6432 33.0758 11.3167 33.2751 10.9404 33.4521C10.5641 33.6292 10.1823 33.7731 9.79492 33.8838C9.41862 33.9834 9.13639 34.0332 8.94824 34.0332C8.70475 34.0332 8.49447 33.9115 8.31738 33.668C8.15137 33.4134 8.00195 33.1201 7.86914 32.7881C7.7474 32.445 7.63672 32.0964 7.53711 31.7422C7.44857 31.377 7.36003 31.0781 7.27148 30.8457C7.11654 31.2884 6.88411 31.7035 6.57422 32.0908C6.27539 32.4671 5.93229 32.7992 5.54492 33.0869C5.15755 33.3747 4.73698 33.6016 4.2832 33.7676C3.82943 33.9336 3.37012 34.0166 2.90527 34.0166C2.39616 34.0166 1.97005 33.917 1.62695 33.7178C1.29492 33.5075 1.0293 33.2419 0.830078 32.9209C0.641927 32.5889 0.509115 32.2126 0.431641 31.792C0.365234 31.3604 0.332031 30.9232 0.332031 30.4805ZM1.36133 30.3477C1.36133 30.6797 1.36686 31.0173 1.37793 31.3604C1.40007 31.6924 1.46094 31.9967 1.56055 32.2734C1.67122 32.5501 1.83724 32.777 2.05859 32.9541C2.29102 33.1201 2.61751 33.2031 3.03809 33.2031C3.59147 33.2031 4.08398 33.0814 4.51562 32.8379C4.94727 32.5833 5.32357 32.2568 5.64453 31.8584C5.96549 31.4489 6.23665 30.984 6.45801 30.4639C6.67936 29.9326 6.85645 29.3958 6.98926 28.8535C7.12207 28.3001 7.21615 27.7633 7.27148 27.2432C7.33789 26.723 7.37109 26.2581 7.37109 25.8486C7.08333 25.8486 6.93945 25.7158 6.93945 25.4502C6.93945 25.2842 6.97266 25.1403 7.03906 25.0186C7.10547 24.8857 7.13867 24.7197 7.13867 24.5205C7.13867 24.277 7.0944 24.0391 7.00586 23.8066C6.92839 23.5742 6.80664 23.3639 6.64062 23.1758C6.48568 22.9876 6.29753 22.8438 6.07617 22.7441C5.86589 22.6335 5.63346 22.5781 5.37891 22.5781C4.85872 22.5781 4.39941 22.722 4.00098 23.0098C3.61361 23.2865 3.27051 23.6517 2.97168 24.1055C2.67285 24.5592 2.41829 25.0739 2.20801 25.6494C2.00879 26.2139 1.84277 26.7894 1.70996 27.376C1.58822 27.9515 1.49967 28.5049 1.44434 29.0361C1.389 29.5563 1.36133 29.9935 1.36133 30.3477ZM12.0859 33.668L12.6504 30.3477V29.8828L12.9824 27.6748C13.0156 27.6305 13.0765 27.6084 13.165 27.6084C13.2536 27.5973 13.3145 27.5918 13.3477 27.5918C13.4362 27.5918 13.5358 27.625 13.6465 27.6914C13.7682 27.7467 13.8291 27.8242 13.8291 27.9238V29.0527C13.8734 29.0195 13.9508 28.9531 14.0615 28.8535C14.1722 28.7539 14.2884 28.6488 14.4102 28.5381C14.543 28.4274 14.6647 28.3223 14.7754 28.2227C14.8861 28.123 14.958 28.0511 14.9912 28.0068C15.113 27.8962 15.2568 27.8021 15.4229 27.7246C15.5999 27.6471 15.766 27.6084 15.9209 27.6084C16.2419 27.6084 16.4909 27.708 16.668 27.9072C16.8561 28.1064 16.9502 28.361 16.9502 28.6709C16.9502 28.693 16.9447 28.7096 16.9336 28.7207C16.9336 28.7207 16.9336 28.7318 16.9336 28.7539V28.8203L16.3027 31.6592V33.0039C16.6458 33.0039 17 32.9375 17.3652 32.8047C17.7415 32.6608 18.1012 32.4837 18.4443 32.2734C18.7874 32.0632 19.1084 31.8252 19.4072 31.5596C19.7061 31.2829 19.9661 31.0173 20.1875 30.7627H20.2539C20.3314 30.7627 20.3923 30.7904 20.4365 30.8457C20.4919 30.89 20.5195 30.9508 20.5195 31.0283C20.5195 31.2718 20.4365 31.5153 20.2705 31.7588C20.1156 31.9912 19.9108 32.2126 19.6562 32.4229C19.4128 32.6331 19.125 32.8324 18.793 33.0205C18.472 33.2087 18.151 33.3691 17.8301 33.502C17.5202 33.6348 17.2158 33.7399 16.917 33.8174C16.6182 33.8949 16.3636 33.9336 16.1533 33.9336C15.943 33.9336 15.777 33.8949 15.6553 33.8174C15.5335 33.7399 15.4395 33.6403 15.373 33.5186C15.3177 33.3857 15.279 33.2419 15.2568 33.0869C15.2458 32.932 15.2402 32.766 15.2402 32.5889V32.373L15.8877 29.1523V28.6045C15.6221 28.6045 15.3564 28.7207 15.0908 28.9531C14.8363 29.1855 14.6038 29.4678 14.3936 29.7998C14.1943 30.1318 14.0173 30.4694 13.8623 30.8125C13.7184 31.1556 13.6133 31.4378 13.5469 31.6592C13.5247 31.7367 13.4915 31.875 13.4473 32.0742C13.403 32.2734 13.3587 32.4837 13.3145 32.7051C13.2812 32.9264 13.248 33.1367 13.2148 33.3359C13.1816 33.5352 13.1595 33.679 13.1484 33.7676C13.1595 33.834 13.1374 33.8838 13.082 33.917C13.0378 33.9502 12.9824 33.9779 12.916 34C12.8496 34.0111 12.7777 34.0166 12.7002 34.0166C12.6338 34.0166 12.5785 34.0166 12.5342 34.0166C12.4346 34.0166 12.335 34 12.2354 33.9668C12.1357 33.9336 12.0859 33.8506 12.0859 33.7178V33.668ZM23.873 31.4932C23.8177 31.5485 23.7126 31.6426 23.5576 31.7754C23.4027 31.9082 23.2367 32.0521 23.0596 32.207C22.8936 32.3509 22.7331 32.4893 22.5781 32.6221C22.4232 32.7438 22.3125 32.8268 22.2461 32.8711C22.224 32.8822 22.1576 32.9209 22.0469 32.9873C21.9473 33.0426 21.8311 33.1146 21.6982 33.2031C21.5654 33.2806 21.4271 33.3581 21.2832 33.4355C21.1504 33.502 21.0452 33.5573 20.9678 33.6016C20.835 33.668 20.7409 33.7178 20.6855 33.751C20.6302 33.7731 20.5472 33.7842 20.4365 33.7842C20.2594 33.7842 20.0713 33.7288 19.8721 33.6182C19.6839 33.4964 19.5898 33.3304 19.5898 33.1201V31.3271L19.8223 30.1152C19.944 29.6504 20.0824 29.2741 20.2373 28.9863C20.3923 28.6875 20.5859 28.444 20.8184 28.2559C21.0508 28.0566 21.3275 27.9072 21.6484 27.8076C21.9805 27.708 22.3678 27.6139 22.8105 27.5254C22.8327 27.5143 22.9046 27.4867 23.0264 27.4424C23.1481 27.3981 23.2201 27.3704 23.2422 27.3594H23.4746C23.6517 27.3594 23.8066 27.3981 23.9395 27.4756C24.0833 27.5531 24.2217 27.6527 24.3545 27.7744L25.1846 24.2217C25.1624 24.0999 25.1624 23.9339 25.1846 23.7236C25.2067 23.5023 25.2454 23.2809 25.3008 23.0596C25.3672 22.8382 25.4502 22.6501 25.5498 22.4951C25.6494 22.3402 25.7656 22.2627 25.8984 22.2627C26.0645 22.2627 26.1917 22.3236 26.2803 22.4453C26.3799 22.5671 26.4131 22.722 26.3799 22.9102L25.4834 28.3389C25.2842 28.8148 25.1348 29.2907 25.0352 29.7666C24.9466 30.2425 24.9023 30.735 24.9023 31.2441C24.9023 31.4766 24.9189 31.709 24.9521 31.9414C24.9854 32.1738 25.0462 32.3841 25.1348 32.5723C25.2344 32.7604 25.3672 32.9154 25.5332 33.0371C25.6992 33.1478 25.915 33.2031 26.1807 33.2031C26.7673 33.2031 27.3483 33.098 27.9238 32.8877C28.4993 32.6663 29.0085 32.3675 29.4512 31.9912C29.4733 31.9912 29.4899 31.9912 29.501 31.9912C29.512 31.9801 29.5286 31.9746 29.5508 31.9746C29.6393 31.9746 29.7168 32.0023 29.7832 32.0576C29.7832 32.0798 29.7832 32.113 29.7832 32.1572C29.7943 32.2015 29.7998 32.2347 29.7998 32.2568C29.7998 32.4339 29.7279 32.5999 29.584 32.7549C29.4401 32.9098 29.252 33.0537 29.0195 33.1865C28.7982 33.3193 28.5492 33.4355 28.2725 33.5352C28.0068 33.6348 27.7357 33.7233 27.459 33.8008C27.1934 33.8783 26.9443 33.9336 26.7119 33.9668C26.4795 34 26.2969 34.0166 26.1641 34.0166C25.7767 34.0166 25.4502 33.9557 25.1846 33.834C24.93 33.7012 24.7142 33.5186 24.5371 33.2861C24.3711 33.0537 24.2438 32.7881 24.1553 32.4893C24.0667 32.1794 24.0003 31.8473 23.9561 31.4932H23.873ZM20.6357 30.8457C20.6357 30.9121 20.6247 31.0228 20.6025 31.1777C20.5915 31.3327 20.5749 31.5042 20.5527 31.6924C20.5417 31.8695 20.5251 32.041 20.5029 32.207C20.4919 32.362 20.4808 32.4782 20.4697 32.5557C20.4697 32.5778 20.4642 32.6331 20.4531 32.7217C20.4531 32.8102 20.4531 32.8656 20.4531 32.8877C20.6081 32.8877 20.8073 32.8268 21.0508 32.7051C21.2943 32.5723 21.5488 32.4062 21.8145 32.207C22.0801 31.9967 22.3512 31.7643 22.6279 31.5098C22.9046 31.2441 23.1481 30.984 23.3584 30.7295C23.5798 30.4749 23.7624 30.2259 23.9062 29.9824C24.0501 29.7279 24.1221 29.512 24.1221 29.335C24.1221 29.2796 24.0778 29.2021 23.9893 29.1025C23.9118 29.0029 23.8177 28.9089 23.707 28.8203C23.6074 28.7318 23.5023 28.6543 23.3916 28.5879C23.292 28.5215 23.2035 28.4883 23.126 28.4883C22.8936 28.4108 22.6224 28.4329 22.3125 28.5547C22.0137 28.6654 21.7314 28.8424 21.4658 29.0859C21.2002 29.3184 20.9844 29.5895 20.8184 29.8994C20.6523 30.2093 20.5915 30.5247 20.6357 30.8457ZM40.9727 31.4932C40.9173 31.5485 40.8122 31.6426 40.6572 31.7754C40.5023 31.9082 40.3363 32.0521 40.1592 32.207C39.9932 32.3509 39.8327 32.4893 39.6777 32.6221C39.5228 32.7438 39.4121 32.8268 39.3457 32.8711C39.3236 32.8822 39.2572 32.9209 39.1465 32.9873C39.0469 33.0426 38.9307 33.1146 38.7979 33.2031C38.665 33.2806 38.5267 33.3581 38.3828 33.4355C38.25 33.502 38.1449 33.5573 38.0674 33.6016C37.9346 33.668 37.8405 33.7178 37.7852 33.751C37.7298 33.7731 37.6468 33.7842 37.5361 33.7842C37.359 33.7842 37.1709 33.7288 36.9717 33.6182C36.7835 33.4964 36.6895 33.3304 36.6895 33.1201V31.3271L36.9219 30.1152C37.0436 29.6504 37.182 29.2741 37.3369 28.9863C37.4919 28.6875 37.6855 28.444 37.918 28.2559C38.1504 28.0566 38.4271 27.9072 38.748 27.8076C39.0801 27.708 39.4674 27.6139 39.9102 27.5254C39.9323 27.5143 40.0042 27.4867 40.126 27.4424C40.2477 27.3981 40.3197 27.3704 40.3418 27.3594H40.5742C40.7513 27.3594 40.9062 27.3981 41.0391 27.4756C41.1829 27.5531 41.3213 27.6527 41.4541 27.7744L42.2842 24.2217C42.262 24.0999 42.262 23.9339 42.2842 23.7236C42.3063 23.5023 42.3451 23.2809 42.4004 23.0596C42.4668 22.8382 42.5498 22.6501 42.6494 22.4951C42.749 22.3402 42.8652 22.2627 42.998 22.2627C43.1641 22.2627 43.2913 22.3236 43.3799 22.4453C43.4795 22.5671 43.5127 22.722 43.4795 22.9102L42.583 28.3389C42.3838 28.8148 42.2344 29.2907 42.1348 29.7666C42.0462 30.2425 42.002 30.735 42.002 31.2441C42.002 31.4766 42.0186 31.709 42.0518 31.9414C42.085 32.1738 42.1458 32.3841 42.2344 32.5723C42.334 32.7604 42.4668 32.9154 42.6328 33.0371C42.7988 33.1478 43.0146 33.2031 43.2803 33.2031C43.8669 33.2031 44.4479 33.098 45.0234 32.8877C45.599 32.6663 46.1081 32.3675 46.5508 31.9912C46.5729 31.9912 46.5895 31.9912 46.6006 31.9912C46.6117 31.9801 46.6283 31.9746 46.6504 31.9746C46.7389 31.9746 46.8164 32.0023 46.8828 32.0576C46.8828 32.0798 46.8828 32.113 46.8828 32.1572C46.8939 32.2015 46.8994 32.2347 46.8994 32.2568C46.8994 32.4339 46.8275 32.5999 46.6836 32.7549C46.5397 32.9098 46.3516 33.0537 46.1191 33.1865C45.8978 33.3193 45.6488 33.4355 45.3721 33.5352C45.1064 33.6348 44.8353 33.7233 44.5586 33.8008C44.293 33.8783 44.0439 33.9336 43.8115 33.9668C43.5791 34 43.3965 34.0166 43.2637 34.0166C42.8763 34.0166 42.5498 33.9557 42.2842 33.834C42.0296 33.7012 41.8138 33.5186 41.6367 33.2861C41.4707 33.0537 41.3434 32.7881 41.2549 32.4893C41.1663 32.1794 41.0999 31.8473 41.0557 31.4932H40.9727ZM37.7354 30.8457C37.7354 30.9121 37.7243 31.0228 37.7021 31.1777C37.6911 31.3327 37.6745 31.5042 37.6523 31.6924C37.6413 31.8695 37.6247 32.041 37.6025 32.207C37.5915 32.362 37.5804 32.4782 37.5693 32.5557C37.5693 32.5778 37.5638 32.6331 37.5527 32.7217C37.5527 32.8102 37.5527 32.8656 37.5527 32.8877C37.7077 32.8877 37.9069 32.8268 38.1504 32.7051C38.3939 32.5723 38.6484 32.4062 38.9141 32.207C39.1797 31.9967 39.4508 31.7643 39.7275 31.5098C40.0042 31.2441 40.2477 30.984 40.458 30.7295C40.6794 30.4749 40.862 30.2259 41.0059 29.9824C41.1497 29.7279 41.2217 29.512 41.2217 29.335C41.2217 29.2796 41.1774 29.2021 41.0889 29.1025C41.0114 29.0029 40.9173 28.9089 40.8066 28.8203C40.707 28.7318 40.6019 28.6543 40.4912 28.5879C40.3916 28.5215 40.3031 28.4883 40.2256 28.4883C39.9932 28.4108 39.722 28.4329 39.4121 28.5547C39.1133 28.6654 38.8311 28.8424 38.5654 29.0859C38.2998 29.3184 38.084 29.5895 37.918 29.8994C37.752 30.2093 37.6911 30.5247 37.7354 30.8457ZM46.501 30.5137C46.512 30.4583 46.5452 30.3587 46.6006 30.2148C46.6559 30.071 46.7113 29.916 46.7666 29.75C46.833 29.584 46.8939 29.429 46.9492 29.2852C47.0046 29.1413 47.0433 29.0417 47.0654 28.9863C47.1318 28.8092 47.1927 28.693 47.248 28.6377C47.3145 28.5824 47.4307 28.5547 47.5967 28.5547C47.7738 28.5547 47.89 28.6156 47.9453 28.7373C48.0007 28.859 48.0283 29.0029 48.0283 29.1689C48.0283 29.4567 47.984 29.7223 47.8955 29.9658C47.818 30.1982 47.7295 30.4362 47.6299 30.6797C47.5303 30.9121 47.4362 31.1667 47.3477 31.4434C47.2702 31.709 47.2314 32.0189 47.2314 32.373C47.2314 32.4173 47.2314 32.4837 47.2314 32.5723C47.2314 32.6497 47.237 32.7327 47.248 32.8213C47.2591 32.8988 47.2812 32.9707 47.3145 33.0371C47.3477 33.0924 47.3919 33.1201 47.4473 33.1201C47.735 33.1201 48.0228 33.0648 48.3105 32.9541C48.6094 32.8324 48.8971 32.694 49.1738 32.5391C49.4616 32.373 49.7327 32.196 49.9873 32.0078C50.2529 31.8086 50.4909 31.637 50.7012 31.4932C50.7786 31.4378 50.834 31.3825 50.8672 31.3271C50.9115 31.2718 50.9502 31.222 50.9834 31.1777C51.0166 31.1224 51.0553 31.0781 51.0996 31.0449C51.1549 31.0007 51.238 30.9785 51.3486 30.9785C51.4925 30.9785 51.6087 31.0117 51.6973 31.0781C51.7969 31.1335 51.8467 31.2386 51.8467 31.3936C51.8467 31.46 51.8411 31.5208 51.8301 31.5762C51.8301 31.6315 51.8024 31.6813 51.7471 31.7256C51.736 31.7588 51.6917 31.8031 51.6143 31.8584C51.5479 31.9137 51.4759 31.9746 51.3984 32.041C51.321 32.0964 51.249 32.1517 51.1826 32.207C51.1162 32.2513 51.0664 32.279 51.0332 32.29C51.0221 32.29 50.9889 32.3066 50.9336 32.3398C50.8893 32.362 50.8617 32.373 50.8506 32.373C50.8395 32.3841 50.8229 32.4007 50.8008 32.4229C50.7897 32.4339 50.7842 32.445 50.7842 32.4561C50.5518 32.6331 50.2972 32.8158 50.0205 33.0039C49.7549 33.181 49.4727 33.347 49.1738 33.502C48.875 33.6458 48.5651 33.7676 48.2441 33.8672C47.9342 33.9668 47.6243 34.0166 47.3145 34.0166C47.0488 34.0166 46.8441 33.9502 46.7002 33.8174C46.5674 33.6735 46.4678 33.4964 46.4014 33.2861C46.335 33.0758 46.2962 32.8545 46.2852 32.6221C46.2741 32.3896 46.2686 32.1794 46.2686 31.9912L46.501 30.5137ZM47.2979 26.1475C47.2979 25.9482 47.3366 25.8154 47.4141 25.749C47.4915 25.6826 47.6299 25.6494 47.8291 25.6494C47.9287 25.6494 48.0283 25.6715 48.1279 25.7158C48.2275 25.749 48.2773 25.8376 48.2773 25.9814C48.2773 26.1253 48.2054 26.2581 48.0615 26.3799C47.9287 26.5016 47.7959 26.5625 47.6631 26.5625C47.5303 26.5625 47.4362 26.5238 47.3809 26.4463C47.3255 26.3577 47.2979 26.2581 47.2979 26.1475ZM53.0088 31.6592C52.9202 31.7035 52.8262 31.7311 52.7266 31.7422C52.627 31.7422 52.5273 31.7422 52.4277 31.7422C52.3281 31.7422 52.2285 31.7477 52.1289 31.7588C52.0293 31.7588 51.9297 31.7809 51.8301 31.8252C51.6419 31.8473 51.5202 31.8363 51.4648 31.792C51.4095 31.7367 51.3929 31.6647 51.415 31.5762C51.4372 31.4876 51.498 31.388 51.5977 31.2773C51.6973 31.1667 51.8135 31.0726 51.9463 30.9951C52.068 30.9176 52.2008 30.8623 52.3447 30.8291C52.4997 30.7959 52.638 30.8014 52.7598 30.8457C52.7044 30.6465 52.71 30.4749 52.7764 30.3311C52.8428 30.1872 52.9756 30.1152 53.1748 30.1152C53.2744 30.1152 53.363 30.1263 53.4404 30.1484C53.529 30.1595 53.5954 30.2038 53.6396 30.2812C53.8057 30.1816 54.027 30.0156 54.3037 29.7832C54.5804 29.5397 54.8626 29.2962 55.1504 29.0527C55.4492 28.7982 55.7204 28.5768 55.9639 28.3887C56.2074 28.1895 56.3734 28.0898 56.4619 28.0898C56.4951 28.0898 56.5394 28.0954 56.5947 28.1064C56.6501 28.1064 56.7054 28.1175 56.7607 28.1396C56.8271 28.1618 56.877 28.1895 56.9102 28.2227C56.9544 28.2448 56.9766 28.2835 56.9766 28.3389V29.0527C56.8991 29.3626 56.8216 29.6559 56.7441 29.9326C56.6777 30.1982 56.6169 30.4639 56.5615 30.7295C56.5173 30.984 56.484 31.2441 56.4619 31.5098C56.4398 31.7754 56.4287 32.0576 56.4287 32.3564C56.6058 32.3564 56.8161 32.3177 57.0596 32.2402C57.3141 32.1628 57.5687 32.0687 57.8232 31.958C58.0778 31.8473 58.3158 31.7367 58.5371 31.626C58.7585 31.5042 58.9355 31.4046 59.0684 31.3271C59.0905 31.3161 59.1403 31.2773 59.2178 31.2109C59.2952 31.1445 59.3783 31.0781 59.4668 31.0117C59.5553 30.9342 59.6383 30.8678 59.7158 30.8125C59.8044 30.7461 59.8597 30.7018 59.8818 30.6797C59.904 30.6576 59.9593 30.6299 60.0479 30.5967C60.1364 30.5524 60.1862 30.5247 60.1973 30.5137C60.2415 30.5026 60.2803 30.5192 60.3135 30.5635C60.3577 30.5967 60.3965 30.641 60.4297 30.6963C60.4629 30.7406 60.485 30.7904 60.4961 30.8457C60.5182 30.89 60.5293 30.9176 60.5293 30.9287C60.5293 31.0394 60.485 31.1501 60.3965 31.2607C60.3079 31.3714 60.2028 31.4766 60.0811 31.5762C59.9593 31.6647 59.832 31.7533 59.6992 31.8418C59.5775 31.9193 59.4834 31.9912 59.417 32.0576C59.3285 32.1019 59.1735 32.1738 58.9521 32.2734C58.7419 32.373 58.515 32.4782 58.2715 32.5889C58.028 32.6995 57.7956 32.8047 57.5742 32.9043C57.3639 33.0039 57.2145 33.0758 57.126 33.1201C57.1038 33.1312 57.054 33.1478 56.9766 33.1699C56.8991 33.181 56.8161 33.2031 56.7275 33.2363C56.639 33.2695 56.5505 33.2972 56.4619 33.3193C56.3844 33.3304 56.3346 33.3415 56.3125 33.3525C56.2129 33.3857 56.1354 33.4411 56.0801 33.5186C56.0358 33.596 55.986 33.6735 55.9307 33.751C55.8864 33.8285 55.8255 33.8949 55.748 33.9502C55.6816 34.0055 55.571 34.0221 55.416 34C55.4049 33.9889 55.3551 33.9668 55.2666 33.9336C55.1891 33.8893 55.1393 33.8561 55.1172 33.834C54.8516 33.6458 54.6247 33.4688 54.4365 33.3027C54.2484 33.1367 54.0768 32.9762 53.9219 32.8213C53.7669 32.6553 53.6175 32.4782 53.4736 32.29C53.3408 32.1019 53.1859 31.8916 53.0088 31.6592ZM54.0547 30.9951C54.1322 31.1611 54.2041 31.3216 54.2705 31.4766C54.348 31.6315 54.4365 31.7809 54.5361 31.9248C54.6357 32.0576 54.7464 32.1738 54.8682 32.2734C55.001 32.373 55.1615 32.4339 55.3496 32.4561C55.3717 32.29 55.3994 32.0908 55.4326 31.8584C55.4658 31.626 55.5046 31.3825 55.5488 31.1279C55.5931 30.8734 55.6429 30.6243 55.6982 30.3809C55.7646 30.1263 55.8366 29.9049 55.9141 29.7168H55.748C55.571 29.8385 55.4049 29.9603 55.25 30.082C55.1061 30.1927 54.9622 30.3034 54.8184 30.4141C54.6745 30.5137 54.5583 30.6022 54.4697 30.6797C54.4587 30.6908 54.4421 30.7074 54.4199 30.7295C54.3978 30.7516 54.3812 30.7627 54.3701 30.7627C54.359 30.7848 54.3092 30.8236 54.2207 30.8789C54.1322 30.9342 54.0768 30.973 54.0547 30.9951ZM55.9141 29.4678C55.8809 29.4678 55.8643 29.4954 55.8643 29.5508C55.8643 29.5951 55.8809 29.6172 55.9141 29.6172C55.9583 29.6172 55.9805 29.5951 55.9805 29.5508C55.9805 29.4954 55.9583 29.4678 55.9141 29.4678ZM60.1143 31.7256C60.1696 31.1611 60.2969 30.6243 60.4961 30.1152C60.7064 29.6061 60.9443 29.1689 61.21 28.8037C61.4867 28.4385 61.7633 28.1562 62.04 27.957C62.3278 27.7578 62.5768 27.6969 62.7871 27.7744C62.8424 27.7412 62.8867 27.7135 62.9199 27.6914C62.9642 27.6582 62.9974 27.6305 63.0195 27.6084C63.0527 27.5752 63.0859 27.5531 63.1191 27.542C63.1634 27.5199 63.2243 27.5088 63.3018 27.5088C63.4567 27.5088 63.5951 27.5586 63.7168 27.6582C63.8385 27.7578 63.9437 27.8796 64.0322 28.0234C64.1318 28.1673 64.2038 28.3223 64.248 28.4883C64.3034 28.6432 64.3311 28.7871 64.3311 28.9199C64.3311 29.0638 64.2757 29.1634 64.165 29.2188C64.0544 29.2741 63.9271 29.3018 63.7832 29.3018C63.6947 29.3018 63.6172 29.2852 63.5508 29.252C63.4844 29.2077 63.4235 29.1579 63.3682 29.1025C63.3239 29.0472 63.2741 28.9919 63.2188 28.9365C63.1634 28.8812 63.0915 28.8424 63.0029 28.8203H62.9863H62.9365C62.9255 28.8314 62.8978 28.859 62.8535 28.9033C62.8203 28.9365 62.7982 28.9642 62.7871 28.9863C62.5547 29.263 62.3389 29.512 62.1396 29.7334C61.9404 29.9437 61.7633 30.1595 61.6084 30.3809C61.4645 30.6022 61.3483 30.8402 61.2598 31.0947C61.1823 31.3493 61.1436 31.6536 61.1436 32.0078C61.1436 32.041 61.1436 32.0908 61.1436 32.1572C61.1436 32.2236 61.1436 32.29 61.1436 32.3564C61.1546 32.4229 61.1602 32.4893 61.1602 32.5557C61.1602 32.6221 61.1602 32.6719 61.1602 32.7051C61.1823 32.8158 61.2432 32.8988 61.3428 32.9541C61.4535 33.0094 61.5531 33.0648 61.6416 33.1201C61.6748 33.1201 61.7578 33.1257 61.8906 33.1367C62.0234 33.1367 62.1009 33.1367 62.123 33.1367C62.5215 33.1367 62.9919 33.0758 63.5342 32.9541C64.0765 32.8213 64.6188 32.6497 65.1611 32.4395C65.7145 32.2292 66.2347 31.9801 66.7217 31.6924C67.2087 31.3936 67.596 31.0837 67.8838 30.7627C67.9502 30.6742 68.0055 30.5524 68.0498 30.3975C68.1051 30.2425 68.1605 30.0931 68.2158 29.9492C68.2822 29.7943 68.3542 29.6615 68.4316 29.5508C68.5091 29.4401 68.6253 29.3848 68.7803 29.3848C68.9242 29.3848 69.0127 29.4456 69.0459 29.5674C69.0902 29.6781 69.1123 29.7887 69.1123 29.8994C69.1123 30.2536 69.0238 30.5745 68.8467 30.8623C68.6807 31.1501 68.4704 31.4102 68.2158 31.6426C67.9613 31.875 67.679 32.0798 67.3691 32.2568C67.0703 32.4339 66.7826 32.5833 66.5059 32.7051C66.4284 32.7272 66.2568 32.7881 65.9912 32.8877C65.7367 32.9873 65.46 33.0924 65.1611 33.2031C64.8623 33.3138 64.569 33.4245 64.2812 33.5352C64.0046 33.6348 63.7998 33.7122 63.667 33.7676C63.4899 33.8229 63.3405 33.8672 63.2188 33.9004C63.097 33.9225 62.9863 33.9447 62.8867 33.9668C62.7871 33.9889 62.682 34 62.5713 34C62.4717 34.0111 62.3499 34.0166 62.2061 34.0166C61.8076 34.0166 61.4756 33.9668 61.21 33.8672C60.9554 33.7676 60.7507 33.6237 60.5957 33.4355C60.4408 33.2363 60.3245 32.9984 60.2471 32.7217C60.1807 32.4339 60.1364 32.1019 60.1143 31.7256ZM68.7139 32.7051C68.7139 32.694 68.7194 32.6553 68.7305 32.5889C68.7415 32.5225 68.7526 32.4561 68.7637 32.3896C68.7747 32.3122 68.7858 32.2458 68.7969 32.1904C68.8079 32.124 68.8135 32.0798 68.8135 32.0576V31.9912V31.8916L69.0459 30.8457C69.234 30.4473 69.4277 30.0654 69.627 29.7002C69.8372 29.335 70.0752 29.014 70.3408 28.7373C70.6064 28.4606 70.9108 28.2393 71.2539 28.0732C71.6081 27.9072 72.0342 27.8242 72.5322 27.8242C72.6318 27.8242 72.7536 27.8574 72.8975 27.9238C73.0524 27.9792 73.2018 28.0511 73.3457 28.1396C73.5007 28.2282 73.639 28.3223 73.7607 28.4219C73.8936 28.5104 73.9932 28.5934 74.0596 28.6709C74.4027 28.6156 74.6517 28.5879 74.8066 28.5879C74.9616 28.5768 75.0944 28.5713 75.2051 28.5713C75.3158 28.5602 75.432 28.5381 75.5537 28.5049C75.6865 28.4717 75.8857 28.3997 76.1514 28.2891C76.3395 28.2337 76.5221 28.2061 76.6992 28.2061C76.7767 28.2061 76.8486 28.2393 76.915 28.3057C76.9925 28.3721 77.0312 28.4495 77.0312 28.5381C77.0312 28.6488 76.9925 28.7484 76.915 28.8369C76.8376 28.9255 76.7435 28.9808 76.6328 29.0029L74.5576 29.4678L74.375 29.5508C74.3639 30.1484 74.2311 30.7184 73.9766 31.2607C73.722 31.8031 73.3844 32.279 72.9639 32.6885C72.5433 33.098 72.0563 33.4245 71.5029 33.668C70.9495 33.9004 70.374 34.0166 69.7764 34.0166C69.7321 34.0166 69.6602 34.0111 69.5605 34C69.4609 34 69.3945 34 69.3613 34C69.1178 33.9004 68.9463 33.7178 68.8467 33.4521C68.7581 33.1865 68.7139 32.9375 68.7139 32.7051ZM69.7764 33.0371C69.7874 33.0924 69.8317 33.1201 69.9092 33.1201C69.9867 33.1201 70.042 33.1201 70.0752 33.1201C70.4736 33.1201 70.8831 33.0205 71.3037 32.8213C71.7243 32.611 72.1006 32.3454 72.4326 32.0244C72.7757 31.6924 73.0524 31.3216 73.2627 30.9121C73.484 30.4915 73.5947 30.071 73.5947 29.6504C73.2406 29.6504 72.8864 29.6227 72.5322 29.5674C72.1781 29.501 71.835 29.4678 71.5029 29.4678H71.4863L70.1084 30.9287C70.0309 31.0062 69.9701 31.1113 69.9258 31.2441C69.8815 31.377 69.8483 31.5208 69.8262 31.6758C69.804 31.8307 69.7874 31.9857 69.7764 32.1406C69.7653 32.2956 69.7598 32.4339 69.7598 32.5557C69.7598 32.5889 69.7598 32.6663 69.7598 32.7881C69.7598 32.9098 69.7653 32.9928 69.7764 33.0371ZM76.832 32.2236L77.3301 29.9326C77.3743 29.5674 77.4352 29.2077 77.5127 28.8535C77.6012 28.4883 77.7008 28.1673 77.8115 27.8906C77.9333 27.6139 78.0605 27.387 78.1934 27.21C78.3262 27.0329 78.4645 26.9443 78.6084 26.9443C78.7744 26.9443 78.8962 27.0163 78.9736 27.1602C79.0511 27.293 79.0898 27.4313 79.0898 27.5752V27.7744L77.9609 31.4102C77.8945 31.6426 77.8447 31.8473 77.8115 32.0244C77.7894 32.2015 77.7783 32.4007 77.7783 32.6221C77.7783 32.6553 77.7728 32.6995 77.7617 32.7549C77.7617 32.8102 77.7673 32.8656 77.7783 32.9209C77.7894 32.9762 77.806 33.026 77.8281 33.0703C77.8613 33.1035 77.9001 33.1201 77.9443 33.1201C78.055 33.1201 78.1768 33.0924 78.3096 33.0371C78.4535 32.9818 78.5973 32.9209 78.7412 32.8545C78.8851 32.777 79.0179 32.7051 79.1396 32.6387C79.2614 32.5612 79.3555 32.5003 79.4219 32.4561C79.6764 32.3011 79.9089 32.1406 80.1191 31.9746C80.3294 31.8086 80.5286 31.637 80.7168 31.46C80.9049 31.2829 81.082 31.0947 81.248 30.8955C81.4141 30.6852 81.5856 30.4528 81.7627 30.1982C81.818 30.0986 81.8844 29.9548 81.9619 29.7666C82.0394 29.5674 82.1224 29.346 82.2109 29.1025C82.2995 28.848 82.388 28.5934 82.4766 28.3389C82.5651 28.0843 82.6536 27.8464 82.7422 27.625C82.8307 27.4036 82.9193 27.2266 83.0078 27.0938C83.0964 26.9499 83.1849 26.8779 83.2734 26.8779C83.3841 26.8779 83.4616 26.9001 83.5059 26.9443C83.5612 26.9775 83.5999 27.0273 83.6221 27.0938C83.6553 27.1602 83.6774 27.2321 83.6885 27.3096C83.7106 27.387 83.7383 27.459 83.7715 27.5254C83.7826 27.5365 83.8102 27.5531 83.8545 27.5752C83.8988 27.5863 83.932 27.5973 83.9541 27.6084C84.0648 27.6416 84.1201 27.6693 84.1201 27.6914C84.1312 27.7135 84.1312 27.7412 84.1201 27.7744C84.109 27.7965 84.109 27.8132 84.1201 27.8242C84.1312 27.8242 84.1921 27.8242 84.3027 27.8242H84.3525C84.4854 27.8132 84.6514 27.7965 84.8506 27.7744C85.0609 27.7412 85.2601 27.7135 85.4482 27.6914C85.6364 27.6693 85.7969 27.6471 85.9297 27.625C86.0736 27.6029 86.1455 27.5918 86.1455 27.5918L86.4775 28.3057C86.1566 28.3942 85.8854 28.4661 85.6641 28.5215C85.4427 28.5658 85.2269 28.599 85.0166 28.6211C84.8174 28.6432 84.6016 28.6488 84.3691 28.6377C84.1478 28.6266 83.8766 28.61 83.5557 28.5879L83.4561 28.6709C83.2458 29.1911 83.0299 29.6725 82.8086 30.1152C82.5983 30.5469 82.3493 30.9508 82.0615 31.3271C81.7738 31.6924 81.4473 32.041 81.082 32.373C80.7279 32.694 80.3073 32.9928 79.8203 33.2695C79.5104 33.4466 79.195 33.6182 78.874 33.7842C78.5531 33.9391 78.221 34.0166 77.8779 34.0166C77.6676 34.0166 77.4906 33.9779 77.3467 33.9004C77.2139 33.8229 77.1087 33.7233 77.0312 33.6016C76.9538 33.4688 76.8984 33.3193 76.8652 33.1533C76.8431 32.9762 76.832 32.7992 76.832 32.6221V32.2236ZM85.7305 31.4102C85.7526 31.3438 85.7858 31.2275 85.8301 31.0615C85.8854 30.8844 85.9352 30.6963 85.9795 30.4971C86.0348 30.2979 86.0791 30.1097 86.1123 29.9326C86.1566 29.7445 86.1898 29.6172 86.2119 29.5508C86.2783 29.2852 86.3558 28.9974 86.4443 28.6875C86.5439 28.3776 86.6768 28.0898 86.8428 27.8242C87.0088 27.5586 87.2191 27.3428 87.4736 27.1768C87.7393 26.9997 88.0658 26.9111 88.4531 26.9111C88.597 26.9111 88.6966 26.9665 88.752 27.0771C88.8184 27.1768 88.8737 27.2874 88.918 27.4092C88.918 27.4535 88.918 27.5365 88.918 27.6582C88.929 27.7689 88.9346 27.8464 88.9346 27.8906C88.9346 28.3665 88.8848 28.7871 88.7852 29.1523C88.6966 29.5176 88.5527 29.8551 88.3535 30.165C88.1654 30.4749 87.9329 30.7682 87.6562 31.0449C87.3796 31.3105 87.0641 31.5928 86.71 31.8916C86.6989 31.9248 86.6823 31.9801 86.6602 32.0576C86.638 32.1351 86.627 32.1904 86.627 32.2236V32.2568C86.627 32.4561 86.6602 32.6165 86.7266 32.7383C86.793 32.86 86.8815 32.9596 86.9922 33.0371C87.1139 33.1035 87.2467 33.1478 87.3906 33.1699C87.5456 33.181 87.7116 33.1865 87.8887 33.1865C88.4089 33.1865 88.9069 33.1146 89.3828 32.9707C89.8587 32.8268 90.2959 32.5944 90.6943 32.2734C90.7497 32.2181 90.8161 32.1406 90.8936 32.041C90.9821 31.9303 91.0706 31.8197 91.1592 31.709C91.2477 31.5983 91.3418 31.5042 91.4414 31.4268C91.541 31.3382 91.6462 31.2939 91.7568 31.2939C91.8675 31.2939 91.9339 31.3382 91.9561 31.4268C91.9782 31.5153 91.9893 31.6038 91.9893 31.6924C91.9893 31.9359 91.9118 32.1683 91.7568 32.3896C91.613 32.5999 91.4193 32.7936 91.1758 32.9707C90.9434 33.1367 90.6722 33.2861 90.3623 33.4189C90.0635 33.5518 89.7646 33.6624 89.4658 33.751C89.167 33.8395 88.8792 33.9059 88.6025 33.9502C88.3369 33.9945 88.11 34.0166 87.9219 34.0166C87.3353 34.0166 86.8428 33.9225 86.4443 33.7344C86.057 33.5352 85.7913 33.1423 85.6475 32.5557L85.7305 31.4102ZM88.1045 28.1396C87.8831 28.3389 87.7061 28.5215 87.5732 28.6875C87.4515 28.8424 87.3519 29.0085 87.2744 29.1855C87.208 29.3516 87.1471 29.5342 87.0918 29.7334C87.0475 29.9326 86.9977 30.165 86.9424 30.4307C87.1527 30.2646 87.3242 30.0986 87.457 29.9326C87.6009 29.7666 87.7171 29.5951 87.8057 29.418C87.8942 29.2409 87.9606 29.0527 88.0049 28.8535C88.0492 28.6432 88.0824 28.4053 88.1045 28.1396ZM91.2422 32.0244C91.5521 31.792 91.779 31.5651 91.9229 31.3438C92.0778 31.1224 92.1995 30.901 92.2881 30.6797C92.3766 30.4583 92.4486 30.2259 92.5039 29.9824C92.5592 29.7279 92.6478 29.4512 92.7695 29.1523C92.7253 29.0749 92.6976 29.0085 92.6865 28.9531C92.6865 28.8867 92.6865 28.8092 92.6865 28.7207C92.6865 28.6322 92.6976 28.527 92.7197 28.4053C92.7529 28.2835 92.7972 28.1729 92.8525 28.0732C92.9079 27.9626 92.9743 27.8685 93.0518 27.791C93.1292 27.7135 93.2233 27.6748 93.334 27.6748C93.3229 27.7191 93.3838 27.7689 93.5166 27.8242C93.6605 27.8796 93.832 27.9404 94.0312 28.0068C94.2415 28.0732 94.4629 28.1452 94.6953 28.2227C94.9277 28.3001 95.1325 28.3831 95.3096 28.4717C95.5088 28.5824 95.6471 28.7041 95.7246 28.8369C95.8132 28.9587 95.8574 29.1357 95.8574 29.3682C95.8574 29.5785 95.8298 29.8164 95.7744 30.082C95.7301 30.3477 95.6803 30.6188 95.625 30.8955C95.5807 31.1611 95.5309 31.4323 95.4756 31.709C95.4313 31.9746 95.4092 32.2181 95.4092 32.4395V32.8711C95.3981 32.9707 95.4202 33.026 95.4756 33.0371C95.542 33.0371 95.6029 33.0371 95.6582 33.0371C95.791 33.0371 95.9128 33.015 96.0234 32.9707C96.1341 32.9264 96.2448 32.8766 96.3555 32.8213C96.4772 32.766 96.5934 32.7161 96.7041 32.6719C96.8148 32.6165 96.931 32.5778 97.0527 32.5557L98.5137 31.6592C98.5579 31.5817 98.6133 31.5208 98.6797 31.4766C98.7572 31.4212 98.8291 31.3714 98.8955 31.3271C99.0062 31.2607 99.139 31.1667 99.2939 31.0449C99.3714 30.9785 99.4544 30.9121 99.543 30.8457H100.041C100.074 30.8457 100.096 30.8789 100.107 30.9453C100.118 31.0117 100.124 31.0615 100.124 31.0947C100.124 31.2275 100.03 31.3936 99.8418 31.5928C99.6536 31.792 99.4102 31.9967 99.1113 32.207C98.8125 32.4173 98.4805 32.6276 98.1152 32.8379C97.75 33.0371 97.3903 33.2197 97.0361 33.3857C96.693 33.5518 96.3721 33.6846 96.0732 33.7842C95.7855 33.8838 95.5641 33.9336 95.4092 33.9336C95.21 33.9336 95.0495 33.8838 94.9277 33.7842C94.806 33.6846 94.7064 33.5628 94.6289 33.4189C94.5514 33.2751 94.4961 33.1201 94.4629 32.9541C94.4408 32.777 94.4297 32.6055 94.4297 32.4395C94.4297 32.3177 94.4684 32.1462 94.5459 31.9248C94.6234 31.7035 94.7119 31.4766 94.8115 31.2441C94.9111 31.0117 94.9997 30.7848 95.0771 30.5635C95.1546 30.3421 95.1934 30.165 95.1934 30.0322C95.1934 30.0212 95.1104 29.9769 94.9443 29.8994C94.7894 29.8219 94.6178 29.7389 94.4297 29.6504C94.2415 29.5508 94.0645 29.4678 93.8984 29.4014C93.7435 29.3239 93.666 29.2796 93.666 29.2686C93.4225 29.5231 93.251 29.7943 93.1514 30.082C93.0628 30.3698 92.9688 30.6686 92.8691 30.9785C92.7806 31.2884 92.6423 31.5983 92.4541 31.9082C92.277 32.2181 91.9727 32.5225 91.541 32.8213C91.5299 32.8213 91.5078 32.8158 91.4746 32.8047C91.4303 32.7936 91.3916 32.766 91.3584 32.7217C91.3141 32.6663 91.2809 32.5889 91.2588 32.4893C91.2367 32.3786 91.2311 32.2236 91.2422 32.0244ZM106.25 38.1836C106.25 37.4642 106.41 36.8001 106.731 36.1914C107.041 35.5938 107.44 35.0459 107.927 34.5479C108.425 34.0609 108.973 33.6237 109.57 33.2363C110.179 32.849 110.771 32.5114 111.347 32.2236L111.828 30.6797C111.773 30.7461 111.662 30.8568 111.496 31.0117C111.341 31.1667 111.175 31.3327 110.998 31.5098C110.821 31.6758 110.649 31.8363 110.483 31.9912C110.317 32.1351 110.201 32.2347 110.135 32.29C110.002 32.4007 109.841 32.528 109.653 32.6719C109.465 32.8158 109.26 32.9541 109.039 33.0869C108.829 33.2087 108.613 33.3138 108.392 33.4023C108.17 33.4798 107.971 33.5186 107.794 33.5186C107.55 33.5186 107.39 33.4632 107.312 33.3525C107.246 33.2308 107.213 33.0592 107.213 32.8379C107.213 32.6608 107.224 32.4782 107.246 32.29C107.279 32.1019 107.274 31.9137 107.229 31.7256L107.877 29.9658C107.977 29.8662 108.071 29.7113 108.159 29.501C108.259 29.2907 108.353 29.0804 108.441 28.8701C108.541 28.6598 108.641 28.4772 108.74 28.3223C108.851 28.1673 108.967 28.0898 109.089 28.0898C109.222 28.0898 109.332 28.1286 109.421 28.2061C109.521 28.2835 109.57 28.3942 109.57 28.5381C109.57 28.6488 109.554 28.7484 109.521 28.8369C109.498 28.9144 109.46 29.0195 109.404 29.1523C109.26 29.4512 109.117 29.7334 108.973 29.999C108.84 30.2646 108.713 30.5303 108.591 30.7959C108.48 31.0615 108.386 31.3382 108.309 31.626C108.242 31.9027 108.209 32.2126 108.209 32.5557H108.275C108.275 32.5557 108.309 32.5391 108.375 32.5059C108.441 32.4616 108.513 32.4173 108.591 32.373C108.679 32.3177 108.768 32.2624 108.856 32.207C108.945 32.1517 109.022 32.1019 109.089 32.0576C109.698 31.6592 110.234 31.1943 110.699 30.6631C111.164 30.1208 111.623 29.5618 112.077 28.9863C112.121 28.9199 112.16 28.8701 112.193 28.8369C112.227 28.8037 112.254 28.7816 112.276 28.7705C112.299 28.7484 112.326 28.7373 112.359 28.7373C112.393 28.7373 112.442 28.7373 112.509 28.7373C112.664 28.7373 112.785 28.7705 112.874 28.8369C112.974 28.8923 113.035 29.0251 113.057 29.2354C113.068 29.3792 113.057 29.5563 113.023 29.7666C112.99 29.9658 112.946 30.165 112.891 30.3643C112.835 30.5635 112.774 30.7627 112.708 30.9619C112.653 31.1501 112.603 31.2995 112.559 31.4102V31.6592C112.581 31.6481 112.631 31.6315 112.708 31.6094C112.797 31.5872 112.857 31.5706 112.891 31.5596C112.957 31.5485 113.14 31.4876 113.438 31.377C113.737 31.2663 114.058 31.1501 114.401 31.0283C114.756 30.8955 115.082 30.7738 115.381 30.6631C115.68 30.5524 115.868 30.4805 115.945 30.4473H115.979C116.056 30.4473 116.122 30.4749 116.178 30.5303C116.244 30.5856 116.277 30.652 116.277 30.7295C116.277 30.807 116.25 30.8734 116.194 30.9287C116.15 30.984 116.095 31.0339 116.028 31.0781C115.962 31.1113 115.89 31.1445 115.812 31.1777C115.735 31.2109 115.669 31.2386 115.613 31.2607C115.536 31.305 115.425 31.3604 115.281 31.4268C115.137 31.4821 114.971 31.5485 114.783 31.626C114.606 31.6924 114.418 31.7699 114.219 31.8584C114.02 31.9469 113.826 32.0299 113.638 32.1074C113.184 32.2956 112.691 32.4948 112.16 32.7051L110.699 38.2168C110.633 38.4824 110.506 38.7591 110.317 39.0469C110.14 39.3346 109.93 39.6003 109.687 39.8438C109.443 40.0872 109.172 40.2809 108.873 40.4248C108.585 40.5798 108.292 40.6572 107.993 40.6572C107.683 40.6572 107.418 40.5742 107.196 40.4082C106.975 40.2533 106.792 40.0485 106.648 39.7939C106.505 39.5505 106.405 39.2848 106.35 38.9971C106.283 38.7093 106.25 38.4382 106.25 38.1836ZM107.146 38.1836C107.146 38.3275 107.158 38.488 107.18 38.665C107.213 38.8421 107.268 39.0137 107.346 39.1797C107.423 39.3457 107.517 39.484 107.628 39.5947C107.75 39.7054 107.905 39.7607 108.093 39.7607C108.336 39.7607 108.558 39.6833 108.757 39.5283C108.967 39.3844 109.15 39.2018 109.305 38.9805C109.471 38.7702 109.609 38.5433 109.72 38.2998C109.83 38.0563 109.919 37.8405 109.985 37.6523C110.019 37.5195 110.068 37.3314 110.135 37.0879C110.201 36.8555 110.262 36.623 110.317 36.3906C110.384 36.1582 110.439 35.9479 110.483 35.7598C110.528 35.5827 110.55 35.4775 110.55 35.4443V35.3779L111.031 33.2861C110.589 33.43 110.135 33.6735 109.67 34.0166C109.216 34.3597 108.801 34.7581 108.425 35.2119C108.049 35.6657 107.739 36.1527 107.495 36.6729C107.263 37.193 107.146 37.6966 107.146 38.1836ZM115.58 32.7051C115.58 32.694 115.586 32.6553 115.597 32.5889C115.608 32.5225 115.619 32.4561 115.63 32.3896C115.641 32.3122 115.652 32.2458 115.663 32.1904C115.674 32.124 115.68 32.0798 115.68 32.0576V31.9912V31.8916L115.912 30.8457C116.1 30.4473 116.294 30.0654 116.493 29.7002C116.703 29.335 116.941 29.014 117.207 28.7373C117.473 28.4606 117.777 28.2393 118.12 28.0732C118.474 27.9072 118.9 27.8242 119.398 27.8242C119.498 27.8242 119.62 27.8574 119.764 27.9238C119.919 27.9792 120.068 28.0511 120.212 28.1396C120.367 28.2282 120.505 28.3223 120.627 28.4219C120.76 28.5104 120.859 28.5934 120.926 28.6709C121.269 28.6156 121.518 28.5879 121.673 28.5879C121.828 28.5768 121.961 28.5713 122.071 28.5713C122.182 28.5602 122.298 28.5381 122.42 28.5049C122.553 28.4717 122.752 28.3997 123.018 28.2891C123.206 28.2337 123.388 28.2061 123.565 28.2061C123.643 28.2061 123.715 28.2393 123.781 28.3057C123.859 28.3721 123.897 28.4495 123.897 28.5381C123.897 28.6488 123.859 28.7484 123.781 28.8369C123.704 28.9255 123.61 28.9808 123.499 29.0029L121.424 29.4678L121.241 29.5508C121.23 30.1484 121.097 30.7184 120.843 31.2607C120.588 31.8031 120.251 32.279 119.83 32.6885C119.41 33.098 118.923 33.4245 118.369 33.668C117.816 33.9004 117.24 34.0166 116.643 34.0166C116.598 34.0166 116.526 34.0111 116.427 34C116.327 34 116.261 34 116.228 34C115.984 33.9004 115.812 33.7178 115.713 33.4521C115.624 33.1865 115.58 32.9375 115.58 32.7051ZM116.643 33.0371C116.654 33.0924 116.698 33.1201 116.775 33.1201C116.853 33.1201 116.908 33.1201 116.941 33.1201C117.34 33.1201 117.749 33.0205 118.17 32.8213C118.59 32.611 118.967 32.3454 119.299 32.0244C119.642 31.6924 119.919 31.3216 120.129 30.9121C120.35 30.4915 120.461 30.071 120.461 29.6504C120.107 29.6504 119.753 29.6227 119.398 29.5674C119.044 29.501 118.701 29.4678 118.369 29.4678H118.353L116.975 30.9287C116.897 31.0062 116.836 31.1113 116.792 31.2441C116.748 31.377 116.715 31.5208 116.692 31.6758C116.67 31.8307 116.654 31.9857 116.643 32.1406C116.632 32.2956 116.626 32.4339 116.626 32.5557C116.626 32.5889 116.626 32.6663 116.626 32.7881C116.626 32.9098 116.632 32.9928 116.643 33.0371ZM123.433 32.207C123.477 32.0521 123.505 31.8916 123.516 31.7256C123.538 31.5596 123.56 31.3825 123.582 31.1943C123.615 31.0062 123.665 30.7959 123.731 30.5635C123.809 30.32 123.925 30.0488 124.08 29.75C124.235 29.4512 124.44 29.1081 124.694 28.7207C124.96 28.3223 125.303 27.8685 125.724 27.3594C125.768 27.293 125.823 27.2376 125.89 27.1934C125.956 27.138 126.028 27.1104 126.105 27.1104C126.238 27.1104 126.354 27.1657 126.454 27.2764C126.554 27.376 126.604 27.4867 126.604 27.6084C126.604 27.6195 126.592 27.6582 126.57 27.7246C126.559 27.7799 126.548 27.8187 126.537 27.8408C126.415 28.0954 126.299 28.3223 126.188 28.5215C126.078 28.7207 125.962 28.9144 125.84 29.1025C125.718 29.2796 125.58 29.4678 125.425 29.667C125.281 29.8662 125.109 30.0931 124.91 30.3477C124.777 30.6797 124.661 30.9896 124.562 31.2773C124.462 31.5651 124.412 31.8861 124.412 32.2402C124.412 32.4173 124.418 32.5612 124.429 32.6719C124.451 32.7826 124.506 32.932 124.595 33.1201H124.777C125.098 33.1201 125.464 32.9928 125.873 32.7383C126.294 32.4727 126.703 32.1628 127.102 31.8086C127.511 31.4434 127.882 31.0726 128.214 30.6963C128.546 30.32 128.789 30.0156 128.944 29.7832C128.966 29.7611 128.994 29.7113 129.027 29.6338C129.072 29.5452 129.099 29.4899 129.11 29.4678C129.132 29.4014 129.171 29.2907 129.227 29.1357C129.282 28.9697 129.337 28.7982 129.393 28.6211C129.459 28.444 129.52 28.278 129.575 28.123C129.631 27.957 129.669 27.8408 129.691 27.7744C129.714 27.6748 129.758 27.6195 129.824 27.6084C129.891 27.5973 129.957 27.5918 130.023 27.5918C130.223 27.5918 130.35 27.6361 130.405 27.7246C130.461 27.8021 130.488 27.9349 130.488 28.123V28.4053C130.378 28.7041 130.278 28.9808 130.189 29.2354C130.112 29.4899 130.035 29.7389 129.957 29.9824C129.891 30.2259 129.841 30.4694 129.808 30.7129C129.774 30.9564 129.758 31.222 129.758 31.5098C129.758 31.543 129.752 31.6204 129.741 31.7422C129.741 31.8639 129.747 31.9912 129.758 32.124C129.78 32.2458 129.813 32.362 129.857 32.4727C129.913 32.5723 129.99 32.6221 130.09 32.6221C130.355 32.6221 130.627 32.5889 130.903 32.5225C131.191 32.445 131.479 32.3509 131.767 32.2402C132.054 32.1185 132.326 31.9857 132.58 31.8418C132.846 31.6979 133.095 31.554 133.327 31.4102C133.382 31.388 133.449 31.3382 133.526 31.2607C133.604 31.1833 133.687 31.1113 133.775 31.0449C133.864 30.9674 133.952 30.901 134.041 30.8457C134.13 30.7904 134.213 30.7627 134.29 30.7627C134.511 30.7627 134.622 30.8734 134.622 31.0947C134.622 31.2607 134.522 31.4378 134.323 31.626C134.124 31.8031 133.869 31.9801 133.56 32.1572C133.261 32.3343 132.923 32.5003 132.547 32.6553C132.171 32.8102 131.805 32.9486 131.451 33.0703C131.108 33.181 130.798 33.2751 130.521 33.3525C130.245 33.4189 130.046 33.4521 129.924 33.4521C129.88 33.4521 129.797 33.4521 129.675 33.4521C129.564 33.4411 129.487 33.4355 129.442 33.4355C129.265 33.3913 129.127 33.2917 129.027 33.1367C128.928 32.9818 128.85 32.8102 128.795 32.6221C128.751 32.4229 128.723 32.2292 128.712 32.041C128.701 31.8418 128.695 31.6813 128.695 31.5596C128.662 31.5817 128.618 31.6094 128.562 31.6426C128.518 31.6647 128.491 31.6924 128.479 31.7256C128.391 31.8031 128.242 31.9248 128.031 32.0908C127.832 32.2458 127.611 32.4173 127.367 32.6055C127.135 32.7826 126.913 32.9486 126.703 33.1035C126.504 33.2585 126.366 33.3691 126.288 33.4355C126.067 33.6016 125.823 33.7399 125.558 33.8506C125.292 33.9613 125.021 34.0166 124.744 34.0166C124.456 34.0166 124.229 33.9723 124.063 33.8838C123.897 33.7842 123.765 33.6569 123.665 33.502C123.576 33.3359 123.516 33.1423 123.482 32.9209C123.449 32.6995 123.433 32.4616 123.433 32.207ZM133.609 32.0244C133.919 31.792 134.146 31.5651 134.29 31.3438C134.445 31.1224 134.567 30.901 134.655 30.6797C134.744 30.4583 134.816 30.2259 134.871 29.9824C134.926 29.7279 135.015 29.4512 135.137 29.1523C135.092 29.0749 135.065 29.0085 135.054 28.9531C135.054 28.8867 135.054 28.8092 135.054 28.7207C135.054 28.6322 135.065 28.527 135.087 28.4053C135.12 28.2835 135.164 28.1729 135.22 28.0732C135.275 27.9626 135.341 27.8685 135.419 27.791C135.496 27.7135 135.59 27.6748 135.701 27.6748C135.69 27.7191 135.751 27.7689 135.884 27.8242C136.028 27.8796 136.199 27.9404 136.398 28.0068C136.609 28.0732 136.83 28.1452 137.062 28.2227C137.295 28.3001 137.5 28.3831 137.677 28.4717C137.876 28.5824 138.014 28.7041 138.092 28.8369C138.18 28.9587 138.225 29.1357 138.225 29.3682C138.225 29.5785 138.197 29.8164 138.142 30.082C138.097 30.3477 138.048 30.6188 137.992 30.8955C137.948 31.1611 137.898 31.4323 137.843 31.709C137.799 31.9746 137.776 32.2181 137.776 32.4395V32.8711C137.765 32.9707 137.787 33.026 137.843 33.0371C137.909 33.0371 137.97 33.0371 138.025 33.0371C138.158 33.0371 138.28 33.015 138.391 32.9707C138.501 32.9264 138.612 32.8766 138.723 32.8213C138.844 32.766 138.961 32.7161 139.071 32.6719C139.182 32.6165 139.298 32.5778 139.42 32.5557L140.881 31.6592C140.925 31.5817 140.98 31.5208 141.047 31.4766C141.124 31.4212 141.196 31.3714 141.263 31.3271C141.373 31.2607 141.506 31.1667 141.661 31.0449C141.739 30.9785 141.822 30.9121 141.91 30.8457H142.408C142.441 30.8457 142.464 30.8789 142.475 30.9453C142.486 31.0117 142.491 31.0615 142.491 31.0947C142.491 31.2275 142.397 31.3936 142.209 31.5928C142.021 31.792 141.777 31.9967 141.479 32.207C141.18 32.4173 140.848 32.6276 140.482 32.8379C140.117 33.0371 139.757 33.2197 139.403 33.3857C139.06 33.5518 138.739 33.6846 138.44 33.7842C138.153 33.8838 137.931 33.9336 137.776 33.9336C137.577 33.9336 137.417 33.8838 137.295 33.7842C137.173 33.6846 137.074 33.5628 136.996 33.4189C136.919 33.2751 136.863 33.1201 136.83 32.9541C136.808 32.777 136.797 32.6055 136.797 32.4395C136.797 32.3177 136.836 32.1462 136.913 31.9248C136.991 31.7035 137.079 31.4766 137.179 31.2441C137.278 31.0117 137.367 30.7848 137.444 30.5635C137.522 30.3421 137.561 30.165 137.561 30.0322C137.561 30.0212 137.478 29.9769 137.312 29.8994C137.157 29.8219 136.985 29.7389 136.797 29.6504C136.609 29.5508 136.432 29.4678 136.266 29.4014C136.111 29.3239 136.033 29.2796 136.033 29.2686C135.79 29.5231 135.618 29.7943 135.519 30.082C135.43 30.3698 135.336 30.6686 135.236 30.9785C135.148 31.2884 135.009 31.5983 134.821 31.9082C134.644 32.2181 134.34 32.5225 133.908 32.8213C133.897 32.8213 133.875 32.8158 133.842 32.8047C133.798 32.7936 133.759 32.766 133.726 32.7217C133.681 32.6663 133.648 32.5889 133.626 32.4893C133.604 32.3786 133.598 32.2236 133.609 32.0244ZM149.431 32.7051C149.431 32.694 149.436 32.6553 149.447 32.5889C149.458 32.5225 149.469 32.4561 149.48 32.3896C149.492 32.3122 149.503 32.2458 149.514 32.1904C149.525 32.124 149.53 32.0798 149.53 32.0576V31.9912V31.8916L149.763 30.8457C149.951 30.4473 150.145 30.0654 150.344 29.7002C150.554 29.335 150.792 29.014 151.058 28.7373C151.323 28.4606 151.628 28.2393 151.971 28.0732C152.325 27.9072 152.751 27.8242 153.249 27.8242C153.349 27.8242 153.47 27.8574 153.614 27.9238C153.769 27.9792 153.919 28.0511 154.062 28.1396C154.217 28.2282 154.356 28.3223 154.478 28.4219C154.61 28.5104 154.71 28.5934 154.776 28.6709C155.119 28.6156 155.368 28.5879 155.523 28.5879C155.678 28.5768 155.811 28.5713 155.922 28.5713C156.033 28.5602 156.149 28.5381 156.271 28.5049C156.403 28.4717 156.603 28.3997 156.868 28.2891C157.056 28.2337 157.239 28.2061 157.416 28.2061C157.493 28.2061 157.565 28.2393 157.632 28.3057C157.709 28.3721 157.748 28.4495 157.748 28.5381C157.748 28.6488 157.709 28.7484 157.632 28.8369C157.554 28.9255 157.46 28.9808 157.35 29.0029L155.274 29.4678L155.092 29.5508C155.081 30.1484 154.948 30.7184 154.693 31.2607C154.439 31.8031 154.101 32.279 153.681 32.6885C153.26 33.098 152.773 33.4245 152.22 33.668C151.666 33.9004 151.091 34.0166 150.493 34.0166C150.449 34.0166 150.377 34.0111 150.277 34C150.178 34 150.111 34 150.078 34C149.835 33.9004 149.663 33.7178 149.563 33.4521C149.475 33.1865 149.431 32.9375 149.431 32.7051ZM150.493 33.0371C150.504 33.0924 150.549 33.1201 150.626 33.1201C150.703 33.1201 150.759 33.1201 150.792 33.1201C151.19 33.1201 151.6 33.0205 152.021 32.8213C152.441 32.611 152.817 32.3454 153.149 32.0244C153.493 31.6924 153.769 31.3216 153.979 30.9121C154.201 30.4915 154.312 30.071 154.312 29.6504C153.957 29.6504 153.603 29.6227 153.249 29.5674C152.895 29.501 152.552 29.4678 152.22 29.4678H152.203L150.825 30.9287C150.748 31.0062 150.687 31.1113 150.643 31.2441C150.598 31.377 150.565 31.5208 150.543 31.6758C150.521 31.8307 150.504 31.9857 150.493 32.1406C150.482 32.2956 150.477 32.4339 150.477 32.5557C150.477 32.5889 150.477 32.6663 150.477 32.7881C150.477 32.9098 150.482 32.9928 150.493 33.0371ZM157.35 33.668L157.914 30.3477V29.8828L158.246 27.6748C158.279 27.6305 158.34 27.6084 158.429 27.6084C158.517 27.5973 158.578 27.5918 158.611 27.5918C158.7 27.5918 158.799 27.625 158.91 27.6914C159.032 27.7467 159.093 27.8242 159.093 27.9238V29.0527C159.137 29.0195 159.215 28.9531 159.325 28.8535C159.436 28.7539 159.552 28.6488 159.674 28.5381C159.807 28.4274 159.928 28.3223 160.039 28.2227C160.15 28.123 160.222 28.0511 160.255 28.0068C160.377 27.8962 160.521 27.8021 160.687 27.7246C160.864 27.6471 161.03 27.6084 161.185 27.6084C161.506 27.6084 161.755 27.708 161.932 27.9072C162.12 28.1064 162.214 28.361 162.214 28.6709C162.214 28.693 162.208 28.7096 162.197 28.7207C162.197 28.7207 162.197 28.7318 162.197 28.7539V28.8203L161.566 31.6592V33.0039C161.91 33.0039 162.264 32.9375 162.629 32.8047C163.005 32.6608 163.365 32.4837 163.708 32.2734C164.051 32.0632 164.372 31.8252 164.671 31.5596C164.97 31.2829 165.23 31.0173 165.451 30.7627H165.518C165.595 30.7627 165.656 30.7904 165.7 30.8457C165.756 30.89 165.783 30.9508 165.783 31.0283C165.783 31.2718 165.7 31.5153 165.534 31.7588C165.379 31.9912 165.174 32.2126 164.92 32.4229C164.676 32.6331 164.389 32.8324 164.057 33.0205C163.736 33.2087 163.415 33.3691 163.094 33.502C162.784 33.6348 162.479 33.7399 162.181 33.8174C161.882 33.8949 161.627 33.9336 161.417 33.9336C161.207 33.9336 161.041 33.8949 160.919 33.8174C160.797 33.7399 160.703 33.6403 160.637 33.5186C160.581 33.3857 160.543 33.2419 160.521 33.0869C160.509 32.932 160.504 32.766 160.504 32.5889V32.373L161.151 29.1523V28.6045C160.886 28.6045 160.62 28.7207 160.354 28.9531C160.1 29.1855 159.868 29.4678 159.657 29.7998C159.458 30.1318 159.281 30.4694 159.126 30.8125C158.982 31.1556 158.877 31.4378 158.811 31.6592C158.788 31.7367 158.755 31.875 158.711 32.0742C158.667 32.2734 158.622 32.4837 158.578 32.7051C158.545 32.9264 158.512 33.1367 158.479 33.3359C158.445 33.5352 158.423 33.679 158.412 33.7676C158.423 33.834 158.401 33.8838 158.346 33.917C158.301 33.9502 158.246 33.9779 158.18 34C158.113 34.0111 158.041 34.0166 157.964 34.0166C157.897 34.0166 157.842 34.0166 157.798 34.0166C157.698 34.0166 157.599 34 157.499 33.9668C157.399 33.9336 157.35 33.8506 157.35 33.7178V33.668ZM165.219 30.9951C165.219 30.9951 165.224 30.9896 165.235 30.9785C165.257 30.9564 165.274 30.9398 165.285 30.9287C165.307 30.8291 165.352 30.6576 165.418 30.4141C165.484 30.1706 165.556 29.9105 165.634 29.6338C165.711 29.346 165.783 29.0804 165.85 28.8369C165.927 28.5934 165.982 28.4274 166.016 28.3389C166.027 28.2946 166.06 28.2005 166.115 28.0566C166.182 27.9017 166.254 27.7357 166.331 27.5586C166.409 27.3815 166.486 27.2044 166.563 27.0273C166.641 26.8503 166.696 26.7174 166.729 26.6289C166.807 26.474 166.923 26.2692 167.078 26.0146C167.244 25.7601 167.427 25.5221 167.626 25.3008C167.836 25.0684 168.052 24.8691 168.273 24.7031C168.495 24.526 168.7 24.4375 168.888 24.4375C168.987 24.4375 169.065 24.4652 169.12 24.5205C169.187 24.5758 169.231 24.6423 169.253 24.7197C169.286 24.7861 169.308 24.8636 169.319 24.9521C169.33 25.0407 169.336 25.1182 169.336 25.1846C169.336 25.7601 169.253 26.3356 169.087 26.9111C168.932 27.4756 168.716 28.0179 168.439 28.5381C168.163 29.0583 167.831 29.5508 167.443 30.0156C167.067 30.4694 166.669 30.8789 166.248 31.2441C166.237 31.2773 166.22 31.3438 166.198 31.4434C166.187 31.543 166.176 31.6149 166.165 31.6592V31.6924C166.165 31.9137 166.22 32.0908 166.331 32.2236C166.453 32.3564 166.597 32.4561 166.763 32.5225C166.929 32.5778 167.111 32.6165 167.311 32.6387C167.521 32.6608 167.72 32.6719 167.908 32.6719C168.008 32.6719 168.152 32.6221 168.34 32.5225C168.539 32.4229 168.738 32.3122 168.938 32.1904C169.148 32.0576 169.353 31.9414 169.552 31.8418C169.751 31.7422 169.9 31.6924 170 31.6924C170.1 31.6924 170.177 31.7256 170.232 31.792C170.288 31.8584 170.315 31.9414 170.315 32.041C170.315 32.207 170.188 32.3841 169.934 32.5723C169.679 32.7604 169.386 32.9375 169.054 33.1035C168.722 33.2585 168.401 33.3913 168.091 33.502C167.792 33.6126 167.593 33.668 167.493 33.668C167.161 33.7344 166.851 33.7399 166.563 33.6846C166.276 33.6182 166.027 33.513 165.816 33.3691C165.606 33.2142 165.429 33.0316 165.285 32.8213C165.152 32.5999 165.069 32.373 165.036 32.1406L165.219 30.9951ZM168.356 26.0479C168.257 26.0479 168.141 26.1309 168.008 26.2969C167.886 26.4518 167.764 26.6344 167.643 26.8447C167.521 27.055 167.41 27.2598 167.311 27.459C167.222 27.6471 167.172 27.7744 167.161 27.8408C167.128 27.9183 167.078 28.0456 167.012 28.2227C166.945 28.3997 166.879 28.5879 166.812 28.7871C166.746 28.9753 166.68 29.1579 166.613 29.335C166.558 29.512 166.519 29.6393 166.497 29.7168H166.58C166.58 29.7168 166.613 29.6781 166.68 29.6006C166.746 29.512 166.818 29.4124 166.896 29.3018C166.984 29.1911 167.073 29.0804 167.161 28.9697C167.261 28.848 167.333 28.7484 167.377 28.6709C167.421 28.6045 167.482 28.5049 167.56 28.3721C167.637 28.2282 167.687 28.1396 167.709 28.1064C167.753 27.9847 167.814 27.8242 167.892 27.625C167.969 27.4147 168.041 27.21 168.107 27.0107C168.174 26.8115 168.229 26.64 168.273 26.4961C168.329 26.3411 168.356 26.2526 168.356 26.2305V26.0479ZM170.1 30.5137C170.111 30.4583 170.144 30.3587 170.199 30.2148C170.255 30.071 170.31 29.916 170.365 29.75C170.432 29.584 170.493 29.429 170.548 29.2852C170.603 29.1413 170.642 29.0417 170.664 28.9863C170.73 28.8092 170.791 28.693 170.847 28.6377C170.913 28.5824 171.029 28.5547 171.195 28.5547C171.372 28.5547 171.489 28.6156 171.544 28.7373C171.599 28.859 171.627 29.0029 171.627 29.1689C171.627 29.4567 171.583 29.7223 171.494 29.9658C171.417 30.1982 171.328 30.4362 171.229 30.6797C171.129 30.9121 171.035 31.1667 170.946 31.4434C170.869 31.709 170.83 32.0189 170.83 32.373C170.83 32.4173 170.83 32.4837 170.83 32.5723C170.83 32.6497 170.836 32.7327 170.847 32.8213C170.858 32.8988 170.88 32.9707 170.913 33.0371C170.946 33.0924 170.991 33.1201 171.046 33.1201C171.334 33.1201 171.621 33.0648 171.909 32.9541C172.208 32.8324 172.496 32.694 172.772 32.5391C173.06 32.373 173.331 32.196 173.586 32.0078C173.852 31.8086 174.09 31.637 174.3 31.4932C174.377 31.4378 174.433 31.3825 174.466 31.3271C174.51 31.2718 174.549 31.222 174.582 31.1777C174.615 31.1224 174.654 31.0781 174.698 31.0449C174.754 31.0007 174.837 30.9785 174.947 30.9785C175.091 30.9785 175.207 31.0117 175.296 31.0781C175.396 31.1335 175.445 31.2386 175.445 31.3936C175.445 31.46 175.44 31.5208 175.429 31.5762C175.429 31.6315 175.401 31.6813 175.346 31.7256C175.335 31.7588 175.29 31.8031 175.213 31.8584C175.146 31.9137 175.075 31.9746 174.997 32.041C174.92 32.0964 174.848 32.1517 174.781 32.207C174.715 32.2513 174.665 32.279 174.632 32.29C174.621 32.29 174.588 32.3066 174.532 32.3398C174.488 32.362 174.46 32.373 174.449 32.373C174.438 32.3841 174.422 32.4007 174.399 32.4229C174.388 32.4339 174.383 32.445 174.383 32.4561C174.15 32.6331 173.896 32.8158 173.619 33.0039C173.354 33.181 173.071 33.347 172.772 33.502C172.474 33.6458 172.164 33.7676 171.843 33.8672C171.533 33.9668 171.223 34.0166 170.913 34.0166C170.647 34.0166 170.443 33.9502 170.299 33.8174C170.166 33.6735 170.066 33.4964 170 33.2861C169.934 33.0758 169.895 32.8545 169.884 32.6221C169.873 32.3896 169.867 32.1794 169.867 31.9912L170.1 30.5137ZM170.896 26.1475C170.896 25.9482 170.935 25.8154 171.013 25.749C171.09 25.6826 171.229 25.6494 171.428 25.6494C171.527 25.6494 171.627 25.6715 171.727 25.7158C171.826 25.749 171.876 25.8376 171.876 25.9814C171.876 26.1253 171.804 26.2581 171.66 26.3799C171.527 26.5016 171.395 26.5625 171.262 26.5625C171.129 26.5625 171.035 26.5238 170.979 26.4463C170.924 26.3577 170.896 26.2581 170.896 26.1475ZM175.811 33.668L176.375 30.3477V29.8828L176.707 27.6748C176.74 27.6305 176.801 27.6084 176.89 27.6084C176.978 27.5973 177.039 27.5918 177.072 27.5918C177.161 27.5918 177.26 27.625 177.371 27.6914C177.493 27.7467 177.554 27.8242 177.554 27.9238V29.0527C177.598 29.0195 177.675 28.9531 177.786 28.8535C177.897 28.7539 178.013 28.6488 178.135 28.5381C178.268 28.4274 178.389 28.3223 178.5 28.2227C178.611 28.123 178.683 28.0511 178.716 28.0068C178.838 27.8962 178.981 27.8021 179.147 27.7246C179.325 27.6471 179.491 27.6084 179.646 27.6084C179.966 27.6084 180.215 27.708 180.393 27.9072C180.581 28.1064 180.675 28.361 180.675 28.6709C180.675 28.693 180.669 28.7096 180.658 28.7207C180.658 28.7207 180.658 28.7318 180.658 28.7539V28.8203L180.027 31.6592V33.0039C180.37 33.0039 180.725 32.9375 181.09 32.8047C181.466 32.6608 181.826 32.4837 182.169 32.2734C182.512 32.0632 182.833 31.8252 183.132 31.5596C183.431 31.2829 183.691 31.0173 183.912 30.7627H183.979C184.056 30.7627 184.117 30.7904 184.161 30.8457C184.216 30.89 184.244 30.9508 184.244 31.0283C184.244 31.2718 184.161 31.5153 183.995 31.7588C183.84 31.9912 183.635 32.2126 183.381 32.4229C183.137 32.6331 182.85 32.8324 182.518 33.0205C182.197 33.2087 181.876 33.3691 181.555 33.502C181.245 33.6348 180.94 33.7399 180.642 33.8174C180.343 33.8949 180.088 33.9336 179.878 33.9336C179.668 33.9336 179.502 33.8949 179.38 33.8174C179.258 33.7399 179.164 33.6403 179.098 33.5186C179.042 33.3857 179.004 33.2419 178.981 33.0869C178.97 32.932 178.965 32.766 178.965 32.5889V32.373L179.612 29.1523V28.6045C179.347 28.6045 179.081 28.7207 178.815 28.9531C178.561 29.1855 178.328 29.4678 178.118 29.7998C177.919 30.1318 177.742 30.4694 177.587 30.8125C177.443 31.1556 177.338 31.4378 177.271 31.6592C177.249 31.7367 177.216 31.875 177.172 32.0742C177.128 32.2734 177.083 32.4837 177.039 32.7051C177.006 32.9264 176.973 33.1367 176.939 33.3359C176.906 33.5352 176.884 33.679 176.873 33.7676C176.884 33.834 176.862 33.8838 176.807 33.917C176.762 33.9502 176.707 33.9779 176.641 34C176.574 34.0111 176.502 34.0166 176.425 34.0166C176.358 34.0166 176.303 34.0166 176.259 34.0166C176.159 34.0166 176.06 34 175.96 33.9668C175.86 33.9336 175.811 33.8506 175.811 33.7178V33.668ZM183.58 31.4102C183.602 31.3438 183.635 31.2275 183.68 31.0615C183.735 30.8844 183.785 30.6963 183.829 30.4971C183.884 30.2979 183.929 30.1097 183.962 29.9326C184.006 29.7445 184.039 29.6172 184.062 29.5508C184.128 29.2852 184.205 28.9974 184.294 28.6875C184.394 28.3776 184.526 28.0898 184.692 27.8242C184.858 27.5586 185.069 27.3428 185.323 27.1768C185.589 26.9997 185.915 26.9111 186.303 26.9111C186.447 26.9111 186.546 26.9665 186.602 27.0771C186.668 27.1768 186.723 27.2874 186.768 27.4092C186.768 27.4535 186.768 27.5365 186.768 27.6582C186.779 27.7689 186.784 27.8464 186.784 27.8906C186.784 28.3665 186.734 28.7871 186.635 29.1523C186.546 29.5176 186.402 29.8551 186.203 30.165C186.015 30.4749 185.783 30.7682 185.506 31.0449C185.229 31.3105 184.914 31.5928 184.56 31.8916C184.549 31.9248 184.532 31.9801 184.51 32.0576C184.488 32.1351 184.477 32.1904 184.477 32.2236V32.2568C184.477 32.4561 184.51 32.6165 184.576 32.7383C184.643 32.86 184.731 32.9596 184.842 33.0371C184.964 33.1035 185.096 33.1478 185.24 33.1699C185.395 33.181 185.561 33.1865 185.738 33.1865C186.258 33.1865 186.757 33.1146 187.232 32.9707C187.708 32.8268 188.146 32.5944 188.544 32.2734C188.599 32.2181 188.666 32.1406 188.743 32.041C188.832 31.9303 188.92 31.8197 189.009 31.709C189.097 31.5983 189.191 31.5042 189.291 31.4268C189.391 31.3382 189.496 31.2939 189.606 31.2939C189.717 31.2939 189.784 31.3382 189.806 31.4268C189.828 31.5153 189.839 31.6038 189.839 31.6924C189.839 31.9359 189.761 32.1683 189.606 32.3896C189.463 32.5999 189.269 32.7936 189.025 32.9707C188.793 33.1367 188.522 33.2861 188.212 33.4189C187.913 33.5518 187.614 33.6624 187.315 33.751C187.017 33.8395 186.729 33.9059 186.452 33.9502C186.187 33.9945 185.96 34.0166 185.771 34.0166C185.185 34.0166 184.692 33.9225 184.294 33.7344C183.907 33.5352 183.641 33.1423 183.497 32.5557L183.58 31.4102ZM185.954 28.1396C185.733 28.3389 185.556 28.5215 185.423 28.6875C185.301 28.8424 185.201 29.0085 185.124 29.1855C185.058 29.3516 184.997 29.5342 184.941 29.7334C184.897 29.9326 184.847 30.165 184.792 30.4307C185.002 30.2646 185.174 30.0986 185.307 29.9326C185.451 29.7666 185.567 29.5951 185.655 29.418C185.744 29.2409 185.81 29.0527 185.854 28.8535C185.899 28.6432 185.932 28.4053 185.954 28.1396ZM199.767 23.9561L199.866 23.79L200.265 21.9473C200.298 21.8145 200.353 21.737 200.431 21.7148C200.519 21.6927 200.608 21.6816 200.696 21.6816C200.918 21.6816 201.05 21.7314 201.095 21.8311C201.139 21.9307 201.161 22.0856 201.161 22.2959C201.161 22.3402 201.156 22.401 201.145 22.4785C201.145 22.5449 201.145 22.5781 201.145 22.5781L199.767 27.8408V27.9902C199.767 28.0566 199.778 28.112 199.8 28.1562C199.833 28.2005 199.905 28.2061 200.016 28.1729C200.314 28.1618 200.635 28.1507 200.979 28.1396C201.333 28.1175 201.698 28.0843 202.074 28.04C202.451 27.9847 202.816 27.9072 203.17 27.8076C203.524 27.6969 203.84 27.5531 204.116 27.376C204.393 27.1878 204.614 26.9554 204.78 26.6787C204.957 26.391 205.046 26.0423 205.046 25.6328C205.046 25.1126 204.902 24.5924 204.614 24.0723C204.338 23.5521 203.983 23.0762 203.552 22.6445C203.12 22.2129 202.639 21.8643 202.107 21.5986C201.576 21.333 201.056 21.2002 200.547 21.2002C200.292 21.2002 200.065 21.2555 199.866 21.3662C199.678 21.4658 199.507 21.5765 199.352 21.6982C199.197 21.8089 199.047 21.9196 198.903 22.0303C198.759 22.1299 198.621 22.1797 198.488 22.1797C198.267 22.1797 198.156 22.069 198.156 21.8477C198.156 21.8366 198.156 21.8255 198.156 21.8145C198.167 21.8034 198.173 21.7923 198.173 21.7812C198.261 21.5488 198.389 21.3441 198.555 21.167C198.721 20.9899 198.903 20.835 199.103 20.7021C199.313 20.5693 199.534 20.4753 199.767 20.4199C200.01 20.3535 200.248 20.3203 200.48 20.3203C200.658 20.3203 200.824 20.3203 200.979 20.3203C201.145 20.3203 201.316 20.348 201.493 20.4033C202.035 20.6468 202.572 20.9346 203.104 21.2666C203.646 21.5876 204.133 21.9639 204.564 22.3955C204.996 22.8161 205.345 23.3031 205.61 23.8564C205.876 24.3988 206.009 24.9964 206.009 25.6494C206.009 26.1696 205.904 26.6123 205.693 26.9775C205.483 27.3317 205.201 27.6305 204.847 27.874C204.493 28.1175 204.089 28.3057 203.635 28.4385C203.192 28.5713 202.733 28.6709 202.257 28.7373C201.781 28.7926 201.311 28.8258 200.846 28.8369C200.392 28.8369 199.982 28.8314 199.617 28.8203L199.551 28.9033L198.322 33.6016C198.289 33.7233 198.217 33.8229 198.106 33.9004C197.996 33.9668 197.88 34 197.758 34C197.68 34 197.619 33.9723 197.575 33.917C197.531 33.8617 197.498 33.8008 197.476 33.7344C197.453 33.668 197.437 33.596 197.426 33.5186C197.426 33.4411 197.431 33.3857 197.442 33.3525L199.767 23.9561ZM206.523 32.7051C206.523 32.694 206.529 32.6553 206.54 32.5889C206.551 32.5225 206.562 32.4561 206.573 32.3896C206.584 32.3122 206.595 32.2458 206.606 32.1904C206.618 32.124 206.623 32.0798 206.623 32.0576V31.9912V31.8916L206.855 30.8457C207.044 30.4473 207.237 30.0654 207.437 29.7002C207.647 29.335 207.885 29.014 208.15 28.7373C208.416 28.4606 208.72 28.2393 209.063 28.0732C209.418 27.9072 209.844 27.8242 210.342 27.8242C210.441 27.8242 210.563 27.8574 210.707 27.9238C210.862 27.9792 211.011 28.0511 211.155 28.1396C211.31 28.2282 211.449 28.3223 211.57 28.4219C211.703 28.5104 211.803 28.5934 211.869 28.6709C212.212 28.6156 212.461 28.5879 212.616 28.5879C212.771 28.5768 212.904 28.5713 213.015 28.5713C213.125 28.5602 213.242 28.5381 213.363 28.5049C213.496 28.4717 213.695 28.3997 213.961 28.2891C214.149 28.2337 214.332 28.2061 214.509 28.2061C214.586 28.2061 214.658 28.2393 214.725 28.3057C214.802 28.3721 214.841 28.4495 214.841 28.5381C214.841 28.6488 214.802 28.7484 214.725 28.8369C214.647 28.9255 214.553 28.9808 214.442 29.0029L212.367 29.4678L212.185 29.5508C212.174 30.1484 212.041 30.7184 211.786 31.2607C211.532 31.8031 211.194 32.279 210.773 32.6885C210.353 33.098 209.866 33.4245 209.312 33.668C208.759 33.9004 208.184 34.0166 207.586 34.0166C207.542 34.0166 207.47 34.0111 207.37 34C207.271 34 207.204 34 207.171 34C206.927 33.9004 206.756 33.7178 206.656 33.4521C206.568 33.1865 206.523 32.9375 206.523 32.7051ZM207.586 33.0371C207.597 33.0924 207.641 33.1201 207.719 33.1201C207.796 33.1201 207.852 33.1201 207.885 33.1201C208.283 33.1201 208.693 33.0205 209.113 32.8213C209.534 32.611 209.91 32.3454 210.242 32.0244C210.585 31.6924 210.862 31.3216 211.072 30.9121C211.294 30.4915 211.404 30.071 211.404 29.6504C211.05 29.6504 210.696 29.6227 210.342 29.5674C209.988 29.501 209.645 29.4678 209.312 29.4678H209.296L207.918 30.9287C207.84 31.0062 207.78 31.1113 207.735 31.2441C207.691 31.377 207.658 31.5208 207.636 31.6758C207.614 31.8307 207.597 31.9857 207.586 32.1406C207.575 32.2956 207.569 32.4339 207.569 32.5557C207.569 32.5889 207.569 32.6663 207.569 32.7881C207.569 32.9098 207.575 32.9928 207.586 33.0371ZM214.808 29.5508C214.83 29.5065 214.874 29.4401 214.94 29.3516C215.007 29.252 215.04 29.1689 215.04 29.1025V29.0527C215.04 29.0417 215.029 29.0306 215.007 29.0195C214.985 28.9974 214.968 28.9863 214.957 28.9863H214.658C214.37 29.0749 214.049 29.1357 213.695 29.1689C213.33 29.2021 212.981 29.2132 212.649 29.2021C212.306 29.1911 212.013 29.1634 211.77 29.1191C211.526 29.0638 211.382 29.0029 211.338 28.9365C211.294 28.8701 211.377 28.7926 211.587 28.7041C211.797 28.6045 212.196 28.5049 212.782 28.4053C212.815 28.4053 212.893 28.3942 213.015 28.3721C213.125 28.3389 213.253 28.3112 213.396 28.2891C213.529 28.2669 213.657 28.2448 213.778 28.2227C213.9 28.1895 213.978 28.1729 214.011 28.1729C214.055 28.1618 214.149 28.1562 214.293 28.1562C214.437 28.1452 214.581 28.1341 214.725 28.123C214.88 28.112 215.023 28.1064 215.156 28.1064C215.3 28.1064 215.4 28.1064 215.455 28.1064L215.538 28.0068L216.833 25.832C216.877 25.7546 216.955 25.6937 217.065 25.6494C217.187 25.6051 217.281 25.583 217.348 25.583C217.492 25.583 217.591 25.6439 217.646 25.7656C217.702 25.8763 217.729 25.987 217.729 26.0977C217.729 26.1087 217.724 26.1198 217.713 26.1309C217.713 26.1419 217.713 26.153 217.713 26.1641V26.2305L216.982 28.0068V28.1064C217.005 28.04 217.043 28.0068 217.099 28.0068C217.165 28.0068 217.215 28.0068 217.248 28.0068C217.414 28.0068 217.575 28.0622 217.729 28.1729C217.884 28.2835 217.962 28.4329 217.962 28.6211C217.962 28.7096 217.934 28.7816 217.879 28.8369C217.824 28.8923 217.757 28.9365 217.68 28.9697C217.602 29.0029 217.519 29.0306 217.431 29.0527C217.342 29.0638 217.265 29.0693 217.198 29.0693C217.065 29.0693 216.938 29.0527 216.816 29.0195C216.706 28.9863 216.584 28.9697 216.451 28.9697C216.329 28.9697 216.219 29.0361 216.119 29.1689C216.02 29.2907 215.925 29.4567 215.837 29.667C215.759 29.8662 215.693 30.0931 215.638 30.3477C215.582 30.6022 215.533 30.8512 215.488 31.0947C215.444 31.3382 215.411 31.5651 215.389 31.7754C215.378 31.9857 215.372 32.1462 215.372 32.2568C215.372 32.3011 215.372 32.3896 215.372 32.5225C215.383 32.6553 215.389 32.7438 215.389 32.7881C215.4 32.8545 215.427 32.9154 215.472 32.9707C215.516 33.015 215.56 33.0648 215.604 33.1201H215.986C216.429 33.1201 216.866 33.0205 217.298 32.8213C217.741 32.6221 218.156 32.3952 218.543 32.1406C218.565 32.1296 218.615 32.0798 218.692 31.9912C218.781 31.8916 218.875 31.7975 218.975 31.709C219.074 31.6094 219.163 31.5208 219.24 31.4434C219.329 31.3659 219.39 31.3271 219.423 31.3271C219.5 31.3271 219.572 31.3659 219.639 31.4434C219.705 31.5208 219.738 31.6038 219.738 31.6924C219.738 31.9027 219.661 32.1074 219.506 32.3066C219.362 32.5059 219.174 32.694 218.941 32.8711C218.709 33.0371 218.443 33.1921 218.145 33.3359C217.846 33.4798 217.547 33.6016 217.248 33.7012C216.96 33.8008 216.684 33.8783 216.418 33.9336C216.163 33.9889 215.953 34.0166 215.787 34.0166C215.632 34.0166 215.472 34 215.306 33.9668C215.14 33.9225 214.99 33.8561 214.857 33.7676C214.725 33.679 214.614 33.5684 214.525 33.4355C214.437 33.3027 214.393 33.1367 214.393 32.9375V31.0947L214.808 29.5508ZM219.24 31.4102C219.262 31.3438 219.296 31.2275 219.34 31.0615C219.395 30.8844 219.445 30.6963 219.489 30.4971C219.545 30.2979 219.589 30.1097 219.622 29.9326C219.666 29.7445 219.7 29.6172 219.722 29.5508C219.788 29.2852 219.866 28.9974 219.954 28.6875C220.054 28.3776 220.187 28.0898 220.353 27.8242C220.519 27.5586 220.729 27.3428 220.983 27.1768C221.249 26.9997 221.576 26.9111 221.963 26.9111C222.107 26.9111 222.206 26.9665 222.262 27.0771C222.328 27.1768 222.383 27.2874 222.428 27.4092C222.428 27.4535 222.428 27.5365 222.428 27.6582C222.439 27.7689 222.444 27.8464 222.444 27.8906C222.444 28.3665 222.395 28.7871 222.295 29.1523C222.206 29.5176 222.062 29.8551 221.863 30.165C221.675 30.4749 221.443 30.7682 221.166 31.0449C220.889 31.3105 220.574 31.5928 220.22 31.8916C220.209 31.9248 220.192 31.9801 220.17 32.0576C220.148 32.1351 220.137 32.1904 220.137 32.2236V32.2568C220.137 32.4561 220.17 32.6165 220.236 32.7383C220.303 32.86 220.391 32.9596 220.502 33.0371C220.624 33.1035 220.757 33.1478 220.9 33.1699C221.055 33.181 221.221 33.1865 221.398 33.1865C221.919 33.1865 222.417 33.1146 222.893 32.9707C223.368 32.8268 223.806 32.5944 224.204 32.2734C224.259 32.2181 224.326 32.1406 224.403 32.041C224.492 31.9303 224.58 31.8197 224.669 31.709C224.757 31.5983 224.852 31.5042 224.951 31.4268C225.051 31.3382 225.156 31.2939 225.267 31.2939C225.377 31.2939 225.444 31.3382 225.466 31.4268C225.488 31.5153 225.499 31.6038 225.499 31.6924C225.499 31.9359 225.422 32.1683 225.267 32.3896C225.123 32.5999 224.929 32.7936 224.686 32.9707C224.453 33.1367 224.182 33.2861 223.872 33.4189C223.573 33.5518 223.274 33.6624 222.976 33.751C222.677 33.8395 222.389 33.9059 222.112 33.9502C221.847 33.9945 221.62 34.0166 221.432 34.0166C220.845 34.0166 220.353 33.9225 219.954 33.7344C219.567 33.5352 219.301 33.1423 219.157 32.5557L219.24 31.4102ZM221.614 28.1396C221.393 28.3389 221.216 28.5215 221.083 28.6875C220.961 28.8424 220.862 29.0085 220.784 29.1855C220.718 29.3516 220.657 29.5342 220.602 29.7334C220.557 29.9326 220.507 30.165 220.452 30.4307C220.662 30.2646 220.834 30.0986 220.967 29.9326C221.111 29.7666 221.227 29.5951 221.315 29.418C221.404 29.2409 221.47 29.0527 221.515 28.8535C221.559 28.6432 221.592 28.4053 221.614 28.1396ZM225.267 33.668L225.831 30.3477V29.8828L226.163 27.6748C226.196 27.6305 226.257 27.6084 226.346 27.6084C226.434 27.5973 226.495 27.5918 226.528 27.5918C226.617 27.5918 226.716 27.625 226.827 27.6914C226.949 27.7467 227.01 27.8242 227.01 27.9238V29.0527C227.054 29.0195 227.132 28.9531 227.242 28.8535C227.353 28.7539 227.469 28.6488 227.591 28.5381C227.724 28.4274 227.845 28.3223 227.956 28.2227C228.067 28.123 228.139 28.0511 228.172 28.0068C228.294 27.8962 228.438 27.8021 228.604 27.7246C228.781 27.6471 228.947 27.6084 229.102 27.6084C229.423 27.6084 229.672 27.708 229.849 27.9072C230.037 28.1064 230.131 28.361 230.131 28.6709C230.131 28.693 230.125 28.7096 230.114 28.7207C230.114 28.7207 230.114 28.7318 230.114 28.7539V28.8203L229.483 31.6592V33.0039C229.826 33.0039 230.181 32.9375 230.546 32.8047C230.922 32.6608 231.282 32.4837 231.625 32.2734C231.968 32.0632 232.289 31.8252 232.588 31.5596C232.887 31.2829 233.147 31.0173 233.368 30.7627H233.435C233.512 30.7627 233.573 30.7904 233.617 30.8457C233.673 30.89 233.7 30.9508 233.7 31.0283C233.7 31.2718 233.617 31.5153 233.451 31.7588C233.296 31.9912 233.091 32.2126 232.837 32.4229C232.593 32.6331 232.306 32.8324 231.974 33.0205C231.653 33.2087 231.332 33.3691 231.011 33.502C230.701 33.6348 230.396 33.7399 230.098 33.8174C229.799 33.8949 229.544 33.9336 229.334 33.9336C229.124 33.9336 228.958 33.8949 228.836 33.8174C228.714 33.7399 228.62 33.6403 228.554 33.5186C228.498 33.3857 228.46 33.2419 228.438 33.0869C228.426 32.932 228.421 32.766 228.421 32.5889V32.373L229.068 29.1523V28.6045C228.803 28.6045 228.537 28.7207 228.271 28.9531C228.017 29.1855 227.785 29.4678 227.574 29.7998C227.375 30.1318 227.198 30.4694 227.043 30.8125C226.899 31.1556 226.794 31.4378 226.728 31.6592C226.705 31.7367 226.672 31.875 226.628 32.0742C226.584 32.2734 226.539 32.4837 226.495 32.7051C226.462 32.9264 226.429 33.1367 226.396 33.3359C226.362 33.5352 226.34 33.679 226.329 33.7676C226.34 33.834 226.318 33.8838 226.263 33.917C226.218 33.9502 226.163 33.9779 226.097 34C226.03 34.0111 225.958 34.0166 225.881 34.0166C225.814 34.0166 225.759 34.0166 225.715 34.0166C225.615 34.0166 225.516 34 225.416 33.9668C225.316 33.9336 225.267 33.8506 225.267 33.7178V33.668ZM233.285 29.5508C233.307 29.5065 233.352 29.4401 233.418 29.3516C233.484 29.252 233.518 29.1689 233.518 29.1025V29.0527C233.518 29.0417 233.507 29.0306 233.484 29.0195C233.462 28.9974 233.446 28.9863 233.435 28.9863H233.136C232.848 29.0749 232.527 29.1357 232.173 29.1689C231.808 29.2021 231.459 29.2132 231.127 29.2021C230.784 29.1911 230.491 29.1634 230.247 29.1191C230.004 29.0638 229.86 29.0029 229.815 28.9365C229.771 28.8701 229.854 28.7926 230.064 28.7041C230.275 28.6045 230.673 28.5049 231.26 28.4053C231.293 28.4053 231.37 28.3942 231.492 28.3721C231.603 28.3389 231.73 28.3112 231.874 28.2891C232.007 28.2669 232.134 28.2448 232.256 28.2227C232.378 28.1895 232.455 28.1729 232.488 28.1729C232.533 28.1618 232.627 28.1562 232.771 28.1562C232.914 28.1452 233.058 28.1341 233.202 28.123C233.357 28.112 233.501 28.1064 233.634 28.1064C233.778 28.1064 233.877 28.1064 233.933 28.1064L234.016 28.0068L235.311 25.832C235.355 25.7546 235.432 25.6937 235.543 25.6494C235.665 25.6051 235.759 25.583 235.825 25.583C235.969 25.583 236.069 25.6439 236.124 25.7656C236.179 25.8763 236.207 25.987 236.207 26.0977C236.207 26.1087 236.201 26.1198 236.19 26.1309C236.19 26.1419 236.19 26.153 236.19 26.1641V26.2305L235.46 28.0068V28.1064C235.482 28.04 235.521 28.0068 235.576 28.0068C235.643 28.0068 235.692 28.0068 235.726 28.0068C235.892 28.0068 236.052 28.0622 236.207 28.1729C236.362 28.2835 236.439 28.4329 236.439 28.6211C236.439 28.7096 236.412 28.7816 236.356 28.8369C236.301 28.8923 236.235 28.9365 236.157 28.9697C236.08 29.0029 235.997 29.0306 235.908 29.0527C235.82 29.0638 235.742 29.0693 235.676 29.0693C235.543 29.0693 235.416 29.0527 235.294 29.0195C235.183 28.9863 235.062 28.9697 234.929 28.9697C234.807 28.9697 234.696 29.0361 234.597 29.1689C234.497 29.2907 234.403 29.4567 234.314 29.667C234.237 29.8662 234.171 30.0931 234.115 30.3477C234.06 30.6022 234.01 30.8512 233.966 31.0947C233.922 31.3382 233.888 31.5651 233.866 31.7754C233.855 31.9857 233.85 32.1462 233.85 32.2568C233.85 32.3011 233.85 32.3896 233.85 32.5225C233.861 32.6553 233.866 32.7438 233.866 32.7881C233.877 32.8545 233.905 32.9154 233.949 32.9707C233.993 33.015 234.038 33.0648 234.082 33.1201H234.464C234.907 33.1201 235.344 33.0205 235.775 32.8213C236.218 32.6221 236.633 32.3952 237.021 32.1406C237.043 32.1296 237.092 32.0798 237.17 31.9912C237.258 31.8916 237.353 31.7975 237.452 31.709C237.552 31.6094 237.64 31.5208 237.718 31.4434C237.806 31.3659 237.867 31.3271 237.9 31.3271C237.978 31.3271 238.05 31.3659 238.116 31.4434C238.183 31.5208 238.216 31.6038 238.216 31.6924C238.216 31.9027 238.138 32.1074 237.983 32.3066C237.84 32.5059 237.651 32.694 237.419 32.8711C237.187 33.0371 236.921 33.1921 236.622 33.3359C236.323 33.4798 236.024 33.6016 235.726 33.7012C235.438 33.8008 235.161 33.8783 234.896 33.9336C234.641 33.9889 234.431 34.0166 234.265 34.0166C234.11 34.0166 233.949 34 233.783 33.9668C233.617 33.9225 233.468 33.8561 233.335 33.7676C233.202 33.679 233.091 33.5684 233.003 33.4355C232.914 33.3027 232.87 33.1367 232.87 32.9375V31.0947L233.285 29.5508ZM237.817 30.5137C237.828 30.4583 237.862 30.3587 237.917 30.2148C237.972 30.071 238.028 29.916 238.083 29.75C238.149 29.584 238.21 29.429 238.266 29.2852C238.321 29.1413 238.36 29.0417 238.382 28.9863C238.448 28.8092 238.509 28.693 238.564 28.6377C238.631 28.5824 238.747 28.5547 238.913 28.5547C239.09 28.5547 239.206 28.6156 239.262 28.7373C239.317 28.859 239.345 29.0029 239.345 29.1689C239.345 29.4567 239.3 29.7223 239.212 29.9658C239.134 30.1982 239.046 30.4362 238.946 30.6797C238.847 30.9121 238.753 31.1667 238.664 31.4434C238.587 31.709 238.548 32.0189 238.548 32.373C238.548 32.4173 238.548 32.4837 238.548 32.5723C238.548 32.6497 238.553 32.7327 238.564 32.8213C238.576 32.8988 238.598 32.9707 238.631 33.0371C238.664 33.0924 238.708 33.1201 238.764 33.1201C239.051 33.1201 239.339 33.0648 239.627 32.9541C239.926 32.8324 240.214 32.694 240.49 32.5391C240.778 32.373 241.049 32.196 241.304 32.0078C241.569 31.8086 241.807 31.637 242.018 31.4932C242.095 31.4378 242.15 31.3825 242.184 31.3271C242.228 31.2718 242.267 31.222 242.3 31.1777C242.333 31.1224 242.372 31.0781 242.416 31.0449C242.471 31.0007 242.554 30.9785 242.665 30.9785C242.809 30.9785 242.925 31.0117 243.014 31.0781C243.113 31.1335 243.163 31.2386 243.163 31.3936C243.163 31.46 243.158 31.5208 243.146 31.5762C243.146 31.6315 243.119 31.6813 243.063 31.7256C243.052 31.7588 243.008 31.8031 242.931 31.8584C242.864 31.9137 242.792 31.9746 242.715 32.041C242.637 32.0964 242.565 32.1517 242.499 32.207C242.433 32.2513 242.383 32.279 242.35 32.29C242.339 32.29 242.305 32.3066 242.25 32.3398C242.206 32.362 242.178 32.373 242.167 32.373C242.156 32.3841 242.139 32.4007 242.117 32.4229C242.106 32.4339 242.101 32.445 242.101 32.4561C241.868 32.6331 241.614 32.8158 241.337 33.0039C241.071 33.181 240.789 33.347 240.49 33.502C240.191 33.6458 239.882 33.7676 239.561 33.8672C239.251 33.9668 238.941 34.0166 238.631 34.0166C238.365 34.0166 238.16 33.9502 238.017 33.8174C237.884 33.6735 237.784 33.4964 237.718 33.2861C237.651 33.0758 237.613 32.8545 237.602 32.6221C237.59 32.3896 237.585 32.1794 237.585 31.9912L237.817 30.5137ZM238.614 26.1475C238.614 25.9482 238.653 25.8154 238.73 25.749C238.808 25.6826 238.946 25.6494 239.146 25.6494C239.245 25.6494 239.345 25.6715 239.444 25.7158C239.544 25.749 239.594 25.8376 239.594 25.9814C239.594 26.1253 239.522 26.2581 239.378 26.3799C239.245 26.5016 239.112 26.5625 238.979 26.5625C238.847 26.5625 238.753 26.5238 238.697 26.4463C238.642 26.3577 238.614 26.2581 238.614 26.1475ZM243.744 33.502C243.744 33.4688 243.744 33.3857 243.744 33.2529C243.744 33.1201 243.744 33.0316 243.744 32.9873C243.556 32.3232 243.528 31.6702 243.661 31.0283C243.805 30.3864 244.054 29.8109 244.408 29.3018C244.773 28.7816 245.233 28.3499 245.786 28.0068C246.351 27.6527 246.965 27.4368 247.629 27.3594H247.928C248.171 27.3594 248.37 27.4147 248.525 27.5254C248.691 27.625 248.819 27.7578 248.907 27.9238C249.007 28.0898 249.073 28.278 249.106 28.4883C249.151 28.6986 249.173 28.9089 249.173 29.1191C249.173 29.4069 249.14 29.6891 249.073 29.9658C249.018 30.2314 248.951 30.5026 248.874 30.7793C248.808 31.056 248.741 31.3327 248.675 31.6094C248.619 31.875 248.592 32.1572 248.592 32.4561V32.5557C248.603 32.5778 248.614 32.6442 248.625 32.7549C248.647 32.8545 248.664 32.9154 248.675 32.9375C248.697 32.9375 248.752 32.943 248.841 32.9541C248.929 32.9541 248.985 32.9541 249.007 32.9541C249.118 32.9541 249.223 32.9541 249.322 32.9541C249.433 32.943 249.544 32.9154 249.654 32.8711L252.809 31.4102C252.82 31.4102 252.836 31.4102 252.858 31.4102C252.892 31.3991 252.914 31.3936 252.925 31.3936C253.035 31.3936 253.124 31.4268 253.19 31.4932C253.268 31.5596 253.307 31.6481 253.307 31.7588C253.307 31.8141 253.301 31.8695 253.29 31.9248C253.29 31.9691 253.262 32.0133 253.207 32.0576C253.13 32.113 252.986 32.1904 252.775 32.29C252.576 32.3896 252.36 32.5003 252.128 32.6221C251.896 32.7438 251.674 32.86 251.464 32.9707C251.265 33.0814 251.121 33.1533 251.032 33.1865C250.877 33.2751 250.706 33.3581 250.518 33.4355C250.329 33.502 250.136 33.5684 249.937 33.6348C249.737 33.7012 249.538 33.7565 249.339 33.8008C249.151 33.834 248.979 33.8506 248.824 33.8506C248.581 33.8506 248.382 33.8118 248.227 33.7344C248.072 33.6458 247.955 33.5352 247.878 33.4023C247.8 33.2585 247.745 33.0924 247.712 32.9043C247.69 32.7051 247.69 32.5003 247.712 32.29C247.491 32.4671 247.253 32.6553 246.998 32.8545C246.743 33.0537 246.478 33.2363 246.201 33.4023C245.924 33.5684 245.642 33.7122 245.354 33.834C245.067 33.9557 244.773 34.0166 244.475 34.0166C244.309 34.0166 244.159 33.9779 244.026 33.9004C243.894 33.8118 243.799 33.679 243.744 33.502ZM244.641 33.1533C244.895 33.1533 245.177 33.0814 245.487 32.9375C245.797 32.7826 246.102 32.5944 246.4 32.373C246.699 32.1517 246.97 31.9193 247.214 31.6758C247.457 31.4212 247.646 31.1943 247.778 30.9951C247.789 30.6631 247.834 30.3477 247.911 30.0488C248 29.7389 248.044 29.4235 248.044 29.1025C248.044 29.0804 248.038 29.0472 248.027 29.0029C248.027 28.9587 248.027 28.9255 248.027 28.9033C247.883 28.7816 247.762 28.7096 247.662 28.6875C247.562 28.6654 247.43 28.6543 247.264 28.6543C247.242 28.6543 247.192 28.6543 247.114 28.6543C247.048 28.6543 247.004 28.6598 246.981 28.6709C246.915 28.7262 246.804 28.8314 246.649 28.9863C246.494 29.1302 246.328 29.2907 246.151 29.4678C245.985 29.6449 245.825 29.8109 245.67 29.9658C245.526 30.1208 245.426 30.2259 245.371 30.2812C245.36 30.2812 245.338 30.3034 245.305 30.3477C245.271 30.3809 245.233 30.4251 245.188 30.4805C245.155 30.5358 245.122 30.5911 245.089 30.6465C245.067 30.6908 245.05 30.7295 245.039 30.7627L244.641 32.7051V33.1533ZM252.792 30.9951C252.792 30.9951 252.798 30.9896 252.809 30.9785C252.831 30.9564 252.847 30.9398 252.858 30.9287C252.881 30.8291 252.925 30.6576 252.991 30.4141C253.058 30.1706 253.13 29.9105 253.207 29.6338C253.285 29.346 253.356 29.0804 253.423 28.8369C253.5 28.5934 253.556 28.4274 253.589 28.3389C253.6 28.2946 253.633 28.2005 253.688 28.0566C253.755 27.9017 253.827 27.7357 253.904 27.5586C253.982 27.3815 254.059 27.2044 254.137 27.0273C254.214 26.8503 254.27 26.7174 254.303 26.6289C254.38 26.474 254.496 26.2692 254.651 26.0146C254.817 25.7601 255 25.5221 255.199 25.3008C255.41 25.0684 255.625 24.8691 255.847 24.7031C256.068 24.526 256.273 24.4375 256.461 24.4375C256.561 24.4375 256.638 24.4652 256.693 24.5205C256.76 24.5758 256.804 24.6423 256.826 24.7197C256.859 24.7861 256.882 24.8636 256.893 24.9521C256.904 25.0407 256.909 25.1182 256.909 25.1846C256.909 25.7601 256.826 26.3356 256.66 26.9111C256.505 27.4756 256.289 28.0179 256.013 28.5381C255.736 29.0583 255.404 29.5508 255.017 30.0156C254.64 30.4694 254.242 30.8789 253.821 31.2441C253.81 31.2773 253.794 31.3438 253.771 31.4434C253.76 31.543 253.749 31.6149 253.738 31.6592V31.6924C253.738 31.9137 253.794 32.0908 253.904 32.2236C254.026 32.3564 254.17 32.4561 254.336 32.5225C254.502 32.5778 254.685 32.6165 254.884 32.6387C255.094 32.6608 255.293 32.6719 255.481 32.6719C255.581 32.6719 255.725 32.6221 255.913 32.5225C256.112 32.4229 256.312 32.3122 256.511 32.1904C256.721 32.0576 256.926 31.9414 257.125 31.8418C257.324 31.7422 257.474 31.6924 257.573 31.6924C257.673 31.6924 257.75 31.7256 257.806 31.792C257.861 31.8584 257.889 31.9414 257.889 32.041C257.889 32.207 257.761 32.3841 257.507 32.5723C257.252 32.7604 256.959 32.9375 256.627 33.1035C256.295 33.2585 255.974 33.3913 255.664 33.502C255.365 33.6126 255.166 33.668 255.066 33.668C254.734 33.7344 254.424 33.7399 254.137 33.6846C253.849 33.6182 253.6 33.513 253.39 33.3691C253.179 33.2142 253.002 33.0316 252.858 32.8213C252.726 32.5999 252.643 32.373 252.609 32.1406L252.792 30.9951ZM255.93 26.0479C255.83 26.0479 255.714 26.1309 255.581 26.2969C255.459 26.4518 255.338 26.6344 255.216 26.8447C255.094 27.055 254.983 27.2598 254.884 27.459C254.795 27.6471 254.745 27.7744 254.734 27.8408C254.701 27.9183 254.651 28.0456 254.585 28.2227C254.519 28.3997 254.452 28.5879 254.386 28.7871C254.319 28.9753 254.253 29.1579 254.187 29.335C254.131 29.512 254.092 29.6393 254.07 29.7168H254.153C254.153 29.7168 254.187 29.6781 254.253 29.6006C254.319 29.512 254.391 29.4124 254.469 29.3018C254.557 29.1911 254.646 29.0804 254.734 28.9697C254.834 28.848 254.906 28.7484 254.95 28.6709C254.994 28.6045 255.055 28.5049 255.133 28.3721C255.21 28.2282 255.26 28.1396 255.282 28.1064C255.326 27.9847 255.387 27.8242 255.465 27.625C255.542 27.4147 255.614 27.21 255.681 27.0107C255.747 26.8115 255.802 26.64 255.847 26.4961C255.902 26.3411 255.93 26.2526 255.93 26.2305V26.0479Z" fill="#16B016"/>
</svg>
