<svg width="56" height="39" viewBox="0 0 56 39" fill="none" xmlns="http://www.w3.org/2000/svg">
<path d="M22.8516 20.918C22.959 20.918 23.0127 20.9961 23.0127 21.1523C23.0127 21.2988 22.959 21.4014 22.8516 21.46C22.5879 21.5674 22.3145 21.6602 22.0312 21.7383C21.7578 21.8164 21.5039 21.9189 21.2695 22.0459C20.7324 22.3389 20.4639 22.8125 20.4639 23.4668V28.2275C20.4639 28.4424 19.9463 28.7305 18.9111 29.0918C17.8857 29.4531 17.0508 29.7168 16.4062 29.8828C13.3887 30.625 10.6934 30.5469 8.32031 29.6484C5.5957 28.6035 3.66699 26.7334 2.53418 24.0381C1.96777 22.6904 1.68457 21.3525 1.68457 20.0244C1.68457 18.6865 1.81641 17.5635 2.08008 16.6553C2.88086 13.8818 4.56055 11.748 7.11914 10.2539C8.78906 9.27734 10.542 8.78906 12.3779 8.78906C14.2236 8.78906 16.1816 9.16016 18.252 9.90234C18.6328 10.0391 18.8477 10.1074 18.8965 10.1074H19.0723L19.6582 9.96094H20.0244C20.1318 9.96094 20.1855 10.0146 20.1855 10.1221V15C20.1855 15.1855 20.0781 15.2783 19.8633 15.2783H19.8047C19.6191 15.2588 19.4922 15.0098 19.4238 14.5312C19.4043 14.4336 19.3896 14.3604 19.3799 14.3115C18.4033 11.2549 16.3428 9.72656 13.1982 9.72656C10.6787 9.72656 8.66699 10.6787 7.16309 12.583C5.66895 14.4873 4.92188 16.7529 4.92188 19.3799C4.92188 22.0068 5.67383 24.3311 7.17773 26.3525C8.69141 28.3643 10.7666 29.3701 13.4033 29.3701C14.7607 29.3701 15.8789 29.1602 16.7578 28.7402C17.0996 28.5742 17.3633 28.3643 17.5488 28.1104V24.0967C17.5488 23.1885 17.29 22.5244 16.7725 22.1045C16.2549 21.6748 15.3027 21.46 13.916 21.46C13.8086 21.46 13.7549 21.3721 13.7549 21.1963C13.7549 21.0107 13.8086 20.918 13.916 20.918H22.8516ZM27.1436 22.2803C26.9775 22.2803 26.8945 22.6367 26.8945 23.3496C26.8945 24.8633 27.3438 26.1328 28.2422 27.1582C29.1406 28.1836 30.2539 28.6963 31.582 28.6963C32.9199 28.6963 34.2041 28.1201 35.4346 26.9678C35.4541 26.9482 35.4785 26.9385 35.5078 26.9385H35.5811C35.6396 26.9385 35.6934 26.9873 35.7422 27.085C35.8008 27.1729 35.8545 27.2314 35.9033 27.2607C34.7705 28.6377 33.4375 29.5898 31.9043 30.1172C31.377 30.3027 30.7812 30.3955 30.1172 30.3955C29.4531 30.3955 28.7793 30.2148 28.0957 29.8535C27.4121 29.4824 26.8262 28.999 26.3379 28.4033C25.3027 27.1631 24.7852 25.6201 24.7852 23.7744C24.7852 21.9189 25.3467 20.2295 26.4697 18.7061C27.6025 17.1826 29.1553 16.4209 31.1279 16.4209C32.5439 16.4209 33.7012 17.0557 34.5996 18.3252C35.498 19.585 35.9473 20.6934 35.9473 21.6504C35.9473 22.0703 35.8447 22.2803 35.6396 22.2803H27.1436ZM27.3047 20.874C27.3047 21.0596 27.3926 21.1523 27.5684 21.1523H33.0908C33.3447 21.1523 33.4717 21.001 33.4717 20.6982C33.4717 19.9951 33.1543 19.2773 32.5195 18.5449C31.8945 17.8027 31.2061 17.4316 30.4541 17.4316C29.7217 17.4316 29.0527 17.7637 28.4473 18.4277C27.8516 19.0918 27.4707 19.8486 27.3047 20.6982V20.874ZM41.9678 18.7354C41.9092 18.7354 41.8799 18.7793 41.8799 18.8672V26.9531C41.8799 27.5391 42.0068 27.998 42.2607 28.3301C42.5244 28.6621 42.8564 28.8281 43.2568 28.8281C43.6572 28.8281 44.0039 28.7646 44.2969 28.6377C44.5996 28.501 44.8584 28.3545 45.0732 28.1982C45.2979 28.042 45.498 27.9004 45.6738 27.7734C45.8496 27.6367 46.0059 27.5684 46.1426 27.5684C46.2793 27.5684 46.3477 27.6025 46.3477 27.6709C46.3477 27.9053 46.3232 28.0566 46.2744 28.125C45.1025 29.6387 43.9697 30.3955 42.876 30.3955C41.792 30.3955 40.9717 30.0537 40.415 29.3701C39.8682 28.6768 39.5947 27.8516 39.5947 26.8945V18.7354H38.4961C38.2227 18.7354 38.0762 18.6475 38.0566 18.4717C38.0469 18.2959 38.0762 18.1836 38.1445 18.1348C38.6621 17.8027 39.375 17.207 40.2832 16.3477C40.3809 16.2402 40.5127 16.0791 40.6787 15.8643C40.8447 15.6494 41.084 15.3564 41.3965 14.9854C41.7188 14.6143 41.9629 14.4287 42.1289 14.4287C42.2949 14.4287 42.3779 14.4971 42.3779 14.6338C42.3779 14.6533 42.2119 15.293 41.8799 16.5527C41.8799 16.7285 41.958 16.8213 42.1143 16.8311H45.8496C46.2793 16.8311 46.4941 17.4365 46.4941 18.6475C46.4941 18.7061 46.4551 18.7354 46.377 18.7354H41.9678Z" fill="black"/>
<path d="M8.4875 35.8073C8.47185 35.7175 8.46052 35.6336 8.45352 35.5555C8.44764 35.4838 8.44175 35.4121 8.43587 35.3405C8.43751 35.2741 8.43748 35.1981 8.43578 35.1125C8.44048 35.0258 8.44825 34.9187 8.45908 34.7912C8.50421 34.671 8.53916 34.5493 8.56393 34.426C8.58982 34.3091 8.6125 34.1928 8.63198 34.0771C8.65787 33.9602 8.68376 33.8434 8.70965 33.7265C8.74195 33.6085 8.78708 33.4883 8.84504 33.3659C9.03033 32.9503 9.24519 32.5527 9.48961 32.173C9.74157 31.7987 10.0054 31.4355 10.281 31.0834L10.1523 28.013L9.34662 31.2959C9.32685 31.372 9.2944 31.4702 9.24927 31.5904C9.20943 31.7031 9.15677 31.818 9.09128 31.9351C9.03221 32.0512 8.96071 32.1529 8.87681 32.2402C8.79931 32.3264 8.71246 32.3779 8.61626 32.3946C8.53929 32.4081 8.46845 32.3808 8.40372 32.3127C8.339 32.2447 8.2843 32.1584 8.23964 32.0539C8.1961 31.9557 8.15897 31.8565 8.12825 31.7561C8.10283 31.6482 8.08565 31.5685 8.07671 31.5172C8.07447 31.5044 8.07056 31.482 8.06497 31.4499C8.06467 31.4103 8.06397 31.3873 8.06285 31.3809C8.05026 31.2707 8.03737 31.121 8.02419 30.9316C8.01742 30.7411 8.00801 30.5544 7.99594 30.3715C7.98388 30.1886 7.97252 30.0286 7.96187 29.8917C7.95122 29.7548 7.94742 29.6761 7.95048 29.6558L8.18171 25.1249L8.14481 24.9133C8.12692 24.8107 8.10262 24.7092 8.0719 24.6088C8.0476 24.5073 8.01006 24.4246 7.95928 24.3608C7.9138 24.2894 7.85187 24.2374 7.77349 24.2048C7.69399 24.1658 7.5869 24.158 7.45221 24.1815C7.34318 24.2005 7.21408 24.2561 7.06492 24.3482C6.92106 24.4327 6.80982 24.5149 6.7312 24.5947C6.6866 24.6421 6.61914 24.71 6.52882 24.7985C6.4385 24.8869 6.35194 24.978 6.26916 25.0717C6.18637 25.1655 6.11208 25.2511 6.0463 25.3287C5.97939 25.3998 5.938 25.4467 5.92211 25.4693L4.12476 27.9535C4.08769 28.0062 4.04462 28.0435 3.99554 28.0652C3.94647 28.087 3.89307 28.1029 3.83535 28.113C3.75838 28.1264 3.70107 28.1199 3.66341 28.0934C3.63105 28.0594 3.6076 28.0007 3.59307 27.9173C3.583 27.8596 3.57391 27.7885 3.56579 27.704C3.55655 27.6131 3.55805 27.5269 3.57029 27.4455C3.58783 27.3565 3.61401 27.2792 3.64884 27.2137C3.68256 27.1417 3.73469 27.0996 3.80524 27.0873C3.83731 27.0817 3.86464 27.0869 3.88724 27.1027C3.91625 27.1175 3.9394 27.1366 3.9567 27.16C3.98042 27.1823 4.00092 27.2052 4.01822 27.2286C4.0344 27.2456 4.05211 27.2524 4.07135 27.2491L4.0906 27.2457C4.09701 27.2446 4.09966 27.2408 4.09854 27.2344L5.82317 24.9017C5.91961 24.7725 6.03152 24.6373 6.15891 24.4962C6.2863 24.355 6.4229 24.2288 6.56871 24.1174C6.71982 23.9986 6.87692 23.8952 7.04003 23.8073C7.20955 23.7183 7.3809 23.6587 7.55407 23.6285C7.69517 23.6039 7.83336 23.6194 7.96863 23.6752C8.10279 23.7245 8.22162 23.7996 8.32512 23.9005C8.43392 23.9939 8.51986 24.1078 8.58294 24.2421C8.6449 24.3701 8.67214 24.5075 8.66467 24.6542L8.51007 30.4207C8.51513 30.5255 8.52116 30.617 8.52816 30.6951C8.53405 30.7667 8.54314 30.8378 8.55544 30.9084C8.56774 30.979 8.5838 31.0521 8.60363 31.128C8.62346 31.2038 8.64288 31.2963 8.66188 31.4053C8.68754 31.4008 8.69828 31.4056 8.6941 31.4195C8.69522 31.4259 8.7079 31.4039 8.73214 31.3534C8.74467 31.3116 8.76571 31.2617 8.79525 31.2036C8.82367 31.1392 8.84944 31.0785 8.87256 31.0216C8.90098 30.9572 8.92467 30.9035 8.94361 30.8606C8.96144 30.8112 8.97036 30.7865 8.97036 30.7865L10.321 25.2278C10.343 25.1645 10.3668 25.1306 10.3925 25.1262C10.4234 25.1142 10.4614 25.1043 10.5063 25.0964C10.5704 25.0852 10.6405 25.0895 10.7167 25.1093C10.7981 25.1215 10.8461 25.1694 10.8606 25.2527L10.8741 25.3297L10.7212 29.1728C10.7076 29.3602 10.7078 29.532 10.7218 29.6882C10.7358 29.8443 10.7574 30.0058 10.7864 30.1725L10.8284 30.4131C10.9176 30.3182 11.0313 30.2125 11.1696 30.0958C11.3079 29.9792 11.4627 29.863 11.6342 29.7472C11.8045 29.625 11.9851 29.5043 12.1758 29.3852C12.3665 29.266 12.5498 29.1613 12.7257 29.0712C12.907 28.9735 13.0776 28.8909 13.2376 28.8234C13.3977 28.7558 13.5354 28.712 13.6509 28.6918C13.6894 28.6851 13.7386 28.6832 13.7985 28.6859C13.8638 28.6812 13.9243 28.6871 13.9801 28.7039C14.0412 28.713 14.0943 28.7335 14.1395 28.7653C14.1847 28.7971 14.2123 28.8418 14.2224 28.8995C14.2291 28.938 14.2246 28.9883 14.2091 29.0505C14.1999 29.1116 14.1685 29.1402 14.115 29.1363C14.1021 29.1386 14.0678 29.1313 14.0121 29.1146C13.9552 29.0915 13.9203 29.0811 13.9075 29.0833C13.8946 29.0855 13.8695 29.0932 13.8322 29.1063C13.8012 29.1183 13.7639 29.1315 13.7201 29.1457C13.6827 29.1588 13.6459 29.1751 13.6097 29.1947C13.5798 29.2131 13.5591 29.2266 13.5474 29.2353C13.2953 29.3057 13.0348 29.4039 12.7661 29.5301C12.4962 29.6498 12.2366 29.7909 11.9873 29.9533C11.7445 30.1146 11.528 30.2944 11.3379 30.4928C11.1467 30.6847 11.0048 30.8945 10.9123 31.1221L10.8877 31.2651C10.8877 31.2651 10.8968 31.3363 10.9149 31.4785C10.9331 31.6207 10.952 31.7859 10.9716 31.9742C10.9987 32.1677 11.0232 32.365 11.0451 32.566C11.068 32.7735 11.0907 32.9414 11.113 33.0697L11.1533 33.3006L11.2168 35.3712C11.2183 35.5692 11.1952 35.7781 11.1476 35.9978C11.1064 36.2165 11.0362 36.4204 10.937 36.6095C10.839 36.805 10.7096 36.973 10.549 37.1133C10.3896 37.26 10.2008 37.3524 9.98276 37.3904C9.9571 37.3949 9.90844 37.4001 9.83677 37.406C9.76622 37.4183 9.71812 37.4267 9.69246 37.4311C9.51035 37.41 9.34983 37.3422 9.21091 37.2276C9.07839 37.1119 8.96121 36.9704 8.85936 36.8032C8.75862 36.6423 8.676 36.4716 8.61151 36.2912C8.55455 36.1161 8.51322 35.9548 8.4875 35.8073ZM8.99236 35.6896C9.00689 35.7729 9.03664 35.8867 9.0816 36.0309C9.12655 36.175 9.18322 36.3105 9.25159 36.4374C9.3275 36.5696 9.41288 36.6802 9.50773 36.7694C9.60899 36.8575 9.72697 36.8898 9.86166 36.8663C10.0028 36.8417 10.1232 36.7745 10.223 36.6646C10.3239 36.5611 10.4049 36.4379 10.4659 36.2951C10.5333 36.1512 10.583 36.0004 10.6151 35.8429C10.6471 35.6853 10.6589 35.5444 10.6504 35.4203L10.461 32.4002L10.3654 31.8518C10.165 32.1048 9.96587 32.3841 9.76799 32.6895C9.57652 32.9938 9.4135 33.3097 9.27894 33.6372C9.14549 33.9711 9.04899 34.3084 8.98944 34.6492C8.93101 34.9964 8.93199 35.3432 8.99236 35.6896ZM14.0204 30.2432C14.0193 30.2368 14.0186 30.2138 14.0183 30.1742C14.018 30.1346 14.0177 30.095 14.0174 30.0554C14.016 30.0094 14.0157 29.9698 14.0166 29.9366C14.0163 29.897 14.015 29.8708 14.0128 29.858L14.0061 29.8195L13.996 29.7618L14.025 29.1322C14.0938 28.8823 14.1675 28.6414 14.246 28.4097C14.331 28.1768 14.4365 27.9667 14.5624 27.7796C14.6884 27.5924 14.8424 27.4334 15.0245 27.3025C15.213 27.1705 15.4515 27.0794 15.7401 27.0291C15.7978 27.019 15.8718 27.026 15.9618 27.0499C16.0572 27.0663 16.1511 27.0929 16.2434 27.1297C16.3421 27.1653 16.4318 27.2059 16.5124 27.2513C16.5983 27.2892 16.6644 27.3272 16.7107 27.3654C16.904 27.2987 17.0455 27.2575 17.1353 27.2419C17.224 27.2198 17.3004 27.2032 17.3645 27.192C17.4275 27.1744 17.4926 27.1498 17.5598 27.1183C17.6334 27.0856 17.7416 27.0238 17.8844 26.9329C17.9878 26.8818 18.0908 26.8473 18.1935 26.8294C18.2383 26.8216 18.2834 26.8336 18.3286 26.8653C18.3802 26.896 18.4105 26.937 18.4194 26.9883C18.4306 27.0524 18.4182 27.1141 18.3822 27.1732C18.3463 27.2323 18.2974 27.2739 18.2355 27.2979L17.0799 27.7769L16.9824 27.8435C17.0364 28.1909 17.017 28.5346 16.9243 28.8746C16.8315 29.2146 16.684 29.5245 16.4816 29.8043C16.2793 30.0841 16.0301 30.3225 15.734 30.5195C15.4368 30.7101 15.115 30.8355 14.7686 30.8959C14.743 30.9004 14.7007 30.9045 14.6419 30.9081C14.5842 30.9182 14.5457 30.9249 14.5265 30.9282C14.3753 30.8951 14.2574 30.8066 14.1729 30.6627C14.0947 30.5178 14.0439 30.3779 14.0204 30.2432ZM14.6697 30.3283C14.6817 30.3593 14.7102 30.3708 14.755 30.363C14.7999 30.3552 14.832 30.3496 14.8513 30.3462C15.0821 30.306 15.3094 30.2069 15.533 30.049C15.7555 29.8846 15.9467 29.6927 16.1067 29.4731C16.272 29.2461 16.3949 29.0033 16.4754 28.7447C16.5611 28.4786 16.5828 28.2237 16.5403 27.98C16.3351 28.0158 16.127 28.0355 15.9162 28.0392C15.7043 28.0365 15.5021 28.0519 15.3097 28.0855L15.3001 28.0872L14.6491 29.073C14.6121 29.1257 14.5874 29.1928 14.5752 29.2742C14.5629 29.3556 14.5582 29.4424 14.561 29.5344C14.5639 29.6264 14.5699 29.7179 14.5791 29.8088C14.5884 29.8997 14.5991 29.9804 14.6114 30.051C14.6148 30.0702 14.6226 30.1151 14.6349 30.1857C14.6472 30.2562 14.6588 30.3038 14.6697 30.3283ZM18.5207 29.1614C18.5307 29.0671 18.5305 28.9713 18.5201 28.874C18.5162 28.7756 18.5111 28.6707 18.5049 28.5594C18.5052 28.447 18.5128 28.3202 18.5278 28.1788C18.5481 28.0298 18.588 27.861 18.6477 27.6721C18.7073 27.4833 18.7913 27.2638 18.8996 27.0136C19.0133 26.7559 19.1663 26.4583 19.3586 26.1207C19.3775 26.0778 19.404 26.0401 19.438 26.0078C19.4709 25.969 19.5098 25.9457 19.5547 25.9379C19.6317 25.9244 19.7046 25.9448 19.7735 25.9989C19.8413 26.0465 19.8813 26.1056 19.8936 26.1762C19.8948 26.1826 19.8923 26.2062 19.8861 26.2469C19.8853 26.2801 19.8828 26.3036 19.8786 26.3176C19.8338 26.4774 19.7894 26.6206 19.7454 26.7472C19.7014 26.8739 19.6536 26.9978 19.602 27.1192C19.5494 27.2341 19.4882 27.3571 19.4185 27.4882C19.3553 27.6182 19.2788 27.767 19.1891 27.9346C19.1456 28.1404 19.1096 28.3318 19.0809 28.5086C19.0523 28.6854 19.0558 28.8764 19.0916 29.0817C19.1095 29.1843 19.1272 29.2671 19.1448 29.3301C19.1688 29.392 19.216 29.473 19.2863 29.5731L19.3922 29.5547C19.5782 29.5222 19.7769 29.4116 19.9885 29.2227C20.2054 29.0263 20.4114 28.8053 20.6065 28.5599C20.807 28.3068 20.9844 28.0545 21.1388 27.8029C21.2932 27.5513 21.4035 27.3503 21.4698 27.2C21.4804 27.1849 21.4914 27.1533 21.5028 27.105C21.5195 27.0493 21.53 27.0144 21.5342 27.0004C21.5403 26.9597 21.5516 26.8917 21.568 26.7963C21.5833 26.6945 21.598 26.5895 21.6122 26.4813C21.6328 26.372 21.6513 26.2696 21.6677 26.1742C21.683 26.0724 21.6937 26.0012 21.6998 25.9604C21.7026 25.9005 21.7227 25.8639 21.76 25.8508C21.7974 25.8377 21.8353 25.8278 21.8738 25.8211C21.9892 25.801 22.0675 25.8138 22.1085 25.8595C22.1484 25.8988 22.1778 25.973 22.1968 26.082L22.2253 26.2455C22.1914 26.4299 22.1616 26.6003 22.136 26.7567C22.1168 26.9121 22.0971 27.0642 22.0768 27.2131C22.0629 27.361 22.0587 27.5071 22.064 27.6515C22.0694 27.796 22.0866 27.9516 22.1156 28.1184C22.119 28.1376 22.1236 28.1831 22.1295 28.2547C22.1418 28.3253 22.1579 28.3985 22.1777 28.4743C22.2028 28.5426 22.2338 28.6066 22.2706 28.6663C22.3128 28.7184 22.3627 28.7395 22.4204 28.7294C22.5743 28.7026 22.7281 28.6559 22.8818 28.5895C23.0407 28.5155 23.1979 28.432 23.3535 28.3387C23.508 28.2391 23.6517 28.1348 23.7847 28.0257C23.9241 27.9155 24.0538 27.8069 24.174 27.7001C24.2038 27.6817 24.2373 27.6461 24.2744 27.5934C24.3114 27.5406 24.3523 27.4906 24.3969 27.4431C24.4403 27.3893 24.4849 27.3419 24.5307 27.3009C24.5764 27.2599 24.6217 27.2354 24.6666 27.2276C24.7949 27.2053 24.8702 27.2582 24.8925 27.3865C24.9093 27.4827 24.8695 27.5954 24.773 27.7245C24.6755 27.8473 24.5459 27.9756 24.3842 28.1095C24.2289 28.2423 24.05 28.3726 23.8476 28.5004C23.6452 28.6282 23.4475 28.7453 23.2546 28.8516C23.0669 28.9504 22.8969 29.0363 22.7443 29.1091C22.5907 29.1755 22.4786 29.2149 22.4081 29.2272C22.3824 29.2317 22.3343 29.2401 22.2638 29.2524C22.1985 29.2571 22.153 29.2617 22.1274 29.2662C22.0203 29.2584 21.9301 29.2147 21.8567 29.135C21.7833 29.0552 21.7211 28.9637 21.67 28.8602C21.6242 28.7492 21.5886 28.6398 21.5632 28.5319C21.5367 28.4175 21.5173 28.3251 21.505 28.2546C21.488 28.2707 21.4651 28.2912 21.4364 28.3161C21.413 28.3334 21.3997 28.3522 21.3967 28.3726C21.3532 28.4264 21.2789 28.512 21.1738 28.6295C21.074 28.7394 20.9631 28.8612 20.841 28.9948C20.7242 29.1209 20.6127 29.2395 20.5065 29.3505C20.4067 29.4604 20.3377 29.5385 20.2995 29.5848C20.188 29.7034 20.0609 29.8082 19.9181 29.8992C19.7754 29.9901 19.6238 30.0496 19.4635 30.0775C19.2967 30.1066 19.1608 30.1039 19.0556 30.0693C18.9493 30.0284 18.8595 29.968 18.7861 29.8883C18.7181 29.801 18.6632 29.6949 18.6216 29.57C18.58 29.4451 18.5464 29.3089 18.5207 29.1614ZM24.3996 28.0275C24.5557 27.8615 24.6643 27.7071 24.7253 27.5643C24.7927 27.4204 24.8409 27.2798 24.8699 27.1426C24.8988 27.0054 24.917 26.8634 24.9245 26.7167C24.9308 26.5636 24.9542 26.3944 24.9946 26.2089C24.9611 26.1685 24.9383 26.1328 24.9263 26.1018C24.9196 26.0633 24.9118 26.0184 24.9029 25.9671C24.8939 25.9158 24.8897 25.8538 24.8902 25.781C24.8972 25.7071 24.9117 25.6385 24.9337 25.5752C24.9546 25.5054 24.9835 25.4442 25.0206 25.3915C25.0577 25.3388 25.1083 25.3068 25.1724 25.2956C25.1705 25.3224 25.2108 25.3451 25.2933 25.3638C25.3823 25.3813 25.4879 25.3993 25.61 25.4176C25.7386 25.4349 25.8741 25.4542 26.0166 25.4756C26.1592 25.497 26.2862 25.5244 26.3978 25.5579C26.5244 25.6019 26.6168 25.6584 26.6752 25.7276C26.7388 25.7892 26.7823 25.8873 26.8058 26.022C26.827 26.1439 26.835 26.2846 26.8298 26.4441C26.831 26.6025 26.8295 26.7647 26.8254 26.9306C26.8266 27.089 26.8251 27.2512 26.821 27.4171C26.8222 27.5755 26.8339 27.7188 26.8563 27.8471L26.8999 28.0972C26.9035 28.1561 26.922 28.1859 26.9551 28.1867C26.9936 28.18 27.0289 28.1739 27.061 28.1683C27.1379 28.1549 27.2062 28.1298 27.2659 28.0929C27.3256 28.0561 27.3847 28.016 27.4432 27.9728C27.5082 27.9284 27.5705 27.8878 27.6302 27.851C27.6887 27.8077 27.7521 27.7736 27.8205 27.7484L28.5765 27.0813C28.5943 27.032 28.6203 26.9911 28.6543 26.9587C28.6936 26.9188 28.7302 26.8827 28.7642 26.8504C28.8217 26.8007 28.8891 26.7328 28.9666 26.6466C29.0048 26.6003 29.0462 26.5534 29.0908 26.506L29.3794 26.4556C29.3987 26.4523 29.4148 26.4693 29.428 26.5067C29.4411 26.544 29.4493 26.5723 29.4527 26.5916C29.4661 26.6685 29.4284 26.7742 29.3394 26.9087C29.2505 27.0431 29.1301 27.1864 28.9782 27.3384C28.8263 27.4905 28.6551 27.6459 28.4647 27.8046C28.2732 27.957 28.0832 28.0992 27.8947 28.2311C27.7126 28.362 27.5401 28.4714 27.3769 28.5593C27.2203 28.6461 27.097 28.6973 27.0072 28.713C26.8918 28.7331 26.7937 28.7204 26.7131 28.675C26.6325 28.6296 26.5625 28.5691 26.5031 28.4935C26.4436 28.418 26.3959 28.3338 26.3599 28.2409C26.3292 28.1406 26.3054 28.0423 26.2887 27.9461C26.2764 27.8755 26.2815 27.7722 26.304 27.6361C26.3266 27.5 26.355 27.3596 26.3892 27.2148C26.4234 27.0701 26.4518 26.9296 26.4744 26.7935C26.4969 26.6574 26.5015 26.5509 26.4881 26.4739C26.4869 26.4675 26.4344 26.4502 26.3303 26.4221C26.2327 26.3929 26.1249 26.3621 26.0069 26.3298C25.8878 26.2911 25.7768 26.2609 25.6739 26.2392C25.5763 26.2099 25.5269 26.1921 25.5258 26.1857C25.4104 26.3578 25.3384 26.5322 25.3098 26.7091C25.2875 26.8848 25.2632 27.0674 25.2368 27.2571C25.2168 27.4456 25.1679 27.6392 25.0902 27.8378C25.0188 28.0352 24.8732 28.2424 24.6533 28.4591C24.6469 28.4602 24.6335 28.4593 24.6131 28.4562C24.5863 28.4543 24.5611 28.4422 24.5374 28.4199C24.5061 28.3923 24.4791 28.3507 24.4562 28.2952C24.4322 28.2333 24.4133 28.1441 24.3996 28.0275ZM35.7211 25.5881L34.0581 27.1369L34.0004 27.147C33.9363 27.1582 33.8693 27.1533 33.7996 27.1324C33.7363 27.1104 33.6979 27.0609 33.6845 26.984C33.6756 26.9326 33.6806 26.8855 33.6995 26.8426C33.7237 26.7921 33.7555 26.7469 33.7948 26.707C33.8394 26.6596 33.9224 26.5856 34.0436 26.4852C34.1649 26.3847 34.2915 26.2768 34.4233 26.1613C34.5541 26.0393 34.6801 25.9282 34.8014 25.8277C34.929 25.7262 35.0157 25.6549 35.0615 25.6139C35.0826 25.5837 35.1161 25.5482 35.1618 25.5072C35.2064 25.4597 35.2452 25.4166 35.2781 25.3778C35.3162 25.3315 35.3491 25.2928 35.3767 25.2615C35.4043 25.2303 35.4176 25.2114 35.4165 25.205L34.4141 23.8334C34.3742 23.794 34.3488 23.7621 34.3379 23.7376C34.3323 23.7055 34.325 23.6638 34.3161 23.6125C34.2825 23.4201 34.3588 23.3077 34.5448 23.2753C34.5704 23.2708 34.6315 23.28 34.728 23.3028C34.8298 23.3181 34.9536 23.3461 35.0995 23.3867C35.2442 23.421 35.3965 23.4605 35.5563 23.5054C35.7162 23.5502 35.862 23.5909 35.9939 23.6273C36.1259 23.6638 36.2374 23.6972 36.3286 23.7276C36.4187 23.7516 36.4638 23.7635 36.4638 23.7635L37.1657 22.7292C37.1715 22.6489 37.2098 22.5464 37.2806 22.4217C37.3578 22.2959 37.4371 22.1631 37.5185 22.0233C37.5999 21.8836 37.6684 21.7461 37.7241 21.6108C37.7787 21.4691 37.7971 21.347 37.7792 21.2443L37.7742 21.2155L36.8404 19.7823C36.7505 19.646 36.6814 19.4961 36.6331 19.3327C36.5901 19.1618 36.5541 18.9929 36.525 18.8262C36.5004 18.685 36.4982 18.54 36.5185 18.3911C36.5377 18.2358 36.5789 18.0931 36.6422 17.9631C36.7119 17.832 36.8015 17.7206 36.911 17.6288C37.0195 17.5306 37.1571 17.4669 37.3238 17.4379C37.497 17.4077 37.6471 17.4344 37.774 17.518C37.9062 17.5941 38.0172 17.7003 38.1071 17.8366C38.2033 17.9719 38.2788 18.1206 38.3336 18.2829C38.3872 18.4388 38.4257 18.584 38.4492 18.7187C38.5163 19.1035 38.5357 19.4802 38.5074 19.8486C38.4844 20.2094 38.431 20.5855 38.3472 20.9768L38.3706 21.1115C38.5662 21.3616 38.7667 21.6207 38.9721 21.8889C39.1774 22.1571 39.369 22.4409 39.5467 22.7404C39.7234 23.0334 39.8781 23.3336 40.011 23.6408C40.1428 23.9417 40.2366 24.2525 40.2925 24.5731C40.3361 24.8233 40.3352 25.0646 40.2898 25.2972C40.2498 25.5223 40.17 25.7279 40.0504 25.9139C39.9308 26.1 39.773 26.2564 39.577 26.383C39.3875 26.5086 39.1644 26.5938 38.9078 26.6385C38.6192 26.6888 38.3362 26.6952 38.0587 26.6576C37.7865 26.6126 37.5162 26.5407 37.2479 26.4421C36.9849 26.336 36.7281 26.2089 36.4776 26.0609C36.2336 25.9118 36.0006 25.7508 35.7789 25.578L35.7211 25.5881ZM36.1451 25.1771C36.1463 25.1835 36.1662 25.2032 36.205 25.2361C36.2502 25.2679 36.2997 25.3055 36.3535 25.349C36.4127 25.3849 36.4724 25.4241 36.5326 25.4665C36.5929 25.5088 36.645 25.5427 36.6891 25.568C36.7117 25.5839 36.7488 25.6072 36.8004 25.6379C36.8573 25.661 36.9121 25.6911 36.9648 25.7281C37.0229 25.7577 37.0745 25.7883 37.1196 25.8201C37.1701 25.8444 37.2023 25.8586 37.2163 25.8627C37.2581 25.8753 37.3214 25.8973 37.4062 25.9288C37.491 25.9602 37.5758 25.9917 37.6606 26.0232C37.7454 26.0547 37.8264 26.0835 37.9037 26.1097C37.9809 26.1359 38.0265 26.1511 38.0405 26.1552C38.1992 26.1937 38.3411 26.2119 38.4664 26.2099C38.5969 26.2003 38.7263 26.1844 38.8545 26.162C39.0469 26.1285 39.2043 26.0647 39.3267 25.9707C39.4544 25.8691 39.5525 25.7496 39.6211 25.6121C39.6885 25.4681 39.7275 25.3127 39.738 25.1456C39.7539 24.971 39.7472 24.8004 39.7182 24.6336C39.6869 24.454 39.6384 24.2708 39.5728 24.084C39.5136 23.8961 39.4368 23.7211 39.3425 23.5591L38.155 21.6943L37.5812 22.8947L36.1384 25.1387L36.1451 25.1771ZM35.1734 24.038C35.1756 24.0509 35.1833 24.076 35.1964 24.1133C35.2148 24.1431 35.2284 24.1639 35.237 24.1756C35.2705 24.2161 35.3132 24.2714 35.3651 24.3417C35.4234 24.4108 35.4779 24.4773 35.5287 24.5411C35.5848 24.5974 35.6307 24.6522 35.6664 24.7055C35.7074 24.7512 35.7311 24.7735 35.7375 24.7724L35.776 24.7657C35.7953 24.7623 35.8293 24.7299 35.8781 24.6686C35.9257 24.6008 35.9766 24.5324 36.0307 24.4635C36.0836 24.3882 36.1313 24.3204 36.1736 24.2602C36.2149 24.1935 36.2382 24.1564 36.2435 24.1489L36.187 24.1092L35.3081 24.0146L35.1734 24.038ZM37.0332 18.7276C37.0958 19.0868 37.2073 19.4044 37.3678 19.6804C37.5272 19.95 37.7176 20.2275 37.9391 20.5127C37.9678 20.4878 37.99 20.4443 38.0056 20.3821C38.0201 20.3135 38.0308 20.2422 38.0377 20.1683C38.0435 20.088 38.0473 20.0147 38.0489 19.9483C38.0506 19.8819 38.0535 19.8418 38.0577 19.8278C38.0554 19.815 38.053 19.7824 38.0505 19.7299C38.0544 19.6764 38.054 19.617 38.0492 19.5517C38.0433 19.4801 38.038 19.4116 38.0332 19.3464C38.0349 19.28 38.0361 19.2302 38.0369 19.197L38.0319 19.1682C38.0274 19.1425 38.0102 19.0629 37.9803 18.9293C37.9569 18.7946 37.9221 18.652 37.876 18.5014C37.8288 18.3444 37.769 18.2095 37.6964 18.0966C37.6227 17.9772 37.5346 17.9265 37.432 17.9444C37.3293 17.9623 37.2461 17.9966 37.1823 18.0474C37.1184 18.0982 37.0729 18.159 37.0456 18.2298C37.0247 18.2996 37.0119 18.3778 37.0072 18.4645C37.0089 18.5502 37.0175 18.6379 37.0332 18.7276ZM40.6981 24.2843C40.699 24.2512 40.7081 24.1901 40.7257 24.1011C40.7432 24.0121 40.7596 23.9168 40.7749 23.815C40.7966 23.712 40.8163 23.6161 40.8338 23.5271C40.8513 23.4382 40.8637 23.3765 40.8709 23.3422C40.8915 23.2329 40.9151 23.1594 40.9416 23.1218C40.9744 23.083 41.039 23.0552 41.1352 23.0384C41.2378 23.0205 41.3113 23.0441 41.3557 23.109C41.4 23.174 41.4306 23.2546 41.4474 23.3508C41.4765 23.5175 41.4776 23.6759 41.4509 23.826C41.4295 23.9685 41.4022 24.1153 41.3691 24.2665C41.3349 24.4113 41.3061 24.5683 41.2827 24.7376C41.2646 24.8993 41.2735 25.0828 41.3093 25.2881C41.3137 25.3137 41.3204 25.3522 41.3294 25.4035C41.3372 25.4484 41.3488 25.4959 41.3642 25.5461C41.3784 25.5899 41.3985 25.6294 41.4245 25.6645C41.4493 25.6932 41.4777 25.7048 41.5098 25.6992C41.6766 25.6701 41.8377 25.609 41.9933 25.5158C42.1542 25.415 42.307 25.3058 42.4516 25.188C42.6016 25.0628 42.7409 24.9328 42.8694 24.798C43.0032 24.6557 43.1238 24.5323 43.2311 24.4277C43.2704 24.3878 43.2969 24.3501 43.3105 24.3147C43.3306 24.2781 43.348 24.2454 43.3628 24.2164C43.3764 24.1809 43.3944 24.1514 43.4167 24.1277C43.4443 24.0964 43.4902 24.0752 43.5543 24.064C43.6377 24.0495 43.7084 24.057 43.7664 24.0865C43.8297 24.1085 43.8692 24.1644 43.8848 24.2542C43.8915 24.2927 43.8945 24.3285 43.8937 24.3617C43.8993 24.3938 43.8882 24.4255 43.8607 24.4567C43.8576 24.4771 43.8364 24.5072 43.7971 24.5471C43.7642 24.5859 43.7287 24.6284 43.6905 24.6747C43.6512 24.7146 43.6151 24.7539 43.5822 24.7927C43.5482 24.8251 43.5221 24.8461 43.504 24.8559C43.4976 24.857 43.48 24.87 43.4513 24.8948C43.4279 24.9121 43.413 24.9213 43.4065 24.9225C43.4013 24.93 43.3933 24.9413 43.3827 24.9564C43.3774 24.9639 43.3753 24.9709 43.3764 24.9773C43.2597 25.1034 43.1306 25.2349 42.9892 25.3719C42.8532 25.5013 42.7064 25.6261 42.5489 25.746C42.3903 25.8596 42.223 25.9615 42.0471 26.0516C41.8775 26.1406 41.703 26.2008 41.5234 26.2321C41.3695 26.2589 41.2441 26.2411 41.1473 26.1787C41.0558 26.1087 40.9802 26.0162 40.9205 25.901C40.8608 25.7859 40.8159 25.6615 40.7861 25.528C40.7562 25.3944 40.7317 25.2731 40.7127 25.164L40.6981 24.2843ZM40.7189 21.6736C40.6987 21.5582 40.7078 21.4773 40.746 21.431C40.7841 21.3847 40.861 21.3515 40.9764 21.3314C41.0341 21.3213 41.0941 21.3241 41.1563 21.3397C41.2174 21.3488 41.2552 21.3951 41.2697 21.4785C41.2842 21.5619 41.256 21.6461 41.1849 21.7312C41.1202 21.8151 41.0494 21.8638 40.9724 21.8773C40.8955 21.8907 40.837 21.8777 40.7972 21.8384C40.7561 21.7927 40.73 21.7378 40.7189 21.6736ZM44.122 23.1126C44.1303 23.0847 44.1493 23.0417 44.1788 22.9837C44.2072 22.9193 44.2181 22.8678 44.2114 22.8293L44.2064 22.8005C44.2052 22.794 44.1977 22.7888 44.1838 22.7846C44.1687 22.774 44.158 22.7692 44.1516 22.7704L43.9784 22.8005C43.8206 22.8809 43.6407 22.9486 43.4388 23.0036C43.2305 23.0598 43.0296 23.1014 42.8361 23.1285C42.6362 23.1568 42.4634 23.1704 42.3178 23.1693C42.1711 23.1618 42.0816 23.1411 42.0492 23.1071C42.0169 23.0731 42.0572 23.0198 42.1701 22.9473C42.2819 22.8683 42.5027 22.7703 42.8326 22.6533C42.8518 22.65 42.8956 22.6357 42.9639 22.6106C43.0247 22.5802 43.0956 22.5513 43.1768 22.5239C43.2515 22.4977 43.323 22.472 43.3914 22.4469C43.4585 22.4153 43.5018 22.3979 43.521 22.3945C43.5455 22.3837 43.5995 22.371 43.6829 22.3564C43.7651 22.3355 43.8474 22.3145 43.9297 22.2936C44.0183 22.2715 44.1012 22.2538 44.1781 22.2403C44.2615 22.2258 44.3192 22.2158 44.3513 22.2102L44.3893 22.1441L44.92 20.753C44.9379 20.7036 44.9766 20.6605 45.0363 20.6236C45.1024 20.5857 45.1546 20.5634 45.1931 20.5567C45.2765 20.5421 45.3404 20.5673 45.3847 20.6323C45.428 20.6908 45.4552 20.7522 45.4664 20.8163C45.4675 20.8227 45.4654 20.8297 45.4601 20.8372C45.4612 20.8437 45.4624 20.8501 45.4635 20.8565L45.4702 20.895L45.2263 21.9982L45.2364 22.0559C45.2425 22.0152 45.2616 21.992 45.2937 21.9864C45.3321 21.9797 45.361 21.9747 45.3802 21.9713C45.4765 21.9545 45.575 21.9704 45.676 22.0189C45.777 22.0674 45.837 22.1461 45.856 22.2552C45.8649 22.3065 45.8562 22.351 45.8297 22.3886C45.8032 22.4263 45.7692 22.4586 45.7276 22.4857C45.6861 22.5128 45.6408 22.5372 45.5917 22.559C45.5415 22.5743 45.4972 22.5854 45.4587 22.5921C45.3818 22.6055 45.3063 22.6087 45.2324 22.6018C45.1649 22.5937 45.0927 22.5964 45.0157 22.6098C44.9452 22.6221 44.8877 22.6718 44.8434 22.7588C44.798 22.8394 44.7603 22.9451 44.7302 23.0759C44.7054 23.1992 44.6899 23.3374 44.6835 23.4905C44.6772 23.6436 44.6735 23.7929 44.6724 23.9385C44.6713 24.0841 44.675 24.2189 44.6834 24.343C44.6983 24.466 44.7113 24.5595 44.7224 24.6237C44.7269 24.6493 44.7359 24.7007 44.7493 24.7776C44.7691 24.8535 44.7813 24.9042 44.7857 24.9299C44.7989 24.9672 44.821 24.9997 44.8523 25.0273C44.8824 25.0485 44.9131 25.0729 44.9443 25.1005L45.1656 25.0619C45.4222 25.0172 45.6654 24.9153 45.8954 24.7562C46.1319 24.5961 46.3495 24.4227 46.5482 24.236C46.5599 24.2274 46.5838 24.1935 46.6197 24.1344C46.661 24.0677 46.706 24.0037 46.7548 23.9423C46.8024 23.8745 46.8448 23.8143 46.8819 23.7615C46.9253 23.7077 46.9567 23.6791 46.9759 23.6757C47.0208 23.6679 47.0664 23.6831 47.1128 23.7213C47.1591 23.7595 47.1867 23.8042 47.1956 23.8555C47.2169 23.9774 47.1927 24.1039 47.123 24.235C47.0597 24.3649 46.9697 24.493 46.8529 24.6191C46.735 24.7388 46.5967 24.8554 46.4381 24.969C46.2794 25.0825 46.1186 25.1833 45.9555 25.2712C45.7988 25.358 45.6463 25.4308 45.4979 25.4897C45.356 25.5475 45.2369 25.5848 45.1407 25.6015C45.0509 25.6172 44.9563 25.6238 44.8567 25.6213C44.756 25.6124 44.6627 25.589 44.5768 25.5511C44.4909 25.5133 44.4156 25.4603 44.3509 25.3923C44.2861 25.3243 44.2437 25.2325 44.2236 25.1171L44.0374 24.0492L44.122 23.1126ZM46.8785 23.7423C46.8846 23.7016 46.8921 23.6309 46.901 23.5302C46.9152 23.422 46.925 23.3079 46.9306 23.188C46.9425 23.067 46.9492 22.9535 46.9505 22.8475C46.9572 22.734 46.9636 22.6569 46.9697 22.6162C46.9813 22.4555 46.9971 22.2809 47.0172 22.0924C47.0436 21.9028 47.0915 21.7226 47.1608 21.5519C47.2302 21.3812 47.3303 21.2349 47.461 21.113C47.5971 20.9835 47.7773 20.8992 48.0018 20.8601C48.0852 20.8456 48.1485 20.8676 48.1917 20.9261C48.2403 20.9771 48.2835 21.0357 48.3215 21.1017C48.326 21.1274 48.3343 21.1755 48.3466 21.2461C48.3642 21.3091 48.3753 21.3534 48.3797 21.3791C48.4278 21.6549 48.4414 21.9036 48.4206 22.1253C48.4062 22.3459 48.3569 22.5561 48.2728 22.7558C48.195 22.9544 48.09 23.1478 47.9576 23.3361C47.8241 23.518 47.6698 23.7134 47.4948 23.9223C47.4917 23.9427 47.4877 23.9764 47.4827 24.0236C47.4777 24.0707 47.4768 24.1039 47.4802 24.1231L47.4835 24.1424C47.5037 24.2578 47.5391 24.3475 47.5899 24.4113C47.6407 24.4752 47.7021 24.5239 47.774 24.5576C47.8513 24.5838 47.9327 24.5961 48.0183 24.5944C48.1092 24.5851 48.206 24.5716 48.3086 24.5537C48.6101 24.5011 48.8914 24.4091 49.1527 24.2777C49.4139 24.1462 49.6438 23.9674 49.8423 23.7411C49.8687 23.7035 49.8994 23.6519 49.9342 23.5863C49.9744 23.5132 50.0145 23.4402 50.0546 23.3671C50.0947 23.294 50.1398 23.23 50.1897 23.175C50.2384 23.1136 50.2949 23.0774 50.359 23.0662C50.4232 23.055 50.4661 23.074 50.4879 23.123C50.5097 23.1721 50.525 23.2223 50.534 23.2736C50.5586 23.4147 50.5371 23.5572 50.4697 23.7011C50.4076 23.8375 50.3149 23.9693 50.1917 24.0966C50.0738 24.2162 49.9317 24.3302 49.7656 24.4385C49.6058 24.5456 49.4438 24.64 49.2796 24.7215C49.1154 24.803 48.9553 24.8705 48.7994 24.9241C48.65 24.9766 48.5207 25.0123 48.4117 25.0313C48.0718 25.0906 47.7769 25.0858 47.527 25.0171C47.2824 24.9407 47.0887 24.7399 46.9461 24.4145L46.8785 23.7423ZM47.9239 21.6072C47.8157 21.745 47.7315 21.8687 47.6714 21.9784C47.6165 22.0805 47.5755 22.1867 47.5485 22.2972C47.5268 22.4001 47.51 22.5121 47.498 22.6331C47.4925 22.753 47.4871 22.8927 47.4819 23.0523C47.5869 22.9348 47.6696 22.8213 47.7298 22.7116C47.7964 22.6009 47.8464 22.4898 47.8798 22.3782C47.9133 22.2666 47.9327 22.1509 47.9383 22.031C47.9427 21.9046 47.9379 21.7634 47.9239 21.6072Z" fill="#CBCBCB"/>
</svg>
