<svg width="932" height="284" viewBox="0 0 932 284" fill="none" xmlns="http://www.w3.org/2000/svg">
<path d="M295.319 73V129H290.119V73H295.319ZM316.919 126.52V129H295.079V126.52H316.919ZM313.479 100.2V102.6H295.079V100.2H313.479ZM316.919 73V75.48H295.079V73H316.919ZM321.799 116.04L317.159 129H303.879L306.759 126.52C309.586 126.52 311.879 126.093 313.639 125.24C315.453 124.333 316.919 123.08 318.039 121.48C319.159 119.88 320.146 118.067 320.999 116.04H321.799ZM313.479 102.44V107.72H312.679V106.52C312.679 105.453 312.306 104.547 311.559 103.8C310.813 103 309.906 102.6 308.839 102.6V102.44H313.479ZM313.479 95.08V100.36H308.839V100.2C309.906 100.147 310.813 99.7467 311.559 99C312.306 98.2 312.679 97.2667 312.679 96.2V95.08H313.479ZM316.919 75.24V81.64H316.119V80.2C316.119 78.92 315.666 77.8267 314.759 76.92C313.853 75.96 312.733 75.4533 311.399 75.4V75.24H316.919ZM316.919 71.56V73.88L307.159 73C308.333 73 309.559 72.92 310.839 72.76C312.173 72.6 313.399 72.4133 314.519 72.2C315.639 71.9867 316.439 71.7733 316.919 71.56ZM290.359 123.16V129H283.959V128.2C283.959 128.2 284.119 128.2 284.439 128.2C284.813 128.2 284.999 128.2 284.999 128.2C286.386 128.2 287.559 127.72 288.519 126.76C289.533 125.747 290.066 124.547 290.119 123.16H290.359ZM290.359 78.84H290.119C290.119 77.4533 289.613 76.28 288.599 75.32C287.586 74.3067 286.386 73.8 284.999 73.8C284.999 73.8 284.839 73.8 284.519 73.8C284.199 73.8 284.039 73.8 284.039 73.8L283.959 73H290.359V78.84ZM332.371 79.8L376.691 121.56L377.491 130.12L333.171 88.12L332.371 79.8ZM332.531 124.04V129H326.531V128.2C326.531 128.2 326.745 128.2 327.171 128.2C327.651 128.2 327.891 128.2 327.891 128.2C329.118 128.2 330.158 127.8 331.011 127C331.865 126.2 332.291 125.213 332.291 124.04H332.531ZM335.891 124.04C335.891 125.213 336.318 126.2 337.171 127C338.078 127.8 339.118 128.2 340.291 128.2C340.291 128.2 340.505 128.2 340.931 128.2C341.411 128.2 341.651 128.2 341.651 128.2V129H335.651V124.04H335.891ZM332.371 79.8L335.811 84.28L335.891 129H332.291V89.8C332.291 87.08 332.158 84.7333 331.891 82.76C331.678 80.7867 331.571 79.8 331.571 79.8H332.371ZM377.491 81V119.88C377.491 121.587 377.545 123.24 377.651 124.84C377.758 126.387 377.865 127.667 377.971 128.68C378.131 129.64 378.211 130.12 378.211 130.12H377.491L373.971 125.88V81H377.491ZM377.251 85.96V81H383.251V81.8C383.251 81.8 383.011 81.8 382.531 81.8C382.105 81.8 381.891 81.8 381.891 81.8C380.718 81.8 379.678 82.2 378.771 83C377.918 83.8 377.491 84.7867 377.491 85.96H377.251ZM373.971 85.96C373.918 84.7867 373.465 83.8 372.611 83C371.758 82.2 370.718 81.8 369.491 81.8C369.491 81.8 369.251 81.8 368.771 81.8C368.345 81.8 368.131 81.8 368.131 81.8V81H374.131V85.96H373.971ZM434.235 81V129H429.115V81H434.235ZM399.595 81V129H394.475V81H399.595ZM429.915 104.12V106.52H398.715V104.12H429.915ZM394.715 123.88V129H388.875V128.2C388.875 128.2 389.035 128.2 389.355 128.2C389.675 128.2 389.835 128.2 389.835 128.2C391.115 128.2 392.182 127.773 393.035 126.92C393.942 126.067 394.422 125.053 394.475 123.88H394.715ZM399.355 123.88H399.595C399.595 125.053 400.048 126.067 400.955 126.92C401.862 127.773 402.955 128.2 404.235 128.2C404.235 128.2 404.395 128.2 404.715 128.2C405.035 128.2 405.195 128.2 405.195 128.2V129H399.355V123.88ZM399.355 86.12V81H405.195V81.8C405.195 81.8 405.035 81.8 404.715 81.8C404.395 81.8 404.235 81.8 404.235 81.8C402.955 81.8 401.862 82.2267 400.955 83.08C400.048 83.88 399.595 84.8933 399.595 86.12H399.355ZM394.715 86.12H394.475C394.422 84.8933 393.942 83.88 393.035 83.08C392.182 82.2267 391.115 81.8 389.835 81.8C389.835 81.8 389.675 81.8 389.355 81.8C389.035 81.8 388.875 81.8 388.875 81.8V81H394.715V86.12ZM429.355 123.88V129H423.515V128.2C423.515 128.2 423.675 128.2 423.995 128.2C424.315 128.2 424.475 128.2 424.475 128.2C425.755 128.2 426.822 127.773 427.675 126.92C428.582 126.067 429.062 125.053 429.115 123.88H429.355ZM433.995 123.88H434.235C434.288 125.053 434.742 126.067 435.595 126.92C436.502 127.773 437.595 128.2 438.875 128.2C438.875 128.2 439.035 128.2 439.355 128.2C439.675 128.2 439.835 128.2 439.835 128.2V129H433.995V123.88ZM433.995 86.12V81H439.835V81.8C439.835 81.8 439.675 81.8 439.355 81.8C439.035 81.8 438.875 81.8 438.875 81.8C437.595 81.8 436.502 82.2267 435.595 83.08C434.742 83.88 434.288 84.8933 434.235 86.12H433.995ZM429.355 86.12H429.115C429.062 84.8933 428.582 83.88 427.675 83.08C426.822 82.2267 425.755 81.8 424.475 81.8C424.475 81.8 424.315 81.8 423.995 81.8C423.675 81.8 423.515 81.8 423.515 81.8V81H429.355V86.12ZM469.443 79.88L491.443 128.52H485.123L468.083 87L469.443 79.88ZM454.003 123.16C453.416 124.76 453.496 126.013 454.243 126.92C454.989 127.773 455.843 128.2 456.803 128.2H457.443V129H442.162V128.2C442.162 128.2 442.269 128.2 442.482 128.2C442.696 128.2 442.803 128.2 442.803 128.2C443.923 128.2 445.069 127.827 446.243 127.08C447.416 126.28 448.429 124.973 449.283 123.16H454.003ZM469.443 79.88L470.003 85.4L451.683 128.76H446.643L465.603 88.12C465.603 88.12 465.736 87.8 466.003 87.16C466.323 86.52 466.669 85.7467 467.043 84.84C467.469 83.88 467.843 82.9467 468.163 82.04C468.483 81.1333 468.669 80.4133 468.723 79.88H469.443ZM478.883 110.36V112.76H457.683V110.36H478.883ZM482.962 123.16H489.043C489.843 124.973 490.829 126.28 492.003 127.08C493.176 127.827 494.296 128.2 495.363 128.2C495.363 128.2 495.469 128.2 495.683 128.2C495.896 128.2 496.003 128.2 496.003 128.2V129H479.603V128.2H480.243C481.149 128.2 481.976 127.773 482.723 126.92C483.469 126.013 483.549 124.76 482.962 123.16ZM502.649 79.8L546.969 121.56L547.769 130.12L503.449 88.12L502.649 79.8ZM502.809 124.04V129H496.809V128.2C496.809 128.2 497.023 128.2 497.449 128.2C497.929 128.2 498.169 128.2 498.169 128.2C499.396 128.2 500.436 127.8 501.289 127C502.143 126.2 502.569 125.213 502.569 124.04H502.809ZM506.169 124.04C506.169 125.213 506.596 126.2 507.449 127C508.356 127.8 509.396 128.2 510.569 128.2C510.569 128.2 510.783 128.2 511.209 128.2C511.689 128.2 511.929 128.2 511.929 128.2V129H505.929V124.04H506.169ZM502.649 79.8L506.089 84.28L506.169 129H502.569V89.8C502.569 87.08 502.436 84.7333 502.169 82.76C501.956 80.7867 501.849 79.8 501.849 79.8H502.649ZM547.769 81V119.88C547.769 121.587 547.823 123.24 547.929 124.84C548.036 126.387 548.143 127.667 548.249 128.68C548.409 129.64 548.489 130.12 548.489 130.12H547.769L544.249 125.88V81H547.769ZM547.529 85.96V81H553.529V81.8C553.529 81.8 553.289 81.8 552.809 81.8C552.383 81.8 552.169 81.8 552.169 81.8C550.996 81.8 549.956 82.2 549.049 83C548.196 83.8 547.769 84.7867 547.769 85.96H547.529ZM544.249 85.96C544.196 84.7867 543.743 83.8 542.889 83C542.036 82.2 540.996 81.8 539.769 81.8C539.769 81.8 539.529 81.8 539.049 81.8C538.623 81.8 538.409 81.8 538.409 81.8V81H544.409V85.96H544.249ZM607.642 108.84L606.762 119.8C605.376 121.933 603.562 123.773 601.322 125.32C599.082 126.867 596.549 128.067 593.722 128.92C590.896 129.72 587.909 130.12 584.762 130.12C579.376 130.067 574.682 129.027 570.682 127C566.736 124.973 563.696 122.093 561.562 118.36C559.429 114.627 558.362 110.173 558.362 105C558.362 99.7733 559.429 95.2933 561.562 91.56C563.696 87.8267 566.736 84.9467 570.682 82.92C574.682 80.8933 579.376 79.88 584.762 79.88C588.069 79.88 591.402 80.3067 594.762 81.16C598.122 82.0133 601.029 83.2133 603.482 84.76L605.242 96.04H604.522C603.349 91.1333 600.976 87.6133 597.402 85.48C593.882 83.3467 589.642 82.28 584.682 82.28C580.469 82.28 576.816 83.2133 573.722 85.08C570.682 86.8933 568.309 89.5067 566.602 92.92C564.949 96.28 564.122 100.307 564.122 105C564.122 109.587 564.949 113.587 566.602 117C568.309 120.36 570.709 122.973 573.802 124.84C576.896 126.653 580.549 127.587 584.762 127.64C588.762 127.64 592.362 127 595.562 125.72C598.816 124.387 601.456 122.333 603.482 119.56C605.509 116.787 606.656 113.213 606.922 108.84H607.642ZM624.449 81V129H619.329V81H624.449ZM645.969 126.52L645.809 129H624.289V126.52H645.969ZM642.209 103.8V106.2H624.289V103.8H642.209ZM645.889 81V83.48H624.289V81H645.889ZM650.449 117.56L646.049 129H633.889L636.609 126.52C639.275 126.52 641.409 126.147 643.009 125.4C644.662 124.6 645.995 123.533 647.009 122.2C648.022 120.813 648.902 119.267 649.649 117.56H650.449ZM642.209 106.04V110.6H641.329V109.56C641.329 108.653 641.062 107.88 640.529 107.24C639.995 106.547 639.169 106.2 638.049 106.2V106.04H642.209ZM642.209 99.4V103.96H638.049V103.8C639.169 103.8 639.995 103.48 640.529 102.84C641.062 102.147 641.329 101.347 641.329 100.44V99.4H642.209ZM645.889 83.24V88.76H645.009V87.56C645.009 86.44 644.635 85.48 643.889 84.68C643.195 83.88 642.235 83.48 641.009 83.48V83.24H645.889ZM645.889 79.72V81.8L636.769 81C638.422 81 640.182 80.8667 642.049 80.6C643.915 80.28 645.195 79.9867 645.889 79.72ZM619.489 123.88L620.529 129H613.569V128.2C613.569 128.2 613.755 128.2 614.129 128.2C614.502 128.2 614.689 128.2 614.689 128.2C616.022 128.2 617.115 127.773 617.969 126.92C618.822 126.067 619.275 125.053 619.329 123.88H619.489ZM619.489 86.04H619.329C619.275 84.8133 618.822 83.8 617.969 83C617.115 82.2 616.022 81.8 614.689 81.8C614.689 81.8 614.502 81.8 614.129 81.8C613.755 81.8 613.569 81.8 613.569 81.8V81H620.529L619.489 86.04ZM158.941 149.88C162.675 149.88 166.168 150.493 169.421 151.72C172.728 152.893 175.608 154.6 178.061 156.84C180.568 159.08 182.515 161.747 183.901 164.84C185.288 167.88 185.981 171.267 185.981 175C185.981 178.733 185.288 182.147 183.901 185.24C182.515 188.28 180.568 190.92 178.061 193.16C175.608 195.4 172.728 197.133 169.421 198.36C166.168 199.533 162.675 200.12 158.941 200.12C155.208 200.12 151.715 199.533 148.461 198.36C145.208 197.133 142.328 195.4 139.821 193.16C137.368 190.92 135.448 188.28 134.061 185.24C132.675 182.147 131.981 178.733 131.981 175C131.981 171.267 132.675 167.88 134.061 164.84C135.448 161.747 137.368 159.08 139.821 156.84C142.328 154.6 145.208 152.893 148.461 151.72C151.715 150.493 155.208 149.88 158.941 149.88ZM158.941 197.72C162.888 197.72 166.461 196.76 169.661 194.84C172.861 192.92 175.395 190.253 177.261 186.84C179.128 183.427 180.061 179.48 180.061 175C180.061 170.467 179.128 166.52 177.261 163.16C175.395 159.747 172.861 157.08 169.661 155.16C166.461 153.24 162.888 152.28 158.941 152.28C155.048 152.28 151.501 153.24 148.301 155.16C145.101 157.08 142.568 159.747 140.701 163.16C138.835 166.52 137.901 170.467 137.901 175C137.901 179.48 138.835 183.427 140.701 186.84C142.568 190.253 145.101 192.92 148.301 194.84C151.501 196.76 155.048 197.72 158.941 197.72ZM196.584 149.8L240.904 191.56L241.704 200.12L197.384 158.12L196.584 149.8ZM196.744 194.04V199H190.744V198.2C190.744 198.2 190.957 198.2 191.384 198.2C191.864 198.2 192.104 198.2 192.104 198.2C193.33 198.2 194.37 197.8 195.224 197C196.077 196.2 196.504 195.213 196.504 194.04H196.744ZM200.104 194.04C200.104 195.213 200.53 196.2 201.384 197C202.29 197.8 203.33 198.2 204.504 198.2C204.504 198.2 204.717 198.2 205.144 198.2C205.624 198.2 205.864 198.2 205.864 198.2V199H199.864V194.04H200.104ZM196.584 149.8L200.024 154.28L200.104 199H196.504V159.8C196.504 157.08 196.37 154.733 196.104 152.76C195.89 150.787 195.784 149.8 195.784 149.8H196.584ZM241.704 151V189.88C241.704 191.587 241.757 193.24 241.864 194.84C241.97 196.387 242.077 197.667 242.184 198.68C242.344 199.64 242.424 200.12 242.424 200.12H241.704L238.184 195.88V151H241.704ZM241.464 155.96V151H247.464V151.8C247.464 151.8 247.224 151.8 246.744 151.8C246.317 151.8 246.104 151.8 246.104 151.8C244.93 151.8 243.89 152.2 242.984 153C242.13 153.8 241.704 154.787 241.704 155.96H241.464ZM238.184 155.96C238.13 154.787 237.677 153.8 236.824 153C235.97 152.2 234.93 151.8 233.704 151.8C233.704 151.8 233.464 151.8 232.984 151.8C232.557 151.8 232.344 151.8 232.344 151.8V151H238.344V155.96H238.184ZM263.968 151V199H258.848V151H263.968ZM285.488 196.52L285.328 199H263.808V196.52H285.488ZM289.968 187.56L285.568 199H273.408L276.128 196.52C278.794 196.52 280.928 196.147 282.528 195.4C284.181 194.6 285.514 193.533 286.528 192.2C287.541 190.813 288.421 189.267 289.168 187.56H289.968ZM259.008 193.88L260.048 199H253.088V198.2C253.088 198.2 253.274 198.2 253.648 198.2C254.021 198.2 254.208 198.2 254.208 198.2C255.541 198.2 256.634 197.773 257.488 196.92C258.341 196.067 258.794 195.053 258.848 193.88H259.008ZM263.728 156.12V151H269.648V151.8C269.648 151.8 269.488 151.8 269.168 151.8C268.848 151.8 268.688 151.8 268.688 151.8C267.408 151.8 266.288 152.227 265.328 153.08C264.421 153.88 263.968 154.893 263.968 156.12H263.728ZM259.008 156.12H258.848C258.794 154.893 258.314 153.88 257.408 153.08C256.501 152.227 255.381 151.8 254.048 151.8C254.048 151.8 253.888 151.8 253.568 151.8C253.248 151.8 253.088 151.8 253.088 151.8V151H259.008V156.12ZM304.025 151V199H298.985V151H304.025ZM299.225 193.88V199H292.425V198.2C292.425 198.2 292.612 198.2 292.985 198.2C293.358 198.2 293.545 198.2 293.545 198.2C295.038 198.2 296.292 197.773 297.305 196.92C298.372 196.067 298.932 195.053 298.985 193.88H299.225ZM303.785 193.88H304.025C304.078 195.053 304.612 196.067 305.625 196.92C306.692 197.773 307.972 198.2 309.465 198.2C309.465 198.2 309.625 198.2 309.945 198.2C310.318 198.2 310.505 198.2 310.505 198.2L310.585 199H303.785V193.88ZM303.785 156.12V151H310.585L310.505 151.8C310.505 151.8 310.318 151.8 309.945 151.8C309.625 151.8 309.465 151.8 309.465 151.8C307.972 151.8 306.692 152.227 305.625 153.08C304.612 153.88 304.078 154.893 304.025 156.12H303.785ZM299.225 156.12H298.985C298.932 154.893 298.372 153.88 297.305 153.08C296.292 152.227 295.038 151.8 293.545 151.8C293.492 151.8 293.278 151.8 292.905 151.8C292.585 151.8 292.425 151.8 292.425 151.8V151H299.225V156.12ZM321.94 149.8L366.26 191.56L367.06 200.12L322.74 158.12L321.94 149.8ZM322.1 194.04V199H316.1V198.2C316.1 198.2 316.313 198.2 316.74 198.2C317.22 198.2 317.46 198.2 317.46 198.2C318.687 198.2 319.727 197.8 320.58 197C321.433 196.2 321.86 195.213 321.86 194.04H322.1ZM325.46 194.04C325.46 195.213 325.887 196.2 326.74 197C327.647 197.8 328.687 198.2 329.86 198.2C329.86 198.2 330.073 198.2 330.5 198.2C330.98 198.2 331.22 198.2 331.22 198.2V199H325.22V194.04H325.46ZM321.94 149.8L325.38 154.28L325.46 199H321.86V159.8C321.86 157.08 321.727 154.733 321.46 152.76C321.247 150.787 321.14 149.8 321.14 149.8H321.94ZM367.06 151V189.88C367.06 191.587 367.113 193.24 367.22 194.84C367.327 196.387 367.433 197.667 367.54 198.68C367.7 199.64 367.78 200.12 367.78 200.12H367.06L363.54 195.88V151H367.06ZM366.82 155.96V151H372.82V151.8C372.82 151.8 372.58 151.8 372.1 151.8C371.673 151.8 371.46 151.8 371.46 151.8C370.287 151.8 369.247 152.2 368.34 153C367.487 153.8 367.06 154.787 367.06 155.96H366.82ZM363.54 155.96C363.487 154.787 363.033 153.8 362.18 153C361.327 152.2 360.287 151.8 359.06 151.8C359.06 151.8 358.82 151.8 358.34 151.8C357.913 151.8 357.7 151.8 357.7 151.8V151H363.7V155.96H363.54ZM389.324 151V199H384.204V151H389.324ZM410.844 196.52L410.684 199H389.164V196.52H410.844ZM407.084 173.8V176.2H389.164V173.8H407.084ZM410.764 151V153.48H389.164V151H410.764ZM415.324 187.56L410.924 199H398.764L401.484 196.52C404.15 196.52 406.284 196.147 407.884 195.4C409.537 194.6 410.87 193.533 411.884 192.2C412.897 190.813 413.777 189.267 414.524 187.56H415.324ZM407.084 176.04V180.6H406.204V179.56C406.204 178.653 405.937 177.88 405.404 177.24C404.87 176.547 404.044 176.2 402.924 176.2V176.04H407.084ZM407.084 169.4V173.96H402.924V173.8C404.044 173.8 404.87 173.48 405.404 172.84C405.937 172.147 406.204 171.347 406.204 170.44V169.4H407.084ZM410.764 153.24V158.76H409.884V157.56C409.884 156.44 409.51 155.48 408.764 154.68C408.07 153.88 407.11 153.48 405.884 153.48V153.24H410.764ZM410.764 149.72V151.8L401.644 151C403.297 151 405.057 150.867 406.924 150.6C408.79 150.28 410.07 149.987 410.764 149.72ZM384.364 193.88L385.404 199H378.444V198.2C378.444 198.2 378.63 198.2 379.004 198.2C379.377 198.2 379.564 198.2 379.564 198.2C380.897 198.2 381.99 197.773 382.844 196.92C383.697 196.067 384.15 195.053 384.204 193.88H384.364ZM384.364 156.04H384.204C384.15 154.813 383.697 153.8 382.844 153C381.99 152.2 380.897 151.8 379.564 151.8C379.564 151.8 379.377 151.8 379.004 151.8C378.63 151.8 378.444 151.8 378.444 151.8V151H385.404L384.364 156.04ZM448.756 151H457.636C461.369 151 464.596 151.56 467.316 152.68C470.036 153.747 472.142 155.32 473.636 157.4C475.129 159.427 475.876 161.853 475.876 164.68C475.876 167.72 475.182 170.333 473.796 172.52C472.462 174.653 470.676 176.307 468.436 177.48C466.196 178.6 463.716 179.16 460.996 179.16C458.276 179.107 455.556 178.413 452.836 177.08V176.28C452.836 176.28 453.262 176.36 454.116 176.52C455.022 176.68 456.169 176.76 457.556 176.76C458.942 176.707 460.409 176.467 461.956 176.04C463.502 175.56 464.942 174.707 466.276 173.48C467.662 172.253 468.756 170.493 469.556 168.2C469.769 167.613 469.902 166.92 469.956 166.12C470.062 165.32 470.116 164.573 470.116 163.88C470.116 160.627 468.996 158.067 466.756 156.2C464.516 154.333 461.422 153.4 457.476 153.4H449.636C449.636 153.4 449.556 153.213 449.396 152.84C449.289 152.413 449.156 152.013 448.996 151.64C448.836 151.213 448.756 151 448.756 151ZM449.796 151V199H444.676V151H449.796ZM444.836 193.88L445.876 199H438.916V198.2C438.916 198.2 439.102 198.2 439.476 198.2C439.849 198.2 440.036 198.2 440.036 198.2C441.316 198.2 442.382 197.773 443.236 196.92C444.142 196.067 444.622 195.053 444.676 193.88H444.836ZM444.836 156.04H444.676C444.622 154.813 444.142 153.8 443.236 153C442.382 152.2 441.316 151.8 440.036 151.8C440.036 151.8 439.849 151.8 439.476 151.8C439.102 151.8 438.916 151.8 438.916 151.8V151H445.876L444.836 156.04ZM449.556 193.88H449.716C449.769 195.053 450.222 196.067 451.076 196.92C451.982 197.773 453.076 198.2 454.356 198.2C454.409 198.2 454.596 198.2 454.916 198.2C455.289 198.2 455.476 198.2 455.476 198.2V199H448.516L449.556 193.88ZM491.294 151H501.614C504.121 151 506.361 151.293 508.334 151.88C510.361 152.467 512.068 153.32 513.454 154.44C514.894 155.56 515.988 156.92 516.734 158.52C517.481 160.12 517.854 161.933 517.854 163.96C517.854 166.2 517.321 168.28 516.254 170.2C515.188 172.12 513.694 173.693 511.774 174.92C509.908 176.147 507.774 176.893 505.374 177.16C506.281 177.533 507.321 178.36 508.494 179.64C509.721 180.92 510.761 182.173 511.614 183.4C511.614 183.4 511.961 183.88 512.654 184.84C513.348 185.747 514.228 186.893 515.294 188.28C516.414 189.613 517.508 190.893 518.574 192.12C519.694 193.347 520.708 194.413 521.614 195.32C522.574 196.227 523.588 196.947 524.654 197.48C525.774 197.96 527.054 198.2 528.494 198.2V199H526.014C523.081 199 520.654 198.627 518.734 197.88C516.868 197.133 515.348 196.227 514.174 195.16C513.001 194.04 511.988 192.973 511.134 191.96C510.921 191.693 510.414 191.027 509.614 189.96C508.868 188.84 508.041 187.64 507.134 186.36C506.228 185.08 505.401 183.933 504.654 182.92C503.908 181.853 503.454 181.213 503.294 181C502.228 179.613 501.001 178.387 499.614 177.32C498.228 176.2 496.761 175.64 495.214 175.64V174.84C495.214 174.84 495.641 174.867 496.494 174.92C497.348 174.92 498.441 174.893 499.774 174.84C501.268 174.787 502.761 174.68 504.254 174.52C505.748 174.307 507.134 173.72 508.414 172.76C509.748 171.8 510.788 170.2 511.534 167.96C511.748 167.373 511.908 166.68 512.014 165.88C512.121 165.08 512.148 164.253 512.094 163.4C512.041 161.907 511.748 160.573 511.214 159.4C510.734 158.227 510.014 157.213 509.054 156.36C508.148 155.507 507.054 154.84 505.774 154.36C504.494 153.88 503.054 153.613 501.454 153.56C498.948 153.453 496.761 153.427 494.894 153.48C493.028 153.533 492.094 153.533 492.094 153.48C492.094 153.427 492.014 153.213 491.854 152.84C491.748 152.413 491.614 152.013 491.454 151.64C491.348 151.213 491.294 151 491.294 151ZM492.254 151V199H487.134V151H492.254ZM487.374 193.88L488.334 199H481.534V198.2C481.534 198.2 481.721 198.2 482.094 198.2C482.468 198.2 482.654 198.2 482.654 198.2C483.934 198.2 485.001 197.773 485.854 196.92C486.708 196.067 487.161 195.053 487.214 193.88H487.374ZM487.374 156.04H487.214C487.161 154.813 486.708 153.8 485.854 153C485.001 152.2 483.934 151.8 482.654 151.8C482.654 151.8 482.468 151.8 482.094 151.8C481.721 151.8 481.534 151.8 481.534 151.8V151H488.334L487.374 156.04ZM492.014 193.88H492.254C492.308 195.053 492.761 196.067 493.614 196.92C494.468 197.773 495.534 198.2 496.814 198.2C496.814 198.2 496.974 198.2 497.294 198.2C497.668 198.2 497.854 198.2 497.854 198.2L497.934 199H491.054L492.014 193.88ZM540.971 151V199H535.851V151H540.971ZM562.491 196.52L562.331 199H540.811V196.52H562.491ZM558.731 173.8V176.2H540.811V173.8H558.731ZM562.411 151V153.48H540.811V151H562.411ZM566.971 187.56L562.571 199H550.411L553.131 196.52C555.797 196.52 557.931 196.147 559.531 195.4C561.184 194.6 562.517 193.533 563.531 192.2C564.544 190.813 565.424 189.267 566.171 187.56H566.971ZM558.731 176.04V180.6H557.851V179.56C557.851 178.653 557.584 177.88 557.051 177.24C556.517 176.547 555.691 176.2 554.571 176.2V176.04H558.731ZM558.731 169.4V173.96H554.571V173.8C555.691 173.8 556.517 173.48 557.051 172.84C557.584 172.147 557.851 171.347 557.851 170.44V169.4H558.731ZM562.411 153.24V158.76H561.531V157.56C561.531 156.44 561.157 155.48 560.411 154.68C559.717 153.88 558.757 153.48 557.531 153.48V153.24H562.411ZM562.411 149.72V151.8L553.291 151C554.944 151 556.704 150.867 558.571 150.6C560.437 150.28 561.717 149.987 562.411 149.72ZM536.011 193.88L537.051 199H530.091V198.2C530.091 198.2 530.277 198.2 530.651 198.2C531.024 198.2 531.211 198.2 531.211 198.2C532.544 198.2 533.637 197.773 534.491 196.92C535.344 196.067 535.797 195.053 535.851 193.88H536.011ZM536.011 156.04H535.851C535.797 154.813 535.344 153.8 534.491 153C533.637 152.2 532.544 151.8 531.211 151.8C531.211 151.8 531.024 151.8 530.651 151.8C530.277 151.8 530.091 151.8 530.091 151.8V151H537.051L536.011 156.04ZM586.483 149.88C587.976 149.88 589.283 149.933 590.403 150.04C591.523 150.147 592.483 150.28 593.283 150.44C594.136 150.547 594.856 150.707 595.443 150.92C596.083 151.08 596.643 151.24 597.123 151.4L597.203 159.32H596.243C596.243 157.133 595.496 155.427 594.003 154.2C592.509 152.92 590.189 152.28 587.043 152.28C584.376 152.28 582.083 153.027 580.163 154.52C578.296 155.96 577.389 157.747 577.443 159.88C577.443 160.573 577.523 161.293 577.683 162.04C577.896 162.733 578.216 163.427 578.643 164.12C579.123 164.813 579.763 165.507 580.563 166.2L596.723 178.68C597.949 179.693 598.856 181 599.443 182.6C600.029 184.147 600.349 185.693 600.403 187.24C600.456 189.587 599.843 191.747 598.563 193.72C597.283 195.693 595.549 197.267 593.363 198.44C591.229 199.56 588.856 200.12 586.243 200.12C584.696 200.12 583.016 199.987 581.203 199.72C579.443 199.453 577.789 199.053 576.243 198.52C574.696 197.933 573.416 197.213 572.403 196.36C572.243 195.613 572.163 194.68 572.163 193.56C572.163 192.387 572.243 191.16 572.403 189.88C572.616 188.6 572.883 187.453 573.203 186.44H574.163C573.949 188.84 574.296 190.893 575.203 192.6C576.109 194.307 577.443 195.613 579.203 196.52C580.963 197.373 583.016 197.773 585.363 197.72C588.669 197.613 591.256 196.787 593.123 195.24C595.043 193.64 596.003 191.533 596.003 188.92C596.003 187.64 595.763 186.493 595.283 185.48C594.856 184.413 594.136 183.427 593.123 182.52L577.123 170.2C575.629 168.92 574.616 167.507 574.083 165.96C573.549 164.413 573.283 162.947 573.283 161.56C573.283 159.373 573.869 157.4 575.043 155.64C576.216 153.88 577.789 152.493 579.763 151.48C581.789 150.413 584.029 149.88 586.483 149.88ZM597.043 150.6L597.123 152.04H591.443V150.6H597.043ZM618.396 151V199H613.276V151H618.396ZM639.916 196.52L639.756 199H618.236V196.52H639.916ZM636.156 173.8V176.2H618.236V173.8H636.156ZM639.836 151V153.48H618.236V151H639.836ZM644.396 187.56L639.996 199H627.836L630.556 196.52C633.222 196.52 635.356 196.147 636.956 195.4C638.609 194.6 639.942 193.533 640.956 192.2C641.969 190.813 642.849 189.267 643.596 187.56H644.396ZM636.156 176.04V180.6H635.276V179.56C635.276 178.653 635.009 177.88 634.476 177.24C633.942 176.547 633.116 176.2 631.996 176.2V176.04H636.156ZM636.156 169.4V173.96H631.996V173.8C633.116 173.8 633.942 173.48 634.476 172.84C635.009 172.147 635.276 171.347 635.276 170.44V169.4H636.156ZM639.836 153.24V158.76H638.956V157.56C638.956 156.44 638.582 155.48 637.836 154.68C637.142 153.88 636.182 153.48 634.956 153.48V153.24H639.836ZM639.836 149.72V151.8L630.716 151C632.369 151 634.129 150.867 635.996 150.6C637.862 150.28 639.142 149.987 639.836 149.72ZM613.436 193.88L614.476 199H607.516V198.2C607.516 198.2 607.702 198.2 608.076 198.2C608.449 198.2 608.636 198.2 608.636 198.2C609.969 198.2 611.062 197.773 611.916 196.92C612.769 196.067 613.222 195.053 613.276 193.88H613.436ZM613.436 156.04H613.276C613.222 154.813 612.769 153.8 611.916 153C611.062 152.2 609.969 151.8 608.636 151.8C608.636 151.8 608.449 151.8 608.076 151.8C607.702 151.8 607.516 151.8 607.516 151.8V151H614.476L613.436 156.04ZM653.828 149.8L698.148 191.56L698.948 200.12L654.628 158.12L653.828 149.8ZM653.988 194.04V199H647.988V198.2C647.988 198.2 648.201 198.2 648.628 198.2C649.108 198.2 649.348 198.2 649.348 198.2C650.574 198.2 651.614 197.8 652.468 197C653.321 196.2 653.748 195.213 653.748 194.04H653.988ZM657.348 194.04C657.348 195.213 657.774 196.2 658.628 197C659.534 197.8 660.574 198.2 661.748 198.2C661.748 198.2 661.961 198.2 662.388 198.2C662.868 198.2 663.108 198.2 663.108 198.2V199H657.108V194.04H657.348ZM653.828 149.8L657.268 154.28L657.348 199H653.748V159.8C653.748 157.08 653.614 154.733 653.348 152.76C653.134 150.787 653.028 149.8 653.028 149.8H653.828ZM698.948 151V189.88C698.948 191.587 699.001 193.24 699.108 194.84C699.214 196.387 699.321 197.667 699.428 198.68C699.588 199.64 699.668 200.12 699.668 200.12H698.948L695.428 195.88V151H698.948ZM698.708 155.96V151H704.708V151.8C704.708 151.8 704.468 151.8 703.988 151.8C703.561 151.8 703.348 151.8 703.348 151.8C702.174 151.8 701.134 152.2 700.228 153C699.374 153.8 698.948 154.787 698.948 155.96H698.708ZM695.428 155.96C695.374 154.787 694.921 153.8 694.068 153C693.214 152.2 692.174 151.8 690.948 151.8C690.948 151.8 690.708 151.8 690.228 151.8C689.801 151.8 689.588 151.8 689.588 151.8V151H695.588V155.96H695.428ZM758.821 178.84L757.941 189.8C756.554 191.933 754.741 193.773 752.501 195.32C750.261 196.867 747.727 198.067 744.901 198.92C742.074 199.72 739.087 200.12 735.941 200.12C730.554 200.067 725.861 199.027 721.861 197C717.914 194.973 714.874 192.093 712.741 188.36C710.607 184.627 709.541 180.173 709.541 175C709.541 169.773 710.607 165.293 712.741 161.56C714.874 157.827 717.914 154.947 721.861 152.92C725.861 150.893 730.554 149.88 735.941 149.88C739.247 149.88 742.581 150.307 745.941 151.16C749.301 152.013 752.207 153.213 754.661 154.76L756.421 166.04H755.701C754.527 161.133 752.154 157.613 748.581 155.48C745.061 153.347 740.821 152.28 735.861 152.28C731.647 152.28 727.994 153.213 724.901 155.08C721.861 156.893 719.487 159.507 717.781 162.92C716.127 166.28 715.301 170.307 715.301 175C715.301 179.587 716.127 183.587 717.781 187C719.487 190.36 721.887 192.973 724.981 194.84C728.074 196.653 731.727 197.587 735.941 197.64C739.941 197.64 743.541 197 746.741 195.72C749.994 194.387 752.634 192.333 754.661 189.56C756.687 186.787 757.834 183.213 758.101 178.84H758.821ZM775.627 151V199H770.507V151H775.627ZM797.147 196.52L796.987 199H775.467V196.52H797.147ZM793.387 173.8V176.2H775.467V173.8H793.387ZM797.067 151V153.48H775.467V151H797.067ZM801.627 187.56L797.227 199H785.067L787.787 196.52C790.454 196.52 792.587 196.147 794.187 195.4C795.84 194.6 797.174 193.533 798.187 192.2C799.2 190.813 800.08 189.267 800.827 187.56H801.627ZM793.387 176.04V180.6H792.507V179.56C792.507 178.653 792.24 177.88 791.707 177.24C791.174 176.547 790.347 176.2 789.227 176.2V176.04H793.387ZM793.387 169.4V173.96H789.227V173.8C790.347 173.8 791.174 173.48 791.707 172.84C792.24 172.147 792.507 171.347 792.507 170.44V169.4H793.387ZM797.067 153.24V158.76H796.187V157.56C796.187 156.44 795.814 155.48 795.067 154.68C794.374 153.88 793.414 153.48 792.187 153.48V153.24H797.067ZM797.067 149.72V151.8L787.947 151C789.6 151 791.36 150.867 793.227 150.6C795.094 150.28 796.374 149.987 797.067 149.72ZM770.667 193.88L771.707 199H764.747V198.2C764.747 198.2 764.934 198.2 765.307 198.2C765.68 198.2 765.867 198.2 765.867 198.2C767.2 198.2 768.294 197.773 769.147 196.92C770 196.067 770.454 195.053 770.507 193.88H770.667ZM770.667 156.04H770.507C770.454 154.813 770 153.8 769.147 153C768.294 152.2 767.2 151.8 765.867 151.8C765.867 151.8 765.68 151.8 765.307 151.8C764.934 151.8 764.747 151.8 764.747 151.8V151H771.707L770.667 156.04Z" fill="url(#paint0_linear_36_22)"/>
<path d="M170.086 222.932C168.914 222.932 168.328 223.381 168.328 224.279C168.328 224.445 168.357 224.621 168.416 224.807C168.484 224.992 168.543 225.188 168.592 225.393L174.202 238.898C174.251 238.996 174.329 239.045 174.437 239.045C174.544 239.045 174.632 238.991 174.7 238.884L177.938 231.267L175.081 224.367C174.905 223.928 174.173 223.508 172.884 223.107C172.503 222.99 172.254 222.932 172.137 222.932C172.029 222.932 171.976 222.893 171.976 222.814V222.463C171.976 222.385 172.015 222.346 172.093 222.346H185.511C185.589 222.346 185.628 222.385 185.628 222.463V222.814C185.628 222.893 185.589 222.932 185.511 222.932H184.969C184.031 222.932 183.318 223.391 182.83 224.309C182.664 224.621 182.493 224.987 182.317 225.407L180.413 229.875L184.163 238.898C184.212 238.996 184.29 239.045 184.397 239.045C184.505 239.045 184.593 238.991 184.661 238.884L190.857 224.309C190.975 224.035 191.033 223.791 191.033 223.576C191.033 223.146 190.472 222.932 189.349 222.932H188.44C188.362 222.932 188.323 222.893 188.323 222.814V222.463C188.323 222.385 188.362 222.346 188.44 222.346H194.959C195.037 222.346 195.076 222.385 195.076 222.463V222.814C195.076 222.893 195.037 222.932 194.959 222.932H194.271C193.841 222.932 193.514 223.083 193.289 223.386C193.074 223.679 192.767 224.284 192.366 225.202L184.837 242.883C184.729 243.117 184.617 243.259 184.5 243.308C184.383 243.366 184.212 243.396 183.987 243.396H183.299C183.064 243.396 182.908 243.288 182.83 243.073L178.875 233.493L174.876 242.883C174.769 243.117 174.656 243.259 174.539 243.308C174.422 243.366 174.251 243.396 174.026 243.396H173.338C173.104 243.396 172.952 243.283 172.884 243.059L165.12 224.367C164.964 223.986 164.48 223.654 163.67 223.371C162.859 223.078 162.356 222.932 162.161 222.932C161.976 222.932 161.883 222.893 161.883 222.814V222.463C161.883 222.385 161.922 222.346 162 222.346H170.35C170.428 222.346 170.467 222.385 170.467 222.463V222.814C170.467 222.893 170.428 222.932 170.35 222.932H170.086ZM181.072 223.62C181.072 223.21 180.652 222.985 179.812 222.946C178.963 222.995 178.475 223.293 178.348 223.84C178.309 223.977 178.289 224.128 178.289 224.294C178.289 224.45 178.318 224.621 178.377 224.807C178.445 224.992 178.504 225.188 178.553 225.393L179.476 227.634L180.896 224.309C181.014 224.035 181.072 223.806 181.072 223.62ZM198.519 235.28C198.353 235.28 198.27 235.637 198.27 236.35C198.27 237.863 198.719 239.133 199.617 240.158C200.516 241.184 201.629 241.696 202.957 241.696C204.295 241.696 205.579 241.12 206.81 239.968C206.829 239.948 206.854 239.938 206.883 239.938H206.956C207.015 239.938 207.068 239.987 207.117 240.085C207.176 240.173 207.229 240.231 207.278 240.261C206.146 241.638 204.812 242.59 203.279 243.117C202.752 243.303 202.156 243.396 201.492 243.396C200.828 243.396 200.154 243.215 199.471 242.854C198.787 242.482 198.201 241.999 197.713 241.403C196.678 240.163 196.16 238.62 196.16 236.774C196.16 234.919 196.722 233.229 197.845 231.706C198.978 230.183 200.53 229.421 202.503 229.421C203.919 229.421 205.076 230.056 205.975 231.325C206.873 232.585 207.322 233.693 207.322 234.65C207.322 235.07 207.22 235.28 207.015 235.28H198.519ZM198.68 233.874C198.68 234.06 198.768 234.152 198.943 234.152H204.466C204.72 234.152 204.847 234.001 204.847 233.698C204.847 232.995 204.529 232.277 203.895 231.545C203.27 230.803 202.581 230.432 201.829 230.432C201.097 230.432 200.428 230.764 199.822 231.428C199.227 232.092 198.846 232.849 198.68 233.698V233.874ZM213.357 230.739C213.357 231.042 213.426 231.193 213.562 231.193C213.709 231.193 214.334 230.876 215.438 230.241C216.727 229.694 217.708 229.421 218.382 229.421C219.056 229.421 219.7 229.616 220.315 230.007C220.931 230.397 221.453 230.91 221.883 231.545C222.791 232.854 223.245 234.44 223.245 236.306C223.245 238.171 222.596 239.821 221.297 241.257C220.008 242.683 218.304 243.396 216.185 243.396C214.808 243.396 213.538 243.229 212.376 242.897C212.034 242.8 211.741 242.722 211.497 242.663C211.263 242.604 211.131 242.546 211.102 242.487C211.082 242.419 211.072 242.341 211.072 242.253V222.507C211.072 222.097 210.848 221.813 210.398 221.657C210.203 221.589 209.993 221.535 209.769 221.496C209.544 221.447 209.363 221.403 209.227 221.364C209.1 221.325 209.017 221.291 208.978 221.262C208.948 221.223 208.934 221.149 208.934 221.042C208.934 220.925 209.007 220.827 209.153 220.749L212.889 218.991C213.006 218.933 213.079 218.903 213.108 218.903C213.274 218.903 213.357 219.021 213.357 219.255V230.739ZM216.463 231.208C215.594 231.208 214.617 231.521 213.533 232.146C213.416 232.214 213.357 232.331 213.357 232.497V239.426C213.455 240.314 213.841 241.008 214.515 241.506C215.188 242.004 215.926 242.253 216.727 242.253C218.133 242.253 219.217 241.696 219.979 240.583C220.75 239.47 221.136 238.2 221.136 236.774C221.136 235.349 220.745 234.064 219.964 232.922C219.183 231.779 218.016 231.208 216.463 231.208ZM233.001 232.98C233.001 233.195 232.918 233.303 232.752 233.303C232.596 233.303 232.474 233.186 232.386 232.951C232.151 232.307 231.8 231.735 231.331 231.237C230.872 230.739 230.301 230.49 229.617 230.49C228.719 230.49 228.113 230.939 227.801 231.838C227.703 232.141 227.654 232.453 227.654 232.775C227.654 233.098 227.859 233.459 228.27 233.859C228.68 234.25 229.354 234.719 230.291 235.266C231.229 235.812 231.912 236.276 232.342 236.657C233.318 237.526 233.807 238.532 233.807 239.675C233.807 240.817 233.387 241.726 232.547 242.399C231.707 243.063 230.73 243.396 229.617 243.396C229.021 243.396 228.479 243.312 227.991 243.146C227.513 242.99 227.234 242.912 227.156 242.912C227.088 242.912 226.971 242.99 226.805 243.146C226.648 243.312 226.521 243.396 226.424 243.396H226.175C226.116 243.396 226.043 242.868 225.955 241.813C225.867 240.759 225.823 240.134 225.823 239.938C225.823 239.743 225.838 239.636 225.867 239.616C225.906 239.597 225.965 239.587 226.043 239.587C226.121 239.587 226.185 239.611 226.233 239.66C226.292 239.709 226.341 239.772 226.38 239.851C226.419 239.919 226.448 239.992 226.468 240.07C226.497 240.148 226.561 240.295 226.658 240.51C227.322 241.926 228.348 242.634 229.734 242.634C230.35 242.634 230.843 242.409 231.214 241.96C231.585 241.501 231.771 240.993 231.771 240.437C231.771 239.88 231.624 239.411 231.331 239.03C231.038 238.649 230.672 238.303 230.232 237.99C229.803 237.678 229.334 237.375 228.826 237.082C226.854 235.93 225.867 234.655 225.867 233.259C225.867 232.214 226.316 231.315 227.215 230.563C228.113 229.802 229.036 229.421 229.983 229.421C230.931 229.421 231.629 229.523 232.078 229.729C232.537 229.934 232.806 230.109 232.884 230.256C232.962 230.393 233.001 230.852 233.001 231.633V232.98ZM235.945 243C235.848 242.98 235.799 242.912 235.799 242.795C235.799 242.619 236.028 242.502 236.487 242.443C237.542 242.287 238.069 241.73 238.069 240.773V233.024C238.069 232.614 237.845 232.331 237.396 232.175C237.2 232.106 236.99 232.053 236.766 232.014C236.541 231.965 236.36 231.921 236.224 231.882C236.097 231.843 236.014 231.809 235.975 231.779C235.945 231.74 235.931 231.667 235.931 231.56C235.931 231.442 236.004 231.345 236.15 231.267L239.886 229.509C240.003 229.45 240.076 229.421 240.105 229.421C240.271 229.421 240.354 229.538 240.354 229.772V240.773C240.354 241.73 240.882 242.287 241.937 242.443C242.396 242.502 242.625 242.604 242.625 242.751C242.625 242.897 242.576 242.98 242.479 243H235.945ZM238.992 225.305C238.592 225.305 238.235 225.178 237.923 224.924C237.62 224.67 237.469 224.318 237.469 223.869C237.469 223.41 237.615 223.049 237.908 222.785C238.201 222.521 238.548 222.39 238.948 222.39C239.358 222.39 239.7 222.546 239.974 222.858C240.257 223.171 240.398 223.508 240.398 223.869C240.398 224.23 240.267 224.562 240.003 224.865C239.739 225.158 239.402 225.305 238.992 225.305ZM247.942 231.735C247.884 231.735 247.854 231.779 247.854 231.867V239.953C247.854 240.539 247.981 240.998 248.235 241.33C248.499 241.662 248.831 241.828 249.231 241.828C249.632 241.828 249.979 241.765 250.271 241.638C250.574 241.501 250.833 241.354 251.048 241.198C251.272 241.042 251.473 240.9 251.648 240.773C251.824 240.637 251.98 240.568 252.117 240.568C252.254 240.568 252.322 240.603 252.322 240.671C252.322 240.905 252.298 241.057 252.249 241.125C251.077 242.639 249.944 243.396 248.851 243.396C247.767 243.396 246.946 243.054 246.39 242.37C245.843 241.677 245.569 240.852 245.569 239.895V231.735H244.471C244.197 231.735 244.051 231.647 244.031 231.472C244.021 231.296 244.051 231.184 244.119 231.135C244.637 230.803 245.35 230.207 246.258 229.348C246.355 229.24 246.487 229.079 246.653 228.864C246.819 228.649 247.059 228.356 247.371 227.985C247.693 227.614 247.938 227.429 248.104 227.429C248.27 227.429 248.353 227.497 248.353 227.634C248.353 227.653 248.187 228.293 247.854 229.553C247.854 229.729 247.933 229.821 248.089 229.831H251.824C252.254 229.831 252.469 230.437 252.469 231.647C252.469 231.706 252.43 231.735 252.352 231.735H247.942ZM256.233 235.28C256.067 235.28 255.984 235.637 255.984 236.35C255.984 237.863 256.434 239.133 257.332 240.158C258.23 241.184 259.344 241.696 260.672 241.696C262.01 241.696 263.294 241.12 264.524 239.968C264.544 239.948 264.568 239.938 264.598 239.938H264.671C264.729 239.938 264.783 239.987 264.832 240.085C264.891 240.173 264.944 240.231 264.993 240.261C263.86 241.638 262.527 242.59 260.994 243.117C260.467 243.303 259.871 243.396 259.207 243.396C258.543 243.396 257.869 243.215 257.186 242.854C256.502 242.482 255.916 241.999 255.428 241.403C254.393 240.163 253.875 238.62 253.875 236.774C253.875 234.919 254.437 233.229 255.56 231.706C256.692 230.183 258.245 229.421 260.218 229.421C261.634 229.421 262.791 230.056 263.689 231.325C264.588 232.585 265.037 233.693 265.037 234.65C265.037 235.07 264.935 235.28 264.729 235.28H256.233ZM256.395 233.874C256.395 234.06 256.482 234.152 256.658 234.152H262.181C262.435 234.152 262.562 234.001 262.562 233.698C262.562 232.995 262.244 232.277 261.609 231.545C260.984 230.803 260.296 230.432 259.544 230.432C258.812 230.432 258.143 230.764 257.537 231.428C256.941 232.092 256.561 232.849 256.395 233.698V233.874Z" fill="black"/>
<path d="M651.703 243C651.625 243 651.586 242.961 651.586 242.883V242.531C651.586 242.453 651.625 242.414 651.703 242.414H652.055C652.895 242.414 653.627 242.238 654.252 241.887C654.506 241.74 654.716 241.516 654.882 241.213C655.048 240.9 655.131 240.554 655.131 240.173V224.675C655.131 224.069 654.74 223.605 653.959 223.283C653.412 223.049 652.831 222.932 652.216 222.932H651.894C651.815 222.932 651.776 222.893 651.776 222.814V222.463C651.776 222.385 651.815 222.346 651.894 222.346H661.811C661.889 222.346 661.928 222.385 661.928 222.463V222.814C661.928 222.893 661.889 222.932 661.811 222.932H661.181C660.175 222.932 659.286 223.073 658.515 223.356C658.29 223.435 658.144 223.566 658.075 223.752C658.017 223.928 657.987 224.235 657.987 224.675V240.92C658.007 241.086 658.095 241.242 658.251 241.389C658.407 241.535 658.583 241.608 658.778 241.608H664.564C665.434 241.608 666.288 241.096 667.128 240.07C667.353 239.797 667.631 239.436 667.963 238.986C668.295 238.527 668.5 238.269 668.578 238.21C668.891 237.976 669.047 237.98 669.047 238.225C669.047 238.283 669.032 238.342 669.003 238.4L666.791 242.736C666.703 242.912 666.601 243 666.483 243H651.703ZM672.548 235.28C672.382 235.28 672.299 235.637 672.299 236.35C672.299 237.863 672.748 239.133 673.646 240.158C674.545 241.184 675.658 241.696 676.986 241.696C678.324 241.696 679.608 241.12 680.839 239.968C680.858 239.948 680.883 239.938 680.912 239.938H680.985C681.044 239.938 681.098 239.987 681.146 240.085C681.205 240.173 681.259 240.231 681.308 240.261C680.175 241.638 678.842 242.59 677.309 243.117C676.781 243.303 676.186 243.396 675.521 243.396C674.857 243.396 674.184 243.215 673.5 242.854C672.816 242.482 672.23 241.999 671.742 241.403C670.707 240.163 670.189 238.62 670.189 236.774C670.189 234.919 670.751 233.229 671.874 231.706C673.007 230.183 674.56 229.421 676.532 229.421C677.948 229.421 679.105 230.056 680.004 231.325C680.902 232.585 681.352 233.693 681.352 234.65C681.352 235.07 681.249 235.28 681.044 235.28H672.548ZM672.709 233.874C672.709 234.06 672.797 234.152 672.973 234.152H678.495C678.749 234.152 678.876 234.001 678.876 233.698C678.876 232.995 678.559 232.277 677.924 231.545C677.299 230.803 676.61 230.432 675.858 230.432C675.126 230.432 674.457 230.764 673.852 231.428C673.256 232.092 672.875 232.849 672.709 233.698V233.874ZM692.865 240.583C692.865 240.837 692.982 241.042 693.217 241.198C693.461 241.345 693.739 241.418 694.052 241.418C694.364 241.418 694.623 241.34 694.828 241.184C695.043 241.018 695.189 240.935 695.268 240.935C695.346 240.935 695.385 241.042 695.385 241.257C695.385 241.462 695.287 241.638 695.092 241.784C693.627 242.858 692.636 243.396 692.118 243.396C691.493 243.396 690.985 242.746 690.595 241.447C690.565 241.35 690.541 241.306 690.521 241.315C689.311 242.224 688.549 242.771 688.236 242.956C687.436 243.415 686.63 243.488 685.819 243.176C685.019 242.863 684.438 242.346 684.076 241.623C683.9 241.252 683.812 240.856 683.812 240.437C683.812 239.606 684.12 238.947 684.735 238.459C685.351 237.971 686.522 237.502 688.251 237.053C688.837 236.896 689.359 236.696 689.818 236.452C690.277 236.208 690.517 236.052 690.536 235.983C690.565 235.915 690.58 235.852 690.58 235.793V232.98C690.58 231.877 690.15 231.101 689.291 230.651C689.008 230.505 688.666 230.432 688.266 230.432C687.875 230.432 687.475 230.588 687.064 230.9C686.664 231.213 686.464 231.657 686.464 232.233L686.537 232.805C686.479 232.922 686.127 233.117 685.482 233.391C684.838 233.664 684.467 233.811 684.369 233.83C684.213 233.83 684.135 233.645 684.135 233.273C684.135 232.893 684.247 232.473 684.472 232.014C684.696 231.555 685.014 231.135 685.424 230.754C686.381 229.865 687.475 229.421 688.705 229.421C689.936 229.421 690.937 229.763 691.708 230.446C692.479 231.12 692.865 231.926 692.865 232.863V240.583ZM686.112 240.158C686.112 240.627 686.293 241.037 686.654 241.389C687.016 241.73 687.426 241.901 687.885 241.901C688.354 241.901 688.92 241.706 689.584 241.315C690.248 240.915 690.58 240.505 690.58 240.085V237.111C690.58 237.004 690.556 236.95 690.507 236.95C690.458 236.95 690.424 236.955 690.404 236.965L687.006 238.547C686.654 238.801 686.415 239.016 686.288 239.191C686.171 239.367 686.112 239.689 686.112 240.158ZM705.829 230.036C706.259 230.183 706.522 230.256 706.62 230.256C706.718 230.256 706.776 230.256 706.796 230.256C706.825 230.246 706.859 230.183 706.898 230.065V222.507C706.898 222.097 706.674 221.813 706.225 221.657C706.029 221.589 705.819 221.535 705.595 221.496C705.37 221.447 705.189 221.403 705.053 221.364C704.926 221.325 704.843 221.291 704.804 221.262C704.774 221.223 704.76 221.149 704.76 221.042C704.76 220.925 704.833 220.827 704.979 220.749L708.715 218.991C708.832 218.933 708.905 218.903 708.935 218.903C709.101 218.903 709.184 219.021 709.184 219.255V240.114C709.232 240.544 709.354 240.852 709.55 241.037C709.745 241.223 710.062 241.315 710.502 241.315L711.352 241.257C711.41 241.257 711.439 241.315 711.439 241.433C711.439 241.54 711.366 241.628 711.22 241.696L707.323 243.308C707.206 243.366 707.104 243.396 707.016 243.396C706.938 243.396 706.898 243.273 706.898 243.029V241.696C706.898 241.599 706.874 241.55 706.825 241.55C706.757 241.55 706.352 241.77 705.609 242.209C703.334 243.557 701.415 243.757 699.853 242.81C698.603 242.048 697.758 240.842 697.318 239.191C697.113 238.42 697.011 237.604 697.011 236.745C697.011 235.876 697.187 235.017 697.538 234.167C697.899 233.308 698.393 232.556 699.018 231.911C700.395 230.505 702.055 229.802 703.998 229.802C704.789 229.802 705.399 229.88 705.829 230.036ZM699.223 236.32C699.223 237.795 699.633 239.089 700.453 240.202C701.273 241.306 702.416 241.857 703.881 241.857C704.525 241.857 705.189 241.701 705.873 241.389C706.557 241.066 706.898 240.822 706.898 240.656V233.098C706.898 232.912 706.771 232.692 706.518 232.438C705.736 231.364 704.696 230.827 703.397 230.827C702.108 230.827 701.088 231.374 700.336 232.468C699.594 233.552 699.223 234.836 699.223 236.32ZM721.254 243C721.176 243 721.137 242.902 721.137 242.707V242.531C721.137 242.453 721.186 242.414 721.283 242.414C721.381 242.414 721.522 242.385 721.708 242.326C721.903 242.268 722.05 242.229 722.147 242.209C723.144 241.984 723.642 241.418 723.642 240.51V225.041C723.642 224.143 723.476 223.571 723.144 223.327C722.812 223.073 722.211 222.946 721.342 222.946H720.683C720.478 222.946 720.375 222.829 720.375 222.595C720.375 222.458 720.438 222.375 720.565 222.346H720.668L728.886 222.126H730.365C732.113 222.243 733.568 222.873 734.73 224.016C735.893 225.158 736.474 226.53 736.474 228.132C736.474 229.724 735.902 231.169 734.76 232.468C734.262 233.044 733.7 233.513 733.075 233.874C732.45 234.226 731.835 234.406 731.229 234.416L726.835 234.24H726.718C726.571 234.24 726.498 234.309 726.498 234.445V240.466C726.498 241.003 726.645 241.398 726.938 241.652C727.23 241.906 727.851 242.106 728.798 242.253C728.925 242.272 729.13 242.307 729.413 242.355C729.696 242.395 729.887 242.414 729.984 242.414C730.082 242.414 730.131 242.453 730.131 242.531V242.883C730.131 242.961 730.092 243 730.014 243H721.254ZM727.685 222.873C727.567 222.873 727.44 222.878 727.304 222.888C727.177 222.888 727.011 222.893 726.806 222.902C726.601 222.902 726.498 222.98 726.498 223.137V232.585L726.527 233.024C726.557 233.229 726.649 233.337 726.806 233.347L728.3 233.435C729.872 233.435 731.137 232.907 732.094 231.853C733.061 230.798 733.544 229.475 733.544 227.883C733.544 226.281 733.075 225.041 732.138 224.162C731.21 223.283 729.97 222.844 728.417 222.844C728.28 222.844 728.153 222.849 728.036 222.858C727.919 222.858 727.802 222.863 727.685 222.873ZM747.621 240.583C747.621 240.837 747.738 241.042 747.973 241.198C748.217 241.345 748.495 241.418 748.808 241.418C749.12 241.418 749.379 241.34 749.584 241.184C749.799 241.018 749.945 240.935 750.023 240.935C750.102 240.935 750.141 241.042 750.141 241.257C750.141 241.462 750.043 241.638 749.848 241.784C748.383 242.858 747.392 243.396 746.874 243.396C746.249 243.396 745.741 242.746 745.351 241.447C745.321 241.35 745.297 241.306 745.277 241.315C744.066 242.224 743.305 242.771 742.992 242.956C742.191 243.415 741.386 243.488 740.575 243.176C739.774 242.863 739.193 242.346 738.832 241.623C738.656 241.252 738.568 240.856 738.568 240.437C738.568 239.606 738.876 238.947 739.491 238.459C740.106 237.971 741.278 237.502 743.007 237.053C743.593 236.896 744.115 236.696 744.574 236.452C745.033 236.208 745.272 236.052 745.292 235.983C745.321 235.915 745.336 235.852 745.336 235.793V232.98C745.336 231.877 744.906 231.101 744.047 230.651C743.764 230.505 743.422 230.432 743.021 230.432C742.631 230.432 742.23 230.588 741.82 230.9C741.42 231.213 741.22 231.657 741.22 232.233L741.293 232.805C741.234 232.922 740.883 233.117 740.238 233.391C739.594 233.664 739.223 233.811 739.125 233.83C738.969 233.83 738.891 233.645 738.891 233.273C738.891 232.893 739.003 232.473 739.228 232.014C739.452 231.555 739.77 231.135 740.18 230.754C741.137 229.865 742.23 229.421 743.461 229.421C744.691 229.421 745.692 229.763 746.464 230.446C747.235 231.12 747.621 231.926 747.621 232.863V240.583ZM740.868 240.158C740.868 240.627 741.049 241.037 741.41 241.389C741.771 241.73 742.182 241.901 742.641 241.901C743.109 241.901 743.676 241.706 744.34 241.315C745.004 240.915 745.336 240.505 745.336 240.085V237.111C745.336 237.004 745.312 236.95 745.263 236.95C745.214 236.95 745.18 236.955 745.16 236.965L741.762 238.547C741.41 238.801 741.171 239.016 741.044 239.191C740.927 239.367 740.868 239.689 740.868 240.158ZM762.519 230.827C762.519 230.827 763.827 230.769 766.444 230.651C766.669 230.651 766.815 230.676 766.884 230.725C766.952 230.773 767.025 230.944 767.104 231.237C767.182 231.521 767.221 231.789 767.221 232.043C767.221 232.297 767.196 232.443 767.147 232.482C767.099 232.521 767.001 232.541 766.854 232.541H763.603C763.661 232.648 763.725 232.761 763.793 232.878C763.861 232.995 763.949 233.19 764.057 233.464C764.164 233.737 764.218 234.162 764.218 234.738C764.218 235.305 764.076 235.9 763.793 236.525C763.52 237.141 763.114 237.688 762.577 238.166C761.386 239.24 759.843 239.777 757.948 239.777C757.45 239.777 756.903 239.685 756.308 239.499C756.161 239.655 755.966 239.802 755.722 239.938C755.478 240.065 755.238 240.197 755.004 240.334C754.418 240.666 754.125 240.998 754.125 241.33C754.125 242.16 755.502 242.585 758.256 242.604C761.01 242.624 762.816 242.717 763.676 242.883C764.545 243.039 765.219 243.356 765.697 243.835C766.449 244.587 766.825 245.446 766.825 246.413C766.825 247.243 766.469 248.098 765.756 248.977C764.516 250.529 762.621 251.564 760.072 252.082C759.164 252.268 758.202 252.36 757.187 252.36C755.341 252.36 753.939 252.023 752.982 251.35C752.025 250.686 751.547 249.88 751.547 248.933C751.547 248.415 751.669 247.985 751.913 247.644C752.157 247.312 752.465 246.994 752.836 246.691C753.217 246.398 753.632 246.086 754.081 245.754C754.53 245.432 754.96 245.017 755.37 244.509C754.433 244.431 753.627 244.133 752.953 243.615C752.289 243.098 751.957 242.59 751.957 242.092C751.957 241.594 752.089 241.228 752.353 240.993C752.616 240.749 752.938 240.544 753.319 240.378C753.7 240.202 754.101 240.041 754.521 239.895C754.94 239.748 755.307 239.558 755.619 239.323C754.525 238.894 753.681 238.303 753.085 237.551C752.489 236.789 752.191 235.959 752.191 235.061C752.191 233.391 752.797 232.028 754.008 230.974C755.229 229.919 756.698 229.392 758.417 229.392C760.136 229.392 761.503 229.87 762.519 230.827ZM754.55 246.105C754.325 246.33 754.14 246.569 753.993 246.823C753.847 247.077 753.773 247.395 753.773 247.775C753.773 248.166 753.91 248.571 754.184 248.991C754.467 249.421 754.848 249.807 755.326 250.148C756.381 250.93 757.65 251.32 759.135 251.32C760.619 251.32 761.962 250.886 763.163 250.017C764.374 249.157 764.979 248.21 764.979 247.175C764.979 246.149 764.481 245.461 763.485 245.109C763.017 244.953 761.811 244.855 759.867 244.816C757.924 244.777 756.664 244.724 756.088 244.655C755.834 244.948 755.57 245.207 755.297 245.432C755.033 245.656 754.784 245.881 754.55 246.105ZM761.815 234.724C761.815 233.347 761.469 232.229 760.775 231.369C760.092 230.5 759.184 230.065 758.051 230.065C756.586 230.065 755.551 230.754 754.945 232.131C754.711 232.658 754.594 233.264 754.594 233.947C754.594 235.344 754.882 236.506 755.458 237.434C756.161 238.547 757.084 239.104 758.227 239.104C759.369 239.104 760.253 238.718 760.878 237.946C761.503 237.175 761.815 236.101 761.815 234.724ZM770.722 235.28C770.556 235.28 770.473 235.637 770.473 236.35C770.473 237.863 770.922 239.133 771.82 240.158C772.719 241.184 773.832 241.696 775.16 241.696C776.498 241.696 777.782 241.12 779.013 239.968C779.032 239.948 779.057 239.938 779.086 239.938H779.159C779.218 239.938 779.271 239.987 779.32 240.085C779.379 240.173 779.433 240.231 779.481 240.261C778.349 241.638 777.016 242.59 775.482 243.117C774.955 243.303 774.359 243.396 773.695 243.396C773.031 243.396 772.357 243.215 771.674 242.854C770.99 242.482 770.404 241.999 769.916 241.403C768.881 240.163 768.363 238.62 768.363 236.774C768.363 234.919 768.925 233.229 770.048 231.706C771.181 230.183 772.733 229.421 774.706 229.421C776.122 229.421 777.279 230.056 778.178 231.325C779.076 232.585 779.525 233.693 779.525 234.65C779.525 235.07 779.423 235.28 779.218 235.28H770.722ZM770.883 233.874C770.883 234.06 770.971 234.152 771.146 234.152H776.669C776.923 234.152 777.05 234.001 777.05 233.698C777.05 232.995 776.732 232.277 776.098 231.545C775.473 230.803 774.784 230.432 774.032 230.432C773.3 230.432 772.631 230.764 772.025 231.428C771.43 232.092 771.049 232.849 770.883 233.698V233.874Z" fill="black"/>
<path d="M170.086 222.932C168.914 222.932 168.328 223.381 168.328 224.279C168.328 224.445 168.357 224.621 168.416 224.807C168.484 224.992 168.543 225.188 168.592 225.393L174.202 238.898C174.251 238.996 174.329 239.045 174.437 239.045C174.544 239.045 174.632 238.991 174.7 238.884L177.938 231.267L175.081 224.367C174.905 223.928 174.173 223.508 172.884 223.107C172.503 222.99 172.254 222.932 172.137 222.932C172.029 222.932 171.976 222.893 171.976 222.814V222.463C171.976 222.385 172.015 222.346 172.093 222.346H185.511C185.589 222.346 185.628 222.385 185.628 222.463V222.814C185.628 222.893 185.589 222.932 185.511 222.932H184.969C184.031 222.932 183.318 223.391 182.83 224.309C182.664 224.621 182.493 224.987 182.317 225.407L180.413 229.875L184.163 238.898C184.212 238.996 184.29 239.045 184.397 239.045C184.505 239.045 184.593 238.991 184.661 238.884L190.857 224.309C190.975 224.035 191.033 223.791 191.033 223.576C191.033 223.146 190.472 222.932 189.349 222.932H188.44C188.362 222.932 188.323 222.893 188.323 222.814V222.463C188.323 222.385 188.362 222.346 188.44 222.346H194.959C195.037 222.346 195.076 222.385 195.076 222.463V222.814C195.076 222.893 195.037 222.932 194.959 222.932H194.271C193.841 222.932 193.514 223.083 193.289 223.386C193.074 223.679 192.767 224.284 192.366 225.202L184.837 242.883C184.729 243.117 184.617 243.259 184.5 243.308C184.383 243.366 184.212 243.396 183.987 243.396H183.299C183.064 243.396 182.908 243.288 182.83 243.073L178.875 233.493L174.876 242.883C174.769 243.117 174.656 243.259 174.539 243.308C174.422 243.366 174.251 243.396 174.026 243.396H173.338C173.104 243.396 172.952 243.283 172.884 243.059L165.12 224.367C164.964 223.986 164.48 223.654 163.67 223.371C162.859 223.078 162.356 222.932 162.161 222.932C161.976 222.932 161.883 222.893 161.883 222.814V222.463C161.883 222.385 161.922 222.346 162 222.346H170.35C170.428 222.346 170.467 222.385 170.467 222.463V222.814C170.467 222.893 170.428 222.932 170.35 222.932H170.086ZM181.072 223.62C181.072 223.21 180.652 222.985 179.812 222.946C178.963 222.995 178.475 223.293 178.348 223.84C178.309 223.977 178.289 224.128 178.289 224.294C178.289 224.45 178.318 224.621 178.377 224.807C178.445 224.992 178.504 225.188 178.553 225.393L179.476 227.634L180.896 224.309C181.014 224.035 181.072 223.806 181.072 223.62ZM198.519 235.28C198.353 235.28 198.27 235.637 198.27 236.35C198.27 237.863 198.719 239.133 199.617 240.158C200.516 241.184 201.629 241.696 202.957 241.696C204.295 241.696 205.579 241.12 206.81 239.968C206.829 239.948 206.854 239.938 206.883 239.938H206.956C207.015 239.938 207.068 239.987 207.117 240.085C207.176 240.173 207.229 240.231 207.278 240.261C206.146 241.638 204.812 242.59 203.279 243.117C202.752 243.303 202.156 243.396 201.492 243.396C200.828 243.396 200.154 243.215 199.471 242.854C198.787 242.482 198.201 241.999 197.713 241.403C196.678 240.163 196.16 238.62 196.16 236.774C196.16 234.919 196.722 233.229 197.845 231.706C198.978 230.183 200.53 229.421 202.503 229.421C203.919 229.421 205.076 230.056 205.975 231.325C206.873 232.585 207.322 233.693 207.322 234.65C207.322 235.07 207.22 235.28 207.015 235.28H198.519ZM198.68 233.874C198.68 234.06 198.768 234.152 198.943 234.152H204.466C204.72 234.152 204.847 234.001 204.847 233.698C204.847 232.995 204.529 232.277 203.895 231.545C203.27 230.803 202.581 230.432 201.829 230.432C201.097 230.432 200.428 230.764 199.822 231.428C199.227 232.092 198.846 232.849 198.68 233.698V233.874ZM213.357 230.739C213.357 231.042 213.426 231.193 213.562 231.193C213.709 231.193 214.334 230.876 215.438 230.241C216.727 229.694 217.708 229.421 218.382 229.421C219.056 229.421 219.7 229.616 220.315 230.007C220.931 230.397 221.453 230.91 221.883 231.545C222.791 232.854 223.245 234.44 223.245 236.306C223.245 238.171 222.596 239.821 221.297 241.257C220.008 242.683 218.304 243.396 216.185 243.396C214.808 243.396 213.538 243.229 212.376 242.897C212.034 242.8 211.741 242.722 211.497 242.663C211.263 242.604 211.131 242.546 211.102 242.487C211.082 242.419 211.072 242.341 211.072 242.253V222.507C211.072 222.097 210.848 221.813 210.398 221.657C210.203 221.589 209.993 221.535 209.769 221.496C209.544 221.447 209.363 221.403 209.227 221.364C209.1 221.325 209.017 221.291 208.978 221.262C208.948 221.223 208.934 221.149 208.934 221.042C208.934 220.925 209.007 220.827 209.153 220.749L212.889 218.991C213.006 218.933 213.079 218.903 213.108 218.903C213.274 218.903 213.357 219.021 213.357 219.255V230.739ZM216.463 231.208C215.594 231.208 214.617 231.521 213.533 232.146C213.416 232.214 213.357 232.331 213.357 232.497V239.426C213.455 240.314 213.841 241.008 214.515 241.506C215.188 242.004 215.926 242.253 216.727 242.253C218.133 242.253 219.217 241.696 219.979 240.583C220.75 239.47 221.136 238.2 221.136 236.774C221.136 235.349 220.745 234.064 219.964 232.922C219.183 231.779 218.016 231.208 216.463 231.208ZM233.001 232.98C233.001 233.195 232.918 233.303 232.752 233.303C232.596 233.303 232.474 233.186 232.386 232.951C232.151 232.307 231.8 231.735 231.331 231.237C230.872 230.739 230.301 230.49 229.617 230.49C228.719 230.49 228.113 230.939 227.801 231.838C227.703 232.141 227.654 232.453 227.654 232.775C227.654 233.098 227.859 233.459 228.27 233.859C228.68 234.25 229.354 234.719 230.291 235.266C231.229 235.812 231.912 236.276 232.342 236.657C233.318 237.526 233.807 238.532 233.807 239.675C233.807 240.817 233.387 241.726 232.547 242.399C231.707 243.063 230.73 243.396 229.617 243.396C229.021 243.396 228.479 243.312 227.991 243.146C227.513 242.99 227.234 242.912 227.156 242.912C227.088 242.912 226.971 242.99 226.805 243.146C226.648 243.312 226.521 243.396 226.424 243.396H226.175C226.116 243.396 226.043 242.868 225.955 241.813C225.867 240.759 225.823 240.134 225.823 239.938C225.823 239.743 225.838 239.636 225.867 239.616C225.906 239.597 225.965 239.587 226.043 239.587C226.121 239.587 226.185 239.611 226.233 239.66C226.292 239.709 226.341 239.772 226.38 239.851C226.419 239.919 226.448 239.992 226.468 240.07C226.497 240.148 226.561 240.295 226.658 240.51C227.322 241.926 228.348 242.634 229.734 242.634C230.35 242.634 230.843 242.409 231.214 241.96C231.585 241.501 231.771 240.993 231.771 240.437C231.771 239.88 231.624 239.411 231.331 239.03C231.038 238.649 230.672 238.303 230.232 237.99C229.803 237.678 229.334 237.375 228.826 237.082C226.854 235.93 225.867 234.655 225.867 233.259C225.867 232.214 226.316 231.315 227.215 230.563C228.113 229.802 229.036 229.421 229.983 229.421C230.931 229.421 231.629 229.523 232.078 229.729C232.537 229.934 232.806 230.109 232.884 230.256C232.962 230.393 233.001 230.852 233.001 231.633V232.98ZM235.945 243C235.848 242.98 235.799 242.912 235.799 242.795C235.799 242.619 236.028 242.502 236.487 242.443C237.542 242.287 238.069 241.73 238.069 240.773V233.024C238.069 232.614 237.845 232.331 237.396 232.175C237.2 232.106 236.99 232.053 236.766 232.014C236.541 231.965 236.36 231.921 236.224 231.882C236.097 231.843 236.014 231.809 235.975 231.779C235.945 231.74 235.931 231.667 235.931 231.56C235.931 231.442 236.004 231.345 236.15 231.267L239.886 229.509C240.003 229.45 240.076 229.421 240.105 229.421C240.271 229.421 240.354 229.538 240.354 229.772V240.773C240.354 241.73 240.882 242.287 241.937 242.443C242.396 242.502 242.625 242.604 242.625 242.751C242.625 242.897 242.576 242.98 242.479 243H235.945ZM238.992 225.305C238.592 225.305 238.235 225.178 237.923 224.924C237.62 224.67 237.469 224.318 237.469 223.869C237.469 223.41 237.615 223.049 237.908 222.785C238.201 222.521 238.548 222.39 238.948 222.39C239.358 222.39 239.7 222.546 239.974 222.858C240.257 223.171 240.398 223.508 240.398 223.869C240.398 224.23 240.267 224.562 240.003 224.865C239.739 225.158 239.402 225.305 238.992 225.305ZM247.942 231.735C247.884 231.735 247.854 231.779 247.854 231.867V239.953C247.854 240.539 247.981 240.998 248.235 241.33C248.499 241.662 248.831 241.828 249.231 241.828C249.632 241.828 249.979 241.765 250.271 241.638C250.574 241.501 250.833 241.354 251.048 241.198C251.272 241.042 251.473 240.9 251.648 240.773C251.824 240.637 251.98 240.568 252.117 240.568C252.254 240.568 252.322 240.603 252.322 240.671C252.322 240.905 252.298 241.057 252.249 241.125C251.077 242.639 249.944 243.396 248.851 243.396C247.767 243.396 246.946 243.054 246.39 242.37C245.843 241.677 245.569 240.852 245.569 239.895V231.735H244.471C244.197 231.735 244.051 231.647 244.031 231.472C244.021 231.296 244.051 231.184 244.119 231.135C244.637 230.803 245.35 230.207 246.258 229.348C246.355 229.24 246.487 229.079 246.653 228.864C246.819 228.649 247.059 228.356 247.371 227.985C247.693 227.614 247.938 227.429 248.104 227.429C248.27 227.429 248.353 227.497 248.353 227.634C248.353 227.653 248.187 228.293 247.854 229.553C247.854 229.729 247.933 229.821 248.089 229.831H251.824C252.254 229.831 252.469 230.437 252.469 231.647C252.469 231.706 252.43 231.735 252.352 231.735H247.942ZM256.233 235.28C256.067 235.28 255.984 235.637 255.984 236.35C255.984 237.863 256.434 239.133 257.332 240.158C258.23 241.184 259.344 241.696 260.672 241.696C262.01 241.696 263.294 241.12 264.524 239.968C264.544 239.948 264.568 239.938 264.598 239.938H264.671C264.729 239.938 264.783 239.987 264.832 240.085C264.891 240.173 264.944 240.231 264.993 240.261C263.86 241.638 262.527 242.59 260.994 243.117C260.467 243.303 259.871 243.396 259.207 243.396C258.543 243.396 257.869 243.215 257.186 242.854C256.502 242.482 255.916 241.999 255.428 241.403C254.393 240.163 253.875 238.62 253.875 236.774C253.875 234.919 254.437 233.229 255.56 231.706C256.692 230.183 258.245 229.421 260.218 229.421C261.634 229.421 262.791 230.056 263.689 231.325C264.588 232.585 265.037 233.693 265.037 234.65C265.037 235.07 264.935 235.28 264.729 235.28H256.233ZM256.395 233.874C256.395 234.06 256.482 234.152 256.658 234.152H262.181C262.435 234.152 262.562 234.001 262.562 233.698C262.562 232.995 262.244 232.277 261.609 231.545C260.984 230.803 260.296 230.432 259.544 230.432C258.812 230.432 258.143 230.764 257.537 231.428C256.941 232.092 256.561 232.849 256.395 233.698V233.874Z" fill="#16B016"/>
<path d="M651.703 243C651.625 243 651.586 242.961 651.586 242.883V242.531C651.586 242.453 651.625 242.414 651.703 242.414H652.055C652.895 242.414 653.627 242.238 654.252 241.887C654.506 241.74 654.716 241.516 654.882 241.213C655.048 240.9 655.131 240.554 655.131 240.173V224.675C655.131 224.069 654.74 223.605 653.959 223.283C653.412 223.049 652.831 222.932 652.216 222.932H651.894C651.815 222.932 651.776 222.893 651.776 222.814V222.463C651.776 222.385 651.815 222.346 651.894 222.346H661.811C661.889 222.346 661.928 222.385 661.928 222.463V222.814C661.928 222.893 661.889 222.932 661.811 222.932H661.181C660.175 222.932 659.286 223.073 658.515 223.356C658.29 223.435 658.144 223.566 658.075 223.752C658.017 223.928 657.987 224.235 657.987 224.675V240.92C658.007 241.086 658.095 241.242 658.251 241.389C658.407 241.535 658.583 241.608 658.778 241.608H664.564C665.434 241.608 666.288 241.096 667.128 240.07C667.353 239.797 667.631 239.436 667.963 238.986C668.295 238.527 668.5 238.269 668.578 238.21C668.891 237.976 669.047 237.98 669.047 238.225C669.047 238.283 669.032 238.342 669.003 238.4L666.791 242.736C666.703 242.912 666.601 243 666.483 243H651.703ZM672.548 235.28C672.382 235.28 672.299 235.637 672.299 236.35C672.299 237.863 672.748 239.133 673.646 240.158C674.545 241.184 675.658 241.696 676.986 241.696C678.324 241.696 679.608 241.12 680.839 239.968C680.858 239.948 680.883 239.938 680.912 239.938H680.985C681.044 239.938 681.098 239.987 681.146 240.085C681.205 240.173 681.259 240.231 681.308 240.261C680.175 241.638 678.842 242.59 677.309 243.117C676.781 243.303 676.186 243.396 675.521 243.396C674.857 243.396 674.184 243.215 673.5 242.854C672.816 242.482 672.23 241.999 671.742 241.403C670.707 240.163 670.189 238.62 670.189 236.774C670.189 234.919 670.751 233.229 671.874 231.706C673.007 230.183 674.56 229.421 676.532 229.421C677.948 229.421 679.105 230.056 680.004 231.325C680.902 232.585 681.352 233.693 681.352 234.65C681.352 235.07 681.249 235.28 681.044 235.28H672.548ZM672.709 233.874C672.709 234.06 672.797 234.152 672.973 234.152H678.495C678.749 234.152 678.876 234.001 678.876 233.698C678.876 232.995 678.559 232.277 677.924 231.545C677.299 230.803 676.61 230.432 675.858 230.432C675.126 230.432 674.457 230.764 673.852 231.428C673.256 232.092 672.875 232.849 672.709 233.698V233.874ZM692.865 240.583C692.865 240.837 692.982 241.042 693.217 241.198C693.461 241.345 693.739 241.418 694.052 241.418C694.364 241.418 694.623 241.34 694.828 241.184C695.043 241.018 695.189 240.935 695.268 240.935C695.346 240.935 695.385 241.042 695.385 241.257C695.385 241.462 695.287 241.638 695.092 241.784C693.627 242.858 692.636 243.396 692.118 243.396C691.493 243.396 690.985 242.746 690.595 241.447C690.565 241.35 690.541 241.306 690.521 241.315C689.311 242.224 688.549 242.771 688.236 242.956C687.436 243.415 686.63 243.488 685.819 243.176C685.019 242.863 684.438 242.346 684.076 241.623C683.9 241.252 683.812 240.856 683.812 240.437C683.812 239.606 684.12 238.947 684.735 238.459C685.351 237.971 686.522 237.502 688.251 237.053C688.837 236.896 689.359 236.696 689.818 236.452C690.277 236.208 690.517 236.052 690.536 235.983C690.565 235.915 690.58 235.852 690.58 235.793V232.98C690.58 231.877 690.15 231.101 689.291 230.651C689.008 230.505 688.666 230.432 688.266 230.432C687.875 230.432 687.475 230.588 687.064 230.9C686.664 231.213 686.464 231.657 686.464 232.233L686.537 232.805C686.479 232.922 686.127 233.117 685.482 233.391C684.838 233.664 684.467 233.811 684.369 233.83C684.213 233.83 684.135 233.645 684.135 233.273C684.135 232.893 684.247 232.473 684.472 232.014C684.696 231.555 685.014 231.135 685.424 230.754C686.381 229.865 687.475 229.421 688.705 229.421C689.936 229.421 690.937 229.763 691.708 230.446C692.479 231.12 692.865 231.926 692.865 232.863V240.583ZM686.112 240.158C686.112 240.627 686.293 241.037 686.654 241.389C687.016 241.73 687.426 241.901 687.885 241.901C688.354 241.901 688.92 241.706 689.584 241.315C690.248 240.915 690.58 240.505 690.58 240.085V237.111C690.58 237.004 690.556 236.95 690.507 236.95C690.458 236.95 690.424 236.955 690.404 236.965L687.006 238.547C686.654 238.801 686.415 239.016 686.288 239.191C686.171 239.367 686.112 239.689 686.112 240.158ZM705.829 230.036C706.259 230.183 706.522 230.256 706.62 230.256C706.718 230.256 706.776 230.256 706.796 230.256C706.825 230.246 706.859 230.183 706.898 230.065V222.507C706.898 222.097 706.674 221.813 706.225 221.657C706.029 221.589 705.819 221.535 705.595 221.496C705.37 221.447 705.189 221.403 705.053 221.364C704.926 221.325 704.843 221.291 704.804 221.262C704.774 221.223 704.76 221.149 704.76 221.042C704.76 220.925 704.833 220.827 704.979 220.749L708.715 218.991C708.832 218.933 708.905 218.903 708.935 218.903C709.101 218.903 709.184 219.021 709.184 219.255V240.114C709.232 240.544 709.354 240.852 709.55 241.037C709.745 241.223 710.062 241.315 710.502 241.315L711.352 241.257C711.41 241.257 711.439 241.315 711.439 241.433C711.439 241.54 711.366 241.628 711.22 241.696L707.323 243.308C707.206 243.366 707.104 243.396 707.016 243.396C706.938 243.396 706.898 243.273 706.898 243.029V241.696C706.898 241.599 706.874 241.55 706.825 241.55C706.757 241.55 706.352 241.77 705.609 242.209C703.334 243.557 701.415 243.757 699.853 242.81C698.603 242.048 697.758 240.842 697.318 239.191C697.113 238.42 697.011 237.604 697.011 236.745C697.011 235.876 697.187 235.017 697.538 234.167C697.899 233.308 698.393 232.556 699.018 231.911C700.395 230.505 702.055 229.802 703.998 229.802C704.789 229.802 705.399 229.88 705.829 230.036ZM699.223 236.32C699.223 237.795 699.633 239.089 700.453 240.202C701.273 241.306 702.416 241.857 703.881 241.857C704.525 241.857 705.189 241.701 705.873 241.389C706.557 241.066 706.898 240.822 706.898 240.656V233.098C706.898 232.912 706.771 232.692 706.518 232.438C705.736 231.364 704.696 230.827 703.397 230.827C702.108 230.827 701.088 231.374 700.336 232.468C699.594 233.552 699.223 234.836 699.223 236.32ZM721.254 243C721.176 243 721.137 242.902 721.137 242.707V242.531C721.137 242.453 721.186 242.414 721.283 242.414C721.381 242.414 721.522 242.385 721.708 242.326C721.903 242.268 722.05 242.229 722.147 242.209C723.144 241.984 723.642 241.418 723.642 240.51V225.041C723.642 224.143 723.476 223.571 723.144 223.327C722.812 223.073 722.211 222.946 721.342 222.946H720.683C720.478 222.946 720.375 222.829 720.375 222.595C720.375 222.458 720.438 222.375 720.565 222.346H720.668L728.886 222.126H730.365C732.113 222.243 733.568 222.873 734.73 224.016C735.893 225.158 736.474 226.53 736.474 228.132C736.474 229.724 735.902 231.169 734.76 232.468C734.262 233.044 733.7 233.513 733.075 233.874C732.45 234.226 731.835 234.406 731.229 234.416L726.835 234.24H726.718C726.571 234.24 726.498 234.309 726.498 234.445V240.466C726.498 241.003 726.645 241.398 726.938 241.652C727.23 241.906 727.851 242.106 728.798 242.253C728.925 242.272 729.13 242.307 729.413 242.355C729.696 242.395 729.887 242.414 729.984 242.414C730.082 242.414 730.131 242.453 730.131 242.531V242.883C730.131 242.961 730.092 243 730.014 243H721.254ZM727.685 222.873C727.567 222.873 727.44 222.878 727.304 222.888C727.177 222.888 727.011 222.893 726.806 222.902C726.601 222.902 726.498 222.98 726.498 223.137V232.585L726.527 233.024C726.557 233.229 726.649 233.337 726.806 233.347L728.3 233.435C729.872 233.435 731.137 232.907 732.094 231.853C733.061 230.798 733.544 229.475 733.544 227.883C733.544 226.281 733.075 225.041 732.138 224.162C731.21 223.283 729.97 222.844 728.417 222.844C728.28 222.844 728.153 222.849 728.036 222.858C727.919 222.858 727.802 222.863 727.685 222.873ZM747.621 240.583C747.621 240.837 747.738 241.042 747.973 241.198C748.217 241.345 748.495 241.418 748.808 241.418C749.12 241.418 749.379 241.34 749.584 241.184C749.799 241.018 749.945 240.935 750.023 240.935C750.102 240.935 750.141 241.042 750.141 241.257C750.141 241.462 750.043 241.638 749.848 241.784C748.383 242.858 747.392 243.396 746.874 243.396C746.249 243.396 745.741 242.746 745.351 241.447C745.321 241.35 745.297 241.306 745.277 241.315C744.066 242.224 743.305 242.771 742.992 242.956C742.191 243.415 741.386 243.488 740.575 243.176C739.774 242.863 739.193 242.346 738.832 241.623C738.656 241.252 738.568 240.856 738.568 240.437C738.568 239.606 738.876 238.947 739.491 238.459C740.106 237.971 741.278 237.502 743.007 237.053C743.593 236.896 744.115 236.696 744.574 236.452C745.033 236.208 745.272 236.052 745.292 235.983C745.321 235.915 745.336 235.852 745.336 235.793V232.98C745.336 231.877 744.906 231.101 744.047 230.651C743.764 230.505 743.422 230.432 743.021 230.432C742.631 230.432 742.23 230.588 741.82 230.9C741.42 231.213 741.22 231.657 741.22 232.233L741.293 232.805C741.234 232.922 740.883 233.117 740.238 233.391C739.594 233.664 739.223 233.811 739.125 233.83C738.969 233.83 738.891 233.645 738.891 233.273C738.891 232.893 739.003 232.473 739.228 232.014C739.452 231.555 739.77 231.135 740.18 230.754C741.137 229.865 742.23 229.421 743.461 229.421C744.691 229.421 745.692 229.763 746.464 230.446C747.235 231.12 747.621 231.926 747.621 232.863V240.583ZM740.868 240.158C740.868 240.627 741.049 241.037 741.41 241.389C741.771 241.73 742.182 241.901 742.641 241.901C743.109 241.901 743.676 241.706 744.34 241.315C745.004 240.915 745.336 240.505 745.336 240.085V237.111C745.336 237.004 745.312 236.95 745.263 236.95C745.214 236.95 745.18 236.955 745.16 236.965L741.762 238.547C741.41 238.801 741.171 239.016 741.044 239.191C740.927 239.367 740.868 239.689 740.868 240.158ZM762.519 230.827C762.519 230.827 763.827 230.769 766.444 230.651C766.669 230.651 766.815 230.676 766.884 230.725C766.952 230.773 767.025 230.944 767.104 231.237C767.182 231.521 767.221 231.789 767.221 232.043C767.221 232.297 767.196 232.443 767.147 232.482C767.099 232.521 767.001 232.541 766.854 232.541H763.603C763.661 232.648 763.725 232.761 763.793 232.878C763.861 232.995 763.949 233.19 764.057 233.464C764.164 233.737 764.218 234.162 764.218 234.738C764.218 235.305 764.076 235.9 763.793 236.525C763.52 237.141 763.114 237.688 762.577 238.166C761.386 239.24 759.843 239.777 757.948 239.777C757.45 239.777 756.903 239.685 756.308 239.499C756.161 239.655 755.966 239.802 755.722 239.938C755.478 240.065 755.238 240.197 755.004 240.334C754.418 240.666 754.125 240.998 754.125 241.33C754.125 242.16 755.502 242.585 758.256 242.604C761.01 242.624 762.816 242.717 763.676 242.883C764.545 243.039 765.219 243.356 765.697 243.835C766.449 244.587 766.825 245.446 766.825 246.413C766.825 247.243 766.469 248.098 765.756 248.977C764.516 250.529 762.621 251.564 760.072 252.082C759.164 252.268 758.202 252.36 757.187 252.36C755.341 252.36 753.939 252.023 752.982 251.35C752.025 250.686 751.547 249.88 751.547 248.933C751.547 248.415 751.669 247.985 751.913 247.644C752.157 247.312 752.465 246.994 752.836 246.691C753.217 246.398 753.632 246.086 754.081 245.754C754.53 245.432 754.96 245.017 755.37 244.509C754.433 244.431 753.627 244.133 752.953 243.615C752.289 243.098 751.957 242.59 751.957 242.092C751.957 241.594 752.089 241.228 752.353 240.993C752.616 240.749 752.938 240.544 753.319 240.378C753.7 240.202 754.101 240.041 754.521 239.895C754.94 239.748 755.307 239.558 755.619 239.323C754.525 238.894 753.681 238.303 753.085 237.551C752.489 236.789 752.191 235.959 752.191 235.061C752.191 233.391 752.797 232.028 754.008 230.974C755.229 229.919 756.698 229.392 758.417 229.392C760.136 229.392 761.503 229.87 762.519 230.827ZM754.55 246.105C754.325 246.33 754.14 246.569 753.993 246.823C753.847 247.077 753.773 247.395 753.773 247.775C753.773 248.166 753.91 248.571 754.184 248.991C754.467 249.421 754.848 249.807 755.326 250.148C756.381 250.93 757.65 251.32 759.135 251.32C760.619 251.32 761.962 250.886 763.163 250.017C764.374 249.157 764.979 248.21 764.979 247.175C764.979 246.149 764.481 245.461 763.485 245.109C763.017 244.953 761.811 244.855 759.867 244.816C757.924 244.777 756.664 244.724 756.088 244.655C755.834 244.948 755.57 245.207 755.297 245.432C755.033 245.656 754.784 245.881 754.55 246.105ZM761.815 234.724C761.815 233.347 761.469 232.229 760.775 231.369C760.092 230.5 759.184 230.065 758.051 230.065C756.586 230.065 755.551 230.754 754.945 232.131C754.711 232.658 754.594 233.264 754.594 233.947C754.594 235.344 754.882 236.506 755.458 237.434C756.161 238.547 757.084 239.104 758.227 239.104C759.369 239.104 760.253 238.718 760.878 237.946C761.503 237.175 761.815 236.101 761.815 234.724ZM770.722 235.28C770.556 235.28 770.473 235.637 770.473 236.35C770.473 237.863 770.922 239.133 771.82 240.158C772.719 241.184 773.832 241.696 775.16 241.696C776.498 241.696 777.782 241.12 779.013 239.968C779.032 239.948 779.057 239.938 779.086 239.938H779.159C779.218 239.938 779.271 239.987 779.32 240.085C779.379 240.173 779.433 240.231 779.481 240.261C778.349 241.638 777.016 242.59 775.482 243.117C774.955 243.303 774.359 243.396 773.695 243.396C773.031 243.396 772.357 243.215 771.674 242.854C770.99 242.482 770.404 241.999 769.916 241.403C768.881 240.163 768.363 238.62 768.363 236.774C768.363 234.919 768.925 233.229 770.048 231.706C771.181 230.183 772.733 229.421 774.706 229.421C776.122 229.421 777.279 230.056 778.178 231.325C779.076 232.585 779.525 233.693 779.525 234.65C779.525 235.07 779.423 235.28 779.218 235.28H770.722ZM770.883 233.874C770.883 234.06 770.971 234.152 771.146 234.152H776.669C776.923 234.152 777.05 234.001 777.05 233.698C777.05 232.995 776.732 232.277 776.098 231.545C775.473 230.803 774.784 230.432 774.032 230.432C773.3 230.432 772.631 230.764 772.025 231.428C771.43 232.092 771.049 232.849 770.883 233.698V233.874Z" fill="#16B016"/>
<path d="M404.363 222.521C404.461 222.521 404.51 222.629 404.51 222.844L404.891 225.964C404.93 226.159 404.949 226.286 404.949 226.345C404.949 226.394 404.871 226.418 404.715 226.418C404.568 226.418 404.476 226.398 404.437 226.359C404.397 226.32 404.358 226.257 404.319 226.169C404.28 226.071 404.231 225.964 404.173 225.847C404.124 225.729 404.07 225.612 404.012 225.495C403.807 225.046 403.484 224.602 403.045 224.162C401.971 223.127 400.76 222.609 399.412 222.609C398.602 222.609 397.835 222.873 397.112 223.4C396.39 223.928 396.028 224.553 396.028 225.275C396.028 225.988 396.16 226.608 396.424 227.136C396.697 227.663 397.054 228.151 397.493 228.601C397.933 229.05 398.436 229.479 399.002 229.89C399.568 230.3 400.145 230.715 400.73 231.135C402.283 232.219 403.387 233.146 404.041 233.918C405.066 235.109 405.623 236.447 405.711 237.932C405.711 239.592 405.071 240.92 403.792 241.916C402.522 242.902 401.043 243.396 399.354 243.396C398.27 243.396 397.405 243.283 396.761 243.059C396.126 242.844 395.687 242.688 395.442 242.59C395.198 242.492 395.018 242.443 394.9 242.443C394.793 242.443 394.725 242.448 394.695 242.458L393.978 242.604C393.851 242.604 393.772 242.502 393.743 242.297C393.46 239.875 393.318 238.591 393.318 238.444C393.318 238.288 393.328 238.186 393.348 238.137C393.377 238.078 393.445 238.049 393.553 238.049C393.826 238.049 394.075 238.439 394.3 239.221C395.325 241.418 397.029 242.517 399.412 242.517C400.506 242.517 401.438 242.185 402.21 241.521C402.991 240.856 403.382 239.992 403.382 238.928C403.382 237.229 402.366 235.646 400.335 234.182C399.759 233.771 398.929 233.2 397.845 232.468C396.761 231.735 395.896 231.003 395.252 230.271C394.246 229.138 393.743 227.878 393.743 226.491C393.743 225.095 394.295 223.952 395.398 223.063C396.512 222.175 397.786 221.73 399.222 221.73C399.964 221.73 400.779 221.857 401.668 222.111C402.566 222.365 403.191 222.536 403.543 222.624L404.363 222.521ZM408.128 236.423C408.128 234.499 408.807 232.849 410.164 231.472C411.531 230.085 413.167 229.392 415.071 229.392C416.976 229.392 418.631 230.065 420.037 231.413C421.443 232.751 422.146 234.406 422.146 236.379C422.146 238.352 421.478 240.017 420.14 241.374C418.812 242.722 417.142 243.396 415.13 243.396C413.118 243.396 411.448 242.712 410.12 241.345C408.792 239.978 408.128 238.337 408.128 236.423ZM411.775 240.188C412.732 241.799 414.036 242.604 415.687 242.604C416.966 242.604 417.942 242.092 418.616 241.066C419.3 240.041 419.642 238.781 419.642 237.287C419.642 235.793 419.163 234.26 418.206 232.688C417.259 231.115 415.979 230.329 414.368 230.329C413.187 230.329 412.254 230.842 411.57 231.867C410.896 232.883 410.56 234.177 410.56 235.749C410.56 237.312 410.965 238.791 411.775 240.188ZM435.784 231.179C435.784 231.862 435.389 232.204 434.598 232.204C434.197 232.204 433.855 232.092 433.572 231.867C433.299 231.633 433.084 231.438 432.928 231.281C432.781 231.115 432.625 230.964 432.459 230.827C431.756 230.251 430.896 230.188 429.881 230.637C428.875 231.086 428.099 232.043 427.552 233.508C427.249 234.318 427.098 235.124 427.098 235.925C427.098 237.644 427.488 239.05 428.27 240.144C429.051 241.228 430.247 241.77 431.858 241.77C433.06 241.77 434.139 241.232 435.096 240.158C435.389 239.836 435.564 239.675 435.623 239.675C435.682 239.675 435.745 239.704 435.813 239.763C435.882 239.821 435.916 239.909 435.916 240.026C435.916 240.134 435.887 240.217 435.828 240.275C434.334 242.355 432.454 243.396 430.188 243.396C428.548 243.396 427.2 242.785 426.146 241.564C425.101 240.344 424.578 238.947 424.578 237.375C424.588 234.465 425.291 232.37 426.688 231.091C427.918 229.968 429.671 229.406 431.946 229.406C433.353 229.406 434.285 229.548 434.744 229.831C435.203 230.114 435.525 230.471 435.711 230.9C435.76 230.998 435.784 231.091 435.784 231.179ZM437.967 243C437.869 242.98 437.82 242.912 437.82 242.795C437.82 242.619 438.05 242.502 438.509 242.443C439.563 242.287 440.091 241.73 440.091 240.773V233.024C440.091 232.614 439.866 232.331 439.417 232.175C439.222 232.106 439.012 232.053 438.787 232.014C438.562 231.965 438.382 231.921 438.245 231.882C438.118 231.843 438.035 231.809 437.996 231.779C437.967 231.74 437.952 231.667 437.952 231.56C437.952 231.442 438.025 231.345 438.172 231.267L441.907 229.509C442.024 229.45 442.098 229.421 442.127 229.421C442.293 229.421 442.376 229.538 442.376 229.772V240.773C442.376 241.73 442.903 242.287 443.958 242.443C444.417 242.502 444.646 242.604 444.646 242.751C444.646 242.897 444.598 242.98 444.5 243H437.967ZM441.014 225.305C440.613 225.305 440.257 225.178 439.944 224.924C439.642 224.67 439.49 224.318 439.49 223.869C439.49 223.41 439.637 223.049 439.93 222.785C440.223 222.521 440.569 222.39 440.97 222.39C441.38 222.39 441.722 222.546 441.995 222.858C442.278 223.171 442.42 223.508 442.42 223.869C442.42 224.23 442.288 224.562 442.024 224.865C441.761 225.158 441.424 225.305 441.014 225.305ZM455.457 240.583C455.457 240.837 455.574 241.042 455.809 241.198C456.053 241.345 456.331 241.418 456.644 241.418C456.956 241.418 457.215 241.34 457.42 241.184C457.635 241.018 457.781 240.935 457.859 240.935C457.938 240.935 457.977 241.042 457.977 241.257C457.977 241.462 457.879 241.638 457.684 241.784C456.219 242.858 455.228 243.396 454.71 243.396C454.085 243.396 453.577 242.746 453.187 241.447C453.157 241.35 453.133 241.306 453.113 241.315C451.902 242.224 451.141 242.771 450.828 242.956C450.027 243.415 449.222 243.488 448.411 243.176C447.61 242.863 447.029 242.346 446.668 241.623C446.492 241.252 446.404 240.856 446.404 240.437C446.404 239.606 446.712 238.947 447.327 238.459C447.942 237.971 449.114 237.502 450.843 237.053C451.429 236.896 451.951 236.696 452.41 236.452C452.869 236.208 453.108 236.052 453.128 235.983C453.157 235.915 453.172 235.852 453.172 235.793V232.98C453.172 231.877 452.742 231.101 451.883 230.651C451.6 230.505 451.258 230.432 450.857 230.432C450.467 230.432 450.066 230.588 449.656 230.9C449.256 231.213 449.056 231.657 449.056 232.233L449.129 232.805C449.07 232.922 448.719 233.117 448.074 233.391C447.43 233.664 447.059 233.811 446.961 233.83C446.805 233.83 446.727 233.645 446.727 233.273C446.727 232.893 446.839 232.473 447.063 232.014C447.288 231.555 447.605 231.135 448.016 230.754C448.973 229.865 450.066 229.421 451.297 229.421C452.527 229.421 453.528 229.763 454.3 230.446C455.071 231.12 455.457 231.926 455.457 232.863V240.583ZM448.704 240.158C448.704 240.627 448.885 241.037 449.246 241.389C449.607 241.73 450.018 241.901 450.477 241.901C450.945 241.901 451.512 241.706 452.176 241.315C452.84 240.915 453.172 240.505 453.172 240.085V237.111C453.172 237.004 453.147 236.95 453.099 236.95C453.05 236.95 453.016 236.955 452.996 236.965L449.598 238.547C449.246 238.801 449.007 239.016 448.88 239.191C448.763 239.367 448.704 239.689 448.704 240.158ZM464.788 242.443C465.247 242.502 465.477 242.619 465.477 242.795C465.477 242.912 465.428 242.98 465.33 243H458.797C458.699 242.98 458.65 242.912 458.65 242.795C458.65 242.619 458.88 242.502 459.339 242.443C460.394 242.287 460.921 241.73 460.921 240.773V222.507C460.921 222.097 460.696 221.813 460.247 221.657C460.052 221.589 459.842 221.535 459.617 221.496C459.393 221.447 459.212 221.403 459.075 221.364C458.948 221.325 458.865 221.291 458.826 221.262C458.797 221.223 458.782 221.149 458.782 221.042C458.782 220.925 458.855 220.827 459.002 220.749L462.737 218.991C462.854 218.933 462.928 218.903 462.957 218.903C463.123 218.903 463.206 219.021 463.206 219.255V240.773C463.206 241.73 463.733 242.287 464.788 242.443ZM481.399 242.414C481.458 242.414 481.487 242.453 481.487 242.531V242.883C481.487 242.961 481.458 243 481.399 243H474.559C474.48 243 474.441 242.961 474.441 242.883V242.531C474.441 242.453 474.48 242.414 474.559 242.414C476.16 242.414 477.029 241.726 477.166 240.349C477.205 239.948 477.244 239.284 477.283 238.356C477.332 237.419 477.464 235.412 477.679 232.336C477.894 229.25 478.001 226.755 478.001 224.851V224.309C478.001 223.918 477.776 223.591 477.327 223.327C476.888 223.063 476.565 222.932 476.36 222.932C476.155 222.932 476.053 222.893 476.053 222.814V222.463C476.053 222.385 476.092 222.346 476.17 222.346H480.403C480.589 222.375 480.74 222.482 480.857 222.668L487.728 237.976C487.776 238.044 487.815 238.103 487.845 238.151C487.874 238.2 487.947 238.225 488.064 238.225C488.182 238.215 488.27 238.127 488.328 237.961L495.125 222.932C495.33 222.541 495.516 222.346 495.682 222.346H499.944C500.022 222.346 500.062 222.385 500.062 222.463V222.814C500.062 222.893 500.037 222.932 499.988 222.932C499.695 222.932 499.334 223.029 498.904 223.225C498.25 223.518 497.923 223.952 497.923 224.528L498.802 240.715C498.821 241.223 499.085 241.633 499.593 241.945C500.101 242.258 500.765 242.414 501.585 242.414C501.663 242.414 501.702 242.453 501.702 242.531V242.883C501.702 242.961 501.663 243 501.585 243H493.265C493.187 243 493.147 242.961 493.147 242.883V242.531C493.147 242.453 493.187 242.414 493.265 242.414C495.013 242.414 495.887 241.989 495.887 241.14L495.11 227.15C495.101 227.053 495.071 227.004 495.022 227.004C494.983 227.004 494.949 227.048 494.92 227.136L487.64 242.897C487.601 242.966 487.488 243 487.303 243C487.117 243 487.01 242.961 486.98 242.883L479.803 227.092C479.744 226.955 479.686 226.887 479.627 226.887C479.578 226.887 479.554 226.994 479.554 227.209C479.554 227.658 479.437 229.777 479.202 233.566C478.968 237.355 478.851 239.719 478.851 240.656V241.257C478.968 241.813 479.52 242.175 480.506 242.341C480.789 242.39 481.087 242.414 481.399 242.414ZM505.716 235.28C505.55 235.28 505.467 235.637 505.467 236.35C505.467 237.863 505.916 239.133 506.814 240.158C507.713 241.184 508.826 241.696 510.154 241.696C511.492 241.696 512.776 241.12 514.007 239.968C514.026 239.948 514.051 239.938 514.08 239.938H514.153C514.212 239.938 514.266 239.987 514.314 240.085C514.373 240.173 514.427 240.231 514.476 240.261C513.343 241.638 512.01 242.59 510.477 243.117C509.949 243.303 509.354 243.396 508.689 243.396C508.025 243.396 507.352 243.215 506.668 242.854C505.984 242.482 505.398 241.999 504.91 241.403C503.875 240.163 503.357 238.62 503.357 236.774C503.357 234.919 503.919 233.229 505.042 231.706C506.175 230.183 507.728 229.421 509.7 229.421C511.116 229.421 512.273 230.056 513.172 231.325C514.07 232.585 514.52 233.693 514.52 234.65C514.52 235.07 514.417 235.28 514.212 235.28H505.716ZM505.877 233.874C505.877 234.06 505.965 234.152 506.141 234.152H511.663C511.917 234.152 512.044 234.001 512.044 233.698C512.044 232.995 511.727 232.277 511.092 231.545C510.467 230.803 509.778 230.432 509.026 230.432C508.294 230.432 507.625 230.764 507.02 231.428C506.424 232.092 506.043 232.849 505.877 233.698V233.874ZM526.019 230.036C526.448 230.183 526.712 230.256 526.81 230.256C526.907 230.256 526.966 230.256 526.985 230.256C527.015 230.246 527.049 230.183 527.088 230.065V222.507C527.088 222.097 526.863 221.813 526.414 221.657C526.219 221.589 526.009 221.535 525.784 221.496C525.56 221.447 525.379 221.403 525.242 221.364C525.115 221.325 525.032 221.291 524.993 221.262C524.964 221.223 524.949 221.149 524.949 221.042C524.949 220.925 525.022 220.827 525.169 220.749L528.904 218.991C529.021 218.933 529.095 218.903 529.124 218.903C529.29 218.903 529.373 219.021 529.373 219.255V240.114C529.422 240.544 529.544 240.852 529.739 241.037C529.935 241.223 530.252 241.315 530.691 241.315L531.541 241.257C531.6 241.257 531.629 241.315 531.629 241.433C531.629 241.54 531.556 241.628 531.409 241.696L527.513 243.308C527.396 243.366 527.293 243.396 527.205 243.396C527.127 243.396 527.088 243.273 527.088 243.029V241.696C527.088 241.599 527.063 241.55 527.015 241.55C526.946 241.55 526.541 241.77 525.799 242.209C523.523 243.557 521.604 243.757 520.042 242.81C518.792 242.048 517.947 240.842 517.508 239.191C517.303 238.42 517.2 237.604 517.2 236.745C517.2 235.876 517.376 235.017 517.728 234.167C518.089 233.308 518.582 232.556 519.207 231.911C520.584 230.505 522.244 229.802 524.188 229.802C524.979 229.802 525.589 229.88 526.019 230.036ZM519.412 236.32C519.412 237.795 519.822 239.089 520.643 240.202C521.463 241.306 522.605 241.857 524.07 241.857C524.715 241.857 525.379 241.701 526.062 241.389C526.746 241.066 527.088 240.822 527.088 240.656V233.098C527.088 232.912 526.961 232.692 526.707 232.438C525.926 231.364 524.886 230.827 523.587 230.827C522.298 230.827 521.277 231.374 520.525 232.468C519.783 233.552 519.412 234.836 519.412 236.32ZM532.947 243C532.85 242.98 532.801 242.912 532.801 242.795C532.801 242.619 533.03 242.502 533.489 242.443C534.544 242.287 535.071 241.73 535.071 240.773V233.024C535.071 232.614 534.847 232.331 534.397 232.175C534.202 232.106 533.992 232.053 533.768 232.014C533.543 231.965 533.362 231.921 533.226 231.882C533.099 231.843 533.016 231.809 532.977 231.779C532.947 231.74 532.933 231.667 532.933 231.56C532.933 231.442 533.006 231.345 533.152 231.267L536.888 229.509C537.005 229.45 537.078 229.421 537.107 229.421C537.273 229.421 537.356 229.538 537.356 229.772V240.773C537.356 241.73 537.884 242.287 538.938 242.443C539.397 242.502 539.627 242.604 539.627 242.751C539.627 242.897 539.578 242.98 539.48 243H532.947ZM535.994 225.305C535.594 225.305 535.237 225.178 534.925 224.924C534.622 224.67 534.471 224.318 534.471 223.869C534.471 223.41 534.617 223.049 534.91 222.785C535.203 222.521 535.55 222.39 535.95 222.39C536.36 222.39 536.702 222.546 536.976 222.858C537.259 223.171 537.4 223.508 537.4 223.869C537.4 224.23 537.269 224.562 537.005 224.865C536.741 225.158 536.404 225.305 535.994 225.305ZM550.438 240.583C550.438 240.837 550.555 241.042 550.789 241.198C551.033 241.345 551.312 241.418 551.624 241.418C551.937 241.418 552.195 241.34 552.4 241.184C552.615 241.018 552.762 240.935 552.84 240.935C552.918 240.935 552.957 241.042 552.957 241.257C552.957 241.462 552.859 241.638 552.664 241.784C551.199 242.858 550.208 243.396 549.69 243.396C549.065 243.396 548.558 242.746 548.167 241.447C548.138 241.35 548.113 241.306 548.094 241.315C546.883 242.224 546.121 242.771 545.809 242.956C545.008 243.415 544.202 243.488 543.392 243.176C542.591 242.863 542.01 242.346 541.648 241.623C541.473 241.252 541.385 240.856 541.385 240.437C541.385 239.606 541.692 238.947 542.308 238.459C542.923 237.971 544.095 237.502 545.823 237.053C546.409 236.896 546.932 236.696 547.391 236.452C547.85 236.208 548.089 236.052 548.108 235.983C548.138 235.915 548.152 235.852 548.152 235.793V232.98C548.152 231.877 547.723 231.101 546.863 230.651C546.58 230.505 546.238 230.432 545.838 230.432C545.447 230.432 545.047 230.588 544.637 230.9C544.236 231.213 544.036 231.657 544.036 232.233L544.109 232.805C544.051 232.922 543.699 233.117 543.055 233.391C542.41 233.664 542.039 233.811 541.941 233.83C541.785 233.83 541.707 233.645 541.707 233.273C541.707 232.893 541.819 232.473 542.044 232.014C542.269 231.555 542.586 231.135 542.996 230.754C543.953 229.865 545.047 229.421 546.277 229.421C547.508 229.421 548.509 229.763 549.28 230.446C550.052 231.12 550.438 231.926 550.438 232.863V240.583ZM543.685 240.158C543.685 240.627 543.865 241.037 544.227 241.389C544.588 241.73 544.998 241.901 545.457 241.901C545.926 241.901 546.492 241.706 547.156 241.315C547.82 240.915 548.152 240.505 548.152 240.085V237.111C548.152 237.004 548.128 236.95 548.079 236.95C548.03 236.95 547.996 236.955 547.977 236.965L544.578 238.547C544.227 238.801 543.987 239.016 543.86 239.191C543.743 239.367 543.685 239.689 543.685 240.158Z" fill="#16B016"/>
<defs>
<linearGradient id="paint0_linear_36_22" x1="466" y1="-6.84614e-07" x2="473" y2="288.5" gradientUnits="userSpaceOnUse">
<stop stop-color="#B5B5B5" stop-opacity="0.43"/>
<stop offset="1" stop-color="#1C1C1C" stop-opacity="0.7"/>
</linearGradient>
</defs>
</svg>
