<svg width="104" height="68" viewBox="0 0 104 68" fill="none" xmlns="http://www.w3.org/2000/svg">
<path d="M3.04 0.199997H14.24L17.44 3.16V54.6H13.04L18.16 66.92L14.16 67.48L12.56 66.12L9.04 54.6H5.96046e-08V3.88L3.04 0.199997ZM12.08 5.88C12.08 5.4 11.84 5.16 11.36 5.16H6.4C5.92 5.16 5.68 5.4 5.68 5.88L4.88 48.52C4.88 48.84 5.12 49 5.6 49H7.36L6.56 46.44L9.44 45.72L10.8 49C11.0667 49 11.3333 48.9467 11.6 48.84C11.92 48.7333 12.08 48.6267 12.08 48.52V5.88ZM25.4688 1.08C25.4688 0.813329 26.5621 0.599997 28.7488 0.439999C30.9354 0.279998 33.0954 0.199997 35.2288 0.199997H38.6688C39.5221 0.199997 40.2154 0.519998 40.7488 1.16C41.2821 1.8 41.5754 2.62666 41.6288 3.64L42.4288 26.68L38.8288 31.4L45.2288 55.24L43.7088 57H38.9888L34.9088 32.12L30.8288 32.52L29.1488 57H25.4688V1.08ZM36.5088 26.2C36.8288 26.2 36.9888 26.04 36.9888 25.72V5.8L35.7888 4.6L30.2688 5.16L30.5088 26.52L36.5088 26.2ZM57.7356 55.4H51.0156V0.199997H56.0556L57.7356 55.4ZM64.6 57L66.44 0.199997H81.08V7.24H71.24V23.16H79.96V27.16L71.64 28.6V57H64.6ZM98.3 57H92.14V27.08L84.7 0.999996H91.98L94.7 23.96L95.34 23.8L97.74 0.199997H103.34L99.82 22.52L96.94 27.48L98.3 57Z" fill="black"/>
</svg>
