<svg width="119" height="21" viewBox="0 0 119 21" fill="none" xmlns="http://www.w3.org/2000/svg">
<path d="M4.11719 13.2441L0.879883 15.3525H0.780273C0.669596 15.3525 0.558919 15.3249 0.448242 15.2695C0.348633 15.2142 0.298828 15.1201 0.298828 14.9873C0.298828 14.8988 0.320964 14.8213 0.365234 14.7549C0.420573 14.6774 0.486979 14.611 0.564453 14.5557C0.652995 14.4893 0.813477 14.3896 1.0459 14.2568C1.27832 14.124 1.52181 13.9801 1.77637 13.8252C2.03092 13.6592 2.27441 13.5098 2.50684 13.377C2.75033 13.2441 2.91634 13.1501 3.00488 13.0947C3.04915 13.0505 3.11556 13.0007 3.2041 12.9453C3.29264 12.8789 3.37012 12.818 3.43652 12.7627C3.514 12.6963 3.5804 12.641 3.63574 12.5967C3.69108 12.5524 3.71875 12.5247 3.71875 12.5137L2.44043 9.92383C2.38509 9.84635 2.35189 9.78548 2.34082 9.74121C2.34082 9.68587 2.34082 9.61393 2.34082 9.52539C2.34082 9.19336 2.5013 9.02734 2.82227 9.02734C2.86654 9.02734 2.96615 9.06055 3.12109 9.12695C3.28711 9.18229 3.48633 9.2653 3.71875 9.37598C3.95117 9.47559 4.19466 9.58626 4.44922 9.70801C4.70378 9.82975 4.9362 9.94043 5.14648 10.04C5.35677 10.1396 5.53385 10.2282 5.67773 10.3057C5.82161 10.3721 5.89355 10.4053 5.89355 10.4053L7.37109 8.87793C7.4043 8.74512 7.49837 8.58464 7.65332 8.39648C7.81934 8.20833 7.99089 8.00911 8.16797 7.79883C8.34505 7.58854 8.5 7.37826 8.63281 7.16797C8.76562 6.94661 8.83203 6.7474 8.83203 6.57031V6.52051L7.68652 3.84766C7.57585 3.5931 7.50391 3.32194 7.4707 3.03418C7.44857 2.73535 7.4375 2.44206 7.4375 2.1543C7.4375 1.91081 7.47624 1.66732 7.55371 1.42383C7.63118 1.16927 7.74186 0.942383 7.88574 0.743164C8.04069 0.543945 8.22331 0.383464 8.43359 0.261719C8.64388 0.128906 8.8929 0.0625 9.18066 0.0625C9.47949 0.0625 9.72298 0.151042 9.91113 0.328125C10.1104 0.494141 10.2653 0.704427 10.376 0.958984C10.4977 1.21354 10.5807 1.4847 10.625 1.77246C10.6693 2.04915 10.6914 2.30371 10.6914 2.53613C10.6914 3.2002 10.6139 3.83659 10.459 4.44531C10.3151 5.04297 10.1159 5.65723 9.86133 6.28809V6.52051C10.1159 6.99642 10.376 7.48893 10.6416 7.99805C10.9072 8.50716 11.1452 9.03841 11.3555 9.5918C11.5658 10.1341 11.7373 10.682 11.8701 11.2354C12.0029 11.7777 12.0693 12.3255 12.0693 12.8789C12.0693 13.3105 11.9974 13.7145 11.8535 14.0908C11.7207 14.4561 11.527 14.777 11.2725 15.0537C11.0179 15.3304 10.708 15.5462 10.3428 15.7012C9.98861 15.8561 9.59017 15.9336 9.14746 15.9336C8.64941 15.9336 8.1735 15.8617 7.71973 15.7178C7.27702 15.5628 6.84538 15.3636 6.4248 15.1201C6.0153 14.8656 5.6224 14.5778 5.24609 14.2568C4.88086 13.9359 4.53776 13.5983 4.2168 13.2441H4.11719ZM4.94727 12.6797C4.94727 12.6908 4.97493 12.7295 5.03027 12.7959C5.09668 12.8623 5.16862 12.9398 5.24609 13.0283C5.33464 13.1058 5.42318 13.1888 5.51172 13.2773C5.60026 13.3659 5.67773 13.4378 5.74414 13.4932C5.77734 13.5264 5.83268 13.5762 5.91016 13.6426C5.9987 13.6979 6.08171 13.7643 6.15918 13.8418C6.24772 13.9082 6.3252 13.9746 6.3916 14.041C6.46908 14.0964 6.51888 14.1296 6.54102 14.1406C6.60742 14.1738 6.70703 14.2292 6.83984 14.3066C6.97266 14.3841 7.10547 14.4616 7.23828 14.5391C7.37109 14.6165 7.49837 14.6885 7.62012 14.7549C7.74186 14.8213 7.8138 14.86 7.83594 14.8711C8.09049 14.9818 8.32292 15.0537 8.5332 15.0869C8.75456 15.109 8.97591 15.1201 9.19727 15.1201C9.5293 15.1201 9.81152 15.0592 10.0439 14.9375C10.2874 14.8047 10.4867 14.6331 10.6416 14.4229C10.7965 14.2015 10.9072 13.9525 10.9736 13.6758C11.0511 13.388 11.0898 13.1003 11.0898 12.8125C11.0898 12.5026 11.0622 12.1816 11.0068 11.8496C10.9626 11.5176 10.8851 11.2021 10.7744 10.9033L9.33008 7.43359L8.01855 9.27637L4.94727 12.6133V12.6797ZM3.65234 10.4883C3.65234 10.5104 3.65788 10.5547 3.66895 10.6211C3.69108 10.6764 3.70768 10.7152 3.71875 10.7373C3.76302 10.8148 3.81836 10.9199 3.88477 11.0527C3.96224 11.1855 4.03418 11.3128 4.10059 11.4346C4.17806 11.5452 4.23893 11.6504 4.2832 11.75C4.33854 11.8385 4.37174 11.8828 4.38281 11.8828H4.44922C4.48242 11.8828 4.54883 11.8385 4.64844 11.75C4.74805 11.6504 4.85319 11.5508 4.96387 11.4512C5.07454 11.3405 5.17415 11.2409 5.2627 11.1523C5.35124 11.0527 5.40104 10.9974 5.41211 10.9863L5.3291 10.9033L3.88477 10.4883H3.65234ZM8.31738 2.1377C8.31738 2.75749 8.41146 3.32194 8.59961 3.83105C8.78776 4.3291 9.02572 4.84928 9.31348 5.3916C9.36882 5.3584 9.41862 5.29199 9.46289 5.19238C9.50716 5.08171 9.5459 4.96549 9.5791 4.84375C9.6123 4.71094 9.63997 4.58919 9.66211 4.47852C9.68424 4.36784 9.70085 4.30143 9.71191 4.2793C9.71191 4.25716 9.71745 4.20182 9.72852 4.11328C9.75065 4.02474 9.76725 3.92513 9.77832 3.81445C9.78939 3.69271 9.80046 3.5765 9.81152 3.46582C9.83366 3.35514 9.85026 3.27214 9.86133 3.2168V3.16699C9.86133 3.12272 9.85579 2.98438 9.84473 2.75195C9.84473 2.51953 9.82812 2.27051 9.79492 2.00488C9.76172 1.72819 9.70085 1.4847 9.6123 1.27441C9.52376 1.05306 9.39095 0.942383 9.21387 0.942383C9.03678 0.942383 8.88737 0.975586 8.76562 1.04199C8.64388 1.1084 8.5498 1.19694 8.4834 1.30762C8.42806 1.41829 8.38379 1.54557 8.35059 1.68945C8.32845 1.83333 8.31738 1.98275 8.31738 2.1377ZM12.7998 13.7256C12.8551 13.1611 12.9824 12.6243 13.1816 12.1152C13.3919 11.6061 13.6299 11.1689 13.8955 10.8037C14.1722 10.4385 14.4489 10.1562 14.7256 9.95703C15.0133 9.75781 15.2624 9.69694 15.4727 9.77441C15.528 9.74121 15.5723 9.71354 15.6055 9.69141C15.6497 9.6582 15.6829 9.63053 15.7051 9.6084C15.7383 9.5752 15.7715 9.55306 15.8047 9.54199C15.849 9.51986 15.9098 9.50879 15.9873 9.50879C16.1423 9.50879 16.2806 9.55859 16.4023 9.6582C16.5241 9.75781 16.6292 9.87956 16.7178 10.0234C16.8174 10.1673 16.8893 10.3223 16.9336 10.4883C16.9889 10.6432 17.0166 10.7871 17.0166 10.9199C17.0166 11.0638 16.9613 11.1634 16.8506 11.2188C16.7399 11.2741 16.6126 11.3018 16.4688 11.3018C16.3802 11.3018 16.3027 11.2852 16.2363 11.252C16.1699 11.2077 16.109 11.1579 16.0537 11.1025C16.0094 11.0472 15.9596 10.9919 15.9043 10.9365C15.849 10.8812 15.777 10.8424 15.6885 10.8203H15.6719H15.6221C15.611 10.8314 15.5833 10.859 15.5391 10.9033C15.5059 10.9365 15.4837 10.9642 15.4727 10.9863C15.2402 11.263 15.0244 11.512 14.8252 11.7334C14.626 11.9437 14.4489 12.1595 14.2939 12.3809C14.1501 12.6022 14.0339 12.8402 13.9453 13.0947C13.8678 13.3493 13.8291 13.6536 13.8291 14.0078C13.8291 14.041 13.8291 14.0908 13.8291 14.1572C13.8291 14.2236 13.8291 14.29 13.8291 14.3564C13.8402 14.4229 13.8457 14.4893 13.8457 14.5557C13.8457 14.6221 13.8457 14.6719 13.8457 14.7051C13.8678 14.8158 13.9287 14.8988 14.0283 14.9541C14.139 15.0094 14.2386 15.0648 14.3271 15.1201C14.3604 15.1201 14.4434 15.1257 14.5762 15.1367C14.709 15.1367 14.7865 15.1367 14.8086 15.1367C15.207 15.1367 15.6774 15.0758 16.2197 14.9541C16.762 14.8213 17.3044 14.6497 17.8467 14.4395C18.4001 14.2292 18.9202 13.9801 19.4072 13.6924C19.8942 13.3936 20.2816 13.0837 20.5693 12.7627C20.6357 12.6742 20.6911 12.5524 20.7354 12.3975C20.7907 12.2425 20.846 12.0931 20.9014 11.9492C20.9678 11.7943 21.0397 11.6615 21.1172 11.5508C21.1947 11.4401 21.3109 11.3848 21.4658 11.3848C21.6097 11.3848 21.6982 11.4456 21.7314 11.5674C21.7757 11.6781 21.7979 11.7887 21.7979 11.8994C21.7979 12.2536 21.7093 12.5745 21.5322 12.8623C21.3662 13.1501 21.1559 13.4102 20.9014 13.6426C20.6468 13.875 20.3646 14.0798 20.0547 14.2568C19.7559 14.4339 19.4681 14.5833 19.1914 14.7051C19.1139 14.7272 18.9424 14.7881 18.6768 14.8877C18.4222 14.9873 18.1455 15.0924 17.8467 15.2031C17.5479 15.3138 17.2546 15.4245 16.9668 15.5352C16.6901 15.6348 16.4854 15.7122 16.3525 15.7676C16.1755 15.8229 16.026 15.8672 15.9043 15.9004C15.7826 15.9225 15.6719 15.9447 15.5723 15.9668C15.4727 15.9889 15.3675 16 15.2568 16C15.1572 16.0111 15.0355 16.0166 14.8916 16.0166C14.4932 16.0166 14.1611 15.9668 13.8955 15.8672C13.641 15.7676 13.4362 15.6237 13.2812 15.4355C13.1263 15.2363 13.0101 14.9984 12.9326 14.7217C12.8662 14.4339 12.8219 14.1019 12.7998 13.7256ZM21.499 15.502C21.499 15.4688 21.499 15.3857 21.499 15.2529C21.499 15.1201 21.499 15.0316 21.499 14.9873C21.3109 14.3232 21.2832 13.6702 21.416 13.0283C21.5599 12.3864 21.8089 11.8109 22.1631 11.3018C22.5283 10.7816 22.9876 10.3499 23.541 10.0068C24.1055 9.65267 24.7197 9.43685 25.3838 9.35938H25.6826C25.9261 9.35938 26.1253 9.41471 26.2803 9.52539C26.4463 9.625 26.5736 9.75781 26.6621 9.92383C26.7617 10.0898 26.8281 10.278 26.8613 10.4883C26.9056 10.6986 26.9277 10.9089 26.9277 11.1191C26.9277 11.4069 26.8945 11.6891 26.8281 11.9658C26.7728 12.2314 26.7064 12.5026 26.6289 12.7793C26.5625 13.056 26.4961 13.3327 26.4297 13.6094C26.3743 13.875 26.3467 14.1572 26.3467 14.4561V14.5557C26.3577 14.5778 26.3688 14.6442 26.3799 14.7549C26.402 14.8545 26.4186 14.9154 26.4297 14.9375C26.4518 14.9375 26.5072 14.943 26.5957 14.9541C26.6842 14.9541 26.7396 14.9541 26.7617 14.9541C26.8724 14.9541 26.9775 14.9541 27.0771 14.9541C27.1878 14.943 27.2985 14.9154 27.4092 14.8711L30.5635 13.4102C30.5745 13.4102 30.5911 13.4102 30.6133 13.4102C30.6465 13.3991 30.6686 13.3936 30.6797 13.3936C30.7904 13.3936 30.8789 13.4268 30.9453 13.4932C31.0228 13.5596 31.0615 13.6481 31.0615 13.7588C31.0615 13.8141 31.056 13.8695 31.0449 13.9248C31.0449 13.9691 31.0173 14.0133 30.9619 14.0576C30.8844 14.113 30.7406 14.1904 30.5303 14.29C30.3311 14.3896 30.1152 14.5003 29.8828 14.6221C29.6504 14.7438 29.429 14.86 29.2188 14.9707C29.0195 15.0814 28.8757 15.1533 28.7871 15.1865C28.6322 15.2751 28.4606 15.3581 28.2725 15.4355C28.0843 15.502 27.8906 15.5684 27.6914 15.6348C27.4922 15.7012 27.293 15.7565 27.0938 15.8008C26.9056 15.834 26.734 15.8506 26.5791 15.8506C26.3356 15.8506 26.1364 15.8118 25.9814 15.7344C25.8265 15.6458 25.7103 15.5352 25.6328 15.4023C25.5553 15.2585 25.5 15.0924 25.4668 14.9043C25.4447 14.7051 25.4447 14.5003 25.4668 14.29C25.2454 14.4671 25.0075 14.6553 24.7529 14.8545C24.4984 15.0537 24.2327 15.2363 23.9561 15.4023C23.6794 15.5684 23.3971 15.7122 23.1094 15.834C22.8216 15.9557 22.5283 16.0166 22.2295 16.0166C22.0635 16.0166 21.9141 15.9779 21.7812 15.9004C21.6484 15.8118 21.5544 15.679 21.499 15.502ZM22.3955 15.1533C22.6501 15.1533 22.9323 15.0814 23.2422 14.9375C23.5521 14.7826 23.8564 14.5944 24.1553 14.373C24.4541 14.1517 24.7253 13.9193 24.9688 13.6758C25.2122 13.4212 25.4004 13.1943 25.5332 12.9951C25.5443 12.6631 25.5885 12.3477 25.666 12.0488C25.7546 11.7389 25.7988 11.4235 25.7988 11.1025C25.7988 11.0804 25.7933 11.0472 25.7822 11.0029C25.7822 10.9587 25.7822 10.9255 25.7822 10.9033C25.6383 10.7816 25.5166 10.7096 25.417 10.6875C25.3174 10.6654 25.1846 10.6543 25.0186 10.6543C24.9964 10.6543 24.9466 10.6543 24.8691 10.6543C24.8027 10.6543 24.7585 10.6598 24.7363 10.6709C24.6699 10.7262 24.5592 10.8314 24.4043 10.9863C24.2493 11.1302 24.0833 11.2907 23.9062 11.4678C23.7402 11.6449 23.5798 11.8109 23.4248 11.9658C23.2809 12.1208 23.1813 12.2259 23.126 12.2812C23.1149 12.2812 23.0928 12.3034 23.0596 12.3477C23.0264 12.3809 22.9876 12.4251 22.9434 12.4805C22.9102 12.5358 22.877 12.5911 22.8438 12.6465C22.8216 12.6908 22.805 12.7295 22.7939 12.7627L22.3955 14.7051V15.1533ZM30.3311 15.668L30.8955 12.3477V11.8828L31.2275 9.6748C31.2607 9.63053 31.3216 9.6084 31.4102 9.6084C31.4987 9.59733 31.5596 9.5918 31.5928 9.5918C31.6813 9.5918 31.7809 9.625 31.8916 9.69141C32.0133 9.74674 32.0742 9.82422 32.0742 9.92383V11.0527C32.1185 11.0195 32.196 10.9531 32.3066 10.8535C32.4173 10.7539 32.5335 10.6488 32.6553 10.5381C32.7881 10.4274 32.9098 10.3223 33.0205 10.2227C33.1312 10.123 33.2031 10.0511 33.2363 10.0068C33.3581 9.89616 33.502 9.80208 33.668 9.72461C33.8451 9.64714 34.0111 9.6084 34.166 9.6084C34.487 9.6084 34.736 9.70801 34.9131 9.90723C35.1012 10.1064 35.1953 10.361 35.1953 10.6709C35.1953 10.693 35.1898 10.7096 35.1787 10.7207C35.1787 10.7207 35.1787 10.7318 35.1787 10.7539V10.8203L34.5479 13.6592V15.0039C34.891 15.0039 35.2451 14.9375 35.6104 14.8047C35.9867 14.6608 36.3464 14.4837 36.6895 14.2734C37.0326 14.0632 37.3535 13.8252 37.6523 13.5596C37.9512 13.2829 38.2113 13.0173 38.4326 12.7627H38.499C38.5765 12.7627 38.6374 12.7904 38.6816 12.8457C38.737 12.89 38.7646 12.9508 38.7646 13.0283C38.7646 13.2718 38.6816 13.5153 38.5156 13.7588C38.3607 13.9912 38.1559 14.2126 37.9014 14.4229C37.6579 14.6331 37.3701 14.8324 37.0381 15.0205C36.7171 15.2087 36.3962 15.3691 36.0752 15.502C35.7653 15.6348 35.4609 15.7399 35.1621 15.8174C34.8633 15.8949 34.6087 15.9336 34.3984 15.9336C34.1882 15.9336 34.0221 15.8949 33.9004 15.8174C33.7786 15.7399 33.6846 15.6403 33.6182 15.5186C33.5628 15.3857 33.5241 15.2419 33.502 15.0869C33.4909 14.932 33.4854 14.766 33.4854 14.5889V14.373L34.1328 11.1523V10.6045C33.8672 10.6045 33.6016 10.7207 33.3359 10.9531C33.0814 11.1855 32.849 11.4678 32.6387 11.7998C32.4395 12.1318 32.2624 12.4694 32.1074 12.8125C31.9635 13.1556 31.8584 13.4378 31.792 13.6592C31.7699 13.7367 31.7367 13.875 31.6924 14.0742C31.6481 14.2734 31.6038 14.4837 31.5596 14.7051C31.5264 14.9264 31.4932 15.1367 31.46 15.3359C31.4268 15.5352 31.4046 15.679 31.3936 15.7676C31.4046 15.834 31.3825 15.8838 31.3271 15.917C31.2829 15.9502 31.2275 15.9779 31.1611 16C31.0947 16.0111 31.0228 16.0166 30.9453 16.0166C30.8789 16.0166 30.8236 16.0166 30.7793 16.0166C30.6797 16.0166 30.5801 16 30.4805 15.9668C30.3809 15.9336 30.3311 15.8506 30.3311 15.7178V15.668ZM46.0029 11.5508C46.0251 11.5065 46.0693 11.4401 46.1357 11.3516C46.2021 11.252 46.2354 11.1689 46.2354 11.1025V11.0527C46.2354 11.0417 46.2243 11.0306 46.2021 11.0195C46.18 10.9974 46.1634 10.9863 46.1523 10.9863H45.8535C45.5658 11.0749 45.2448 11.1357 44.8906 11.1689C44.5254 11.2021 44.1768 11.2132 43.8447 11.2021C43.5016 11.1911 43.2083 11.1634 42.9648 11.1191C42.7214 11.0638 42.5775 11.0029 42.5332 10.9365C42.4889 10.8701 42.5719 10.7926 42.7822 10.7041C42.9925 10.6045 43.391 10.5049 43.9775 10.4053C44.0107 10.4053 44.0882 10.3942 44.21 10.3721C44.3206 10.3389 44.4479 10.3112 44.5918 10.2891C44.7246 10.2669 44.8519 10.2448 44.9736 10.2227C45.0954 10.1895 45.1729 10.1729 45.2061 10.1729C45.2503 10.1618 45.3444 10.1562 45.4883 10.1562C45.6322 10.1452 45.776 10.1341 45.9199 10.123C46.0749 10.112 46.2188 10.1064 46.3516 10.1064C46.4954 10.1064 46.5951 10.1064 46.6504 10.1064L46.7334 10.0068L48.0283 7.83203C48.0726 7.75456 48.1501 7.69368 48.2607 7.64941C48.3825 7.60514 48.4766 7.58301 48.543 7.58301C48.6868 7.58301 48.7865 7.64388 48.8418 7.76562C48.8971 7.8763 48.9248 7.98698 48.9248 8.09766C48.9248 8.10872 48.9193 8.11979 48.9082 8.13086C48.9082 8.14193 48.9082 8.15299 48.9082 8.16406V8.23047L48.1777 10.0068V10.1064C48.1999 10.04 48.2386 10.0068 48.2939 10.0068C48.3604 10.0068 48.4102 10.0068 48.4434 10.0068C48.6094 10.0068 48.7699 10.0622 48.9248 10.1729C49.0798 10.2835 49.1572 10.4329 49.1572 10.6211C49.1572 10.7096 49.1296 10.7816 49.0742 10.8369C49.0189 10.8923 48.9525 10.9365 48.875 10.9697C48.7975 11.0029 48.7145 11.0306 48.626 11.0527C48.5374 11.0638 48.46 11.0693 48.3936 11.0693C48.2607 11.0693 48.1335 11.0527 48.0117 11.0195C47.901 10.9863 47.7793 10.9697 47.6465 10.9697C47.5247 10.9697 47.4141 11.0361 47.3145 11.1689C47.2148 11.2907 47.1208 11.4567 47.0322 11.667C46.9548 11.8662 46.8883 12.0931 46.833 12.3477C46.7777 12.6022 46.7279 12.8512 46.6836 13.0947C46.6393 13.3382 46.6061 13.5651 46.584 13.7754C46.5729 13.9857 46.5674 14.1462 46.5674 14.2568C46.5674 14.3011 46.5674 14.3896 46.5674 14.5225C46.5785 14.6553 46.584 14.7438 46.584 14.7881C46.5951 14.8545 46.6227 14.9154 46.667 14.9707C46.7113 15.015 46.7555 15.0648 46.7998 15.1201H47.1816C47.6243 15.1201 48.0615 15.0205 48.4932 14.8213C48.9359 14.6221 49.3509 14.3952 49.7383 14.1406C49.7604 14.1296 49.8102 14.0798 49.8877 13.9912C49.9762 13.8916 50.0703 13.7975 50.1699 13.709C50.2695 13.6094 50.3581 13.5208 50.4355 13.4434C50.5241 13.3659 50.585 13.3271 50.6182 13.3271C50.6956 13.3271 50.7676 13.3659 50.834 13.4434C50.9004 13.5208 50.9336 13.6038 50.9336 13.6924C50.9336 13.9027 50.8561 14.1074 50.7012 14.3066C50.5573 14.5059 50.3691 14.694 50.1367 14.8711C49.9043 15.0371 49.6387 15.1921 49.3398 15.3359C49.041 15.4798 48.7422 15.6016 48.4434 15.7012C48.1556 15.8008 47.8789 15.8783 47.6133 15.9336C47.3587 15.9889 47.1484 16.0166 46.9824 16.0166C46.8275 16.0166 46.667 16 46.501 15.9668C46.335 15.9225 46.1855 15.8561 46.0527 15.7676C45.9199 15.679 45.8092 15.5684 45.7207 15.4355C45.6322 15.3027 45.5879 15.1367 45.5879 14.9375V13.0947L46.0029 11.5508ZM50.4355 14.7051C50.4355 14.694 50.4411 14.6553 50.4521 14.5889C50.4632 14.5225 50.4743 14.4561 50.4854 14.3896C50.4964 14.3122 50.5075 14.2458 50.5186 14.1904C50.5296 14.124 50.5352 14.0798 50.5352 14.0576V13.9912V13.8916L50.7676 12.8457C50.9557 12.4473 51.1494 12.0654 51.3486 11.7002C51.5589 11.335 51.7969 11.014 52.0625 10.7373C52.3281 10.4606 52.6325 10.2393 52.9756 10.0732C53.3298 9.90723 53.7559 9.82422 54.2539 9.82422C54.3535 9.82422 54.4753 9.85742 54.6191 9.92383C54.7741 9.97917 54.9235 10.0511 55.0674 10.1396C55.2223 10.2282 55.3607 10.3223 55.4824 10.4219C55.6152 10.5104 55.7148 10.5934 55.7812 10.6709C56.1243 10.6156 56.3734 10.5879 56.5283 10.5879C56.6833 10.5768 56.8161 10.5713 56.9268 10.5713C57.0374 10.5602 57.1536 10.5381 57.2754 10.5049C57.4082 10.4717 57.6074 10.3997 57.873 10.2891C58.0612 10.2337 58.2438 10.2061 58.4209 10.2061C58.4984 10.2061 58.5703 10.2393 58.6367 10.3057C58.7142 10.3721 58.7529 10.4495 58.7529 10.5381C58.7529 10.6488 58.7142 10.7484 58.6367 10.8369C58.5592 10.9255 58.4652 10.9808 58.3545 11.0029L56.2793 11.4678L56.0967 11.5508C56.0856 12.1484 55.9528 12.7184 55.6982 13.2607C55.4437 13.8031 55.1061 14.279 54.6855 14.6885C54.265 15.098 53.778 15.4245 53.2246 15.668C52.6712 15.9004 52.0957 16.0166 51.498 16.0166C51.4538 16.0166 51.3818 16.0111 51.2822 16C51.1826 16 51.1162 16 51.083 16C50.8395 15.9004 50.668 15.7178 50.5684 15.4521C50.4798 15.1865 50.4355 14.9375 50.4355 14.7051ZM51.498 15.0371C51.5091 15.0924 51.5534 15.1201 51.6309 15.1201C51.7083 15.1201 51.7637 15.1201 51.7969 15.1201C52.1953 15.1201 52.6048 15.0205 53.0254 14.8213C53.446 14.611 53.8223 14.3454 54.1543 14.0244C54.4974 13.6924 54.7741 13.3216 54.9844 12.9121C55.2057 12.4915 55.3164 12.071 55.3164 11.6504C54.9622 11.6504 54.6081 11.6227 54.2539 11.5674C53.8997 11.501 53.5566 11.4678 53.2246 11.4678H53.208L51.8301 12.9287C51.7526 13.0062 51.6917 13.1113 51.6475 13.2441C51.6032 13.377 51.57 13.5208 51.5479 13.6758C51.5257 13.8307 51.5091 13.9857 51.498 14.1406C51.487 14.2956 51.4814 14.4339 51.4814 14.5557C51.4814 14.5889 51.4814 14.6663 51.4814 14.7881C51.4814 14.9098 51.487 14.9928 51.498 15.0371ZM66.6553 15.3525C66.6331 15.3193 66.5999 15.2585 66.5557 15.1699C66.5225 15.0703 66.4837 14.9652 66.4395 14.8545C66.3952 14.7327 66.3564 14.6221 66.3232 14.5225C66.29 14.4229 66.2679 14.3454 66.2568 14.29C66.2568 14.29 66.2513 14.2402 66.2402 14.1406C66.2402 14.0299 66.2402 13.9414 66.2402 13.875C66.2402 13.6426 66.2513 13.4046 66.2734 13.1611C66.2956 12.9176 66.3454 12.6742 66.4229 12.4307C66.4561 12.3753 66.5169 12.2646 66.6055 12.0986C66.694 11.9215 66.7881 11.7389 66.8877 11.5508C66.9984 11.3626 67.098 11.1855 67.1865 11.0195C67.2751 10.8424 67.3415 10.7262 67.3857 10.6709C67.6624 10.1839 68.0111 9.75228 68.4316 9.37598C68.8633 8.99967 69.3005 8.64551 69.7432 8.31348C69.7874 8.28027 69.8815 8.2028 70.0254 8.08105C70.1803 7.95931 70.3519 7.83203 70.54 7.69922C70.7282 7.56641 70.8997 7.43913 71.0547 7.31738C71.2207 7.19564 71.3203 7.1237 71.3535 7.10156C71.3646 7.09049 71.3812 7.07389 71.4033 7.05176C71.4255 7.02962 71.4421 7.01855 71.4531 7.01855V6.96875V6.93555C71.1211 6.86914 70.7946 6.7972 70.4736 6.71973C70.1637 6.63118 69.887 6.50944 69.6436 6.35449C69.4001 6.18848 69.2064 5.98372 69.0625 5.74023C68.9186 5.48568 68.8467 5.16471 68.8467 4.77734C68.8467 4.30143 68.9795 3.89746 69.2451 3.56543C69.5107 3.22233 69.8372 2.9401 70.2246 2.71875C70.623 2.48633 71.0492 2.32031 71.5029 2.2207C71.9567 2.11003 72.3773 2.05469 72.7646 2.05469C72.9639 2.05469 73.1686 2.07129 73.3789 2.10449C73.6003 2.12663 73.7995 2.18197 73.9766 2.27051C74.1647 2.34798 74.3141 2.46419 74.4248 2.61914C74.5465 2.76302 74.6074 2.96224 74.6074 3.2168C74.6074 3.37174 74.5576 3.49349 74.458 3.58203C74.3695 3.65951 74.2533 3.69824 74.1094 3.69824C73.9766 3.69824 73.888 3.66504 73.8438 3.59863C73.7995 3.52116 73.7441 3.43815 73.6777 3.34961C73.6224 3.25 73.5283 3.16146 73.3955 3.08398C73.2738 3.00651 73.069 2.96777 72.7812 2.96777C72.5378 2.96777 72.2943 2.98991 72.0508 3.03418C71.8184 3.06738 71.5859 3.07292 71.3535 3.05078C71.1654 3.10612 70.9717 3.19466 70.7725 3.31641C70.5843 3.42708 70.4128 3.5599 70.2578 3.71484C70.1029 3.86979 69.9756 4.04688 69.876 4.24609C69.7764 4.43424 69.7266 4.639 69.7266 4.86035C69.7266 5.17025 69.804 5.4082 69.959 5.57422C70.1139 5.72917 70.3076 5.84538 70.54 5.92285C70.7835 5.98926 71.0381 6.02799 71.3037 6.03906C71.5804 6.05013 71.835 6.07227 72.0674 6.10547C72.3109 6.1276 72.5101 6.18294 72.665 6.27148C72.82 6.34896 72.8975 6.49284 72.8975 6.70312V6.85254L72.3994 7.33398C72.3441 7.38932 72.2445 7.4668 72.1006 7.56641C71.9678 7.65495 71.8184 7.76009 71.6523 7.88184C71.4974 7.99251 71.3258 8.11979 71.1377 8.26367C70.9606 8.39648 70.7891 8.52376 70.623 8.64551C70.4681 8.76725 70.3187 8.87793 70.1748 8.97754C70.042 9.07715 69.9479 9.15462 69.8926 9.20996C69.5827 9.46452 69.2673 9.75781 68.9463 10.0898C68.6253 10.4108 68.3265 10.765 68.0498 11.1523C67.7842 11.5286 67.5628 11.9271 67.3857 12.3477C67.2197 12.7572 67.1367 13.1777 67.1367 13.6094C67.1367 14.1185 67.2363 14.4837 67.4355 14.7051C67.6348 14.9264 67.9668 15.0371 68.4316 15.0371C68.8854 15.0371 69.3392 14.9707 69.793 14.8379C70.2578 14.7051 70.7116 14.5335 71.1543 14.3232C71.597 14.1019 72.0176 13.8584 72.416 13.5928C72.8255 13.3161 73.2018 13.0394 73.5449 12.7627H73.6113C73.6999 12.7627 73.7773 12.7904 73.8438 12.8457C73.9212 12.89 73.96 12.9564 73.96 13.0449C73.96 13.1003 73.9268 13.1722 73.8604 13.2607C73.805 13.3382 73.7386 13.4102 73.6611 13.4766C73.5947 13.543 73.5339 13.6038 73.4785 13.6592C73.4232 13.7035 73.3955 13.7256 73.3955 13.7256C73.0303 14.0023 72.6374 14.2734 72.2168 14.5391C71.8073 14.7936 71.3812 15.026 70.9385 15.2363C70.5068 15.4466 70.0586 15.6182 69.5938 15.751C69.14 15.8727 68.6751 15.9336 68.1992 15.9336C68.1549 15.9336 68.0498 15.9336 67.8838 15.9336C67.7178 15.9336 67.6126 15.9336 67.5684 15.9336C67.2031 15.834 66.8988 15.6403 66.6553 15.3525ZM75.1221 15.668C75.1221 15.6126 75.1221 15.5628 75.1221 15.5186C75.1221 15.4632 75.1497 15.4079 75.2051 15.3525C75.4818 15.0426 75.7419 14.766 75.9854 14.5225C76.2288 14.2679 76.4723 14.041 76.7158 13.8418C76.9704 13.6315 77.2305 13.4323 77.4961 13.2441C77.7617 13.0449 78.0495 12.8346 78.3594 12.6133C78.3815 12.6022 78.4092 12.5745 78.4424 12.5303C78.4867 12.486 78.5143 12.4528 78.5254 12.4307C78.5475 12.3311 78.5752 12.1982 78.6084 12.0322C78.6416 11.8551 78.6693 11.667 78.6914 11.4678C78.7135 11.2686 78.7357 11.0693 78.7578 10.8701C78.7799 10.6598 78.791 10.4717 78.791 10.3057C78.791 10.2393 78.7855 10.1673 78.7744 10.0898C78.7744 10.0013 78.7246 9.94596 78.625 9.92383C78.6139 9.92383 78.5863 9.9349 78.542 9.95703C78.4977 9.97917 78.4645 9.99577 78.4424 10.0068L76.0186 11.9492L75.9355 12.0488L76.0186 10.8203C76.1956 10.6875 76.4004 10.516 76.6328 10.3057C76.8652 10.0843 77.1087 9.87402 77.3633 9.6748C77.6289 9.47559 77.8945 9.30404 78.1602 9.16016C78.4368 9.01628 78.7025 8.94434 78.957 8.94434C79.1452 8.94434 79.2891 8.98861 79.3887 9.07715C79.4993 9.16569 79.5768 9.2819 79.6211 9.42578C79.6764 9.55859 79.7096 9.70801 79.7207 9.87402C79.7318 10.029 79.7373 10.1784 79.7373 10.3223C79.7373 10.5768 79.7207 10.8258 79.6875 11.0693C79.6654 11.3128 79.6543 11.5508 79.6543 11.7832V11.8828C79.7428 11.8385 79.8867 11.7611 80.0859 11.6504C80.2852 11.5397 80.4954 11.429 80.7168 11.3184C80.9382 11.1966 81.1484 11.0859 81.3477 10.9863C81.5469 10.8757 81.6908 10.7926 81.7793 10.7373C81.8014 10.7262 81.8402 10.6986 81.8955 10.6543C81.9619 10.61 82.0283 10.5602 82.0947 10.5049C82.1611 10.4495 82.222 10.3997 82.2773 10.3555C82.3438 10.3001 82.388 10.2669 82.4102 10.2559H82.5098C82.5651 10.2559 82.626 10.278 82.6924 10.3223C82.7588 10.3555 82.8197 10.3997 82.875 10.4551C82.9303 10.5104 82.9746 10.5713 83.0078 10.6377C83.0521 10.693 83.0742 10.7539 83.0742 10.8203C83.0742 10.8535 83.0687 10.8978 83.0576 10.9531C83.0465 10.9974 83.0244 11.0306 82.9912 11.0527L79.6543 12.9287C79.5879 12.9619 79.5547 13.0007 79.5547 13.0449C79.5658 13.0781 79.5713 13.1335 79.5713 13.2109C79.5713 13.4876 79.6156 13.7145 79.7041 13.8916C79.8037 14.0576 79.9255 14.1904 80.0693 14.29C80.2243 14.3896 80.4069 14.4616 80.6172 14.5059C80.8385 14.5391 81.071 14.5557 81.3145 14.5557C81.4805 14.5557 81.6631 14.5391 81.8623 14.5059C82.0615 14.4616 82.2441 14.445 82.4102 14.4561C82.4655 14.445 82.554 14.4229 82.6758 14.3896C82.8086 14.3564 82.9469 14.3177 83.0908 14.2734C83.2458 14.2292 83.3896 14.1904 83.5225 14.1572C83.6553 14.113 83.7438 14.0798 83.7881 14.0576C83.8766 14.0133 83.9818 13.9469 84.1035 13.8584C84.2253 13.7588 84.347 13.6592 84.4688 13.5596C84.6016 13.4489 84.7288 13.3548 84.8506 13.2773C84.9834 13.1999 85.1051 13.1611 85.2158 13.1611C85.404 13.1611 85.498 13.2552 85.498 13.4434C85.498 13.6536 85.4095 13.8473 85.2324 14.0244C85.0664 14.2015 84.8506 14.3675 84.585 14.5225C84.3304 14.6663 84.0426 14.7936 83.7217 14.9043C83.4118 15.015 83.1019 15.1146 82.792 15.2031C82.4821 15.2806 82.1999 15.3415 81.9453 15.3857C81.7018 15.4189 81.5137 15.4355 81.3809 15.4355C81.0267 15.4355 80.6891 15.4079 80.3682 15.3525C80.0583 15.2972 79.776 15.1976 79.5215 15.0537C79.278 14.9098 79.0677 14.7217 78.8906 14.4893C78.7246 14.2458 78.6029 13.9359 78.5254 13.5596C77.9609 13.8584 77.4186 14.2292 76.8984 14.6719C76.3783 15.1146 75.8968 15.5573 75.4541 16C75.443 16.0111 75.432 16.0166 75.4209 16.0166H75.3711C75.2715 16.0166 75.2051 15.9834 75.1719 15.917C75.1387 15.8395 75.1221 15.7565 75.1221 15.668ZM84.2529 19.5361C84.2529 19.2152 84.2917 18.8555 84.3691 18.457C84.4466 18.0697 84.5296 17.6768 84.6182 17.2783C84.7067 16.891 84.7897 16.5091 84.8672 16.1328C84.9447 15.7565 84.9834 15.4023 84.9834 15.0703V14.9375L85.3818 13.8252C85.5257 13.5042 85.6917 13.1722 85.8799 12.8291C86.068 12.486 86.2783 12.1706 86.5107 11.8828C86.7542 11.584 87.0309 11.335 87.3408 11.1357C87.6507 10.9255 87.9993 10.7926 88.3867 10.7373C88.5195 10.7152 88.6634 10.7428 88.8184 10.8203C88.9733 10.8867 89.1172 10.9753 89.25 11.0859C89.3939 11.1966 89.5101 11.3239 89.5986 11.4678C89.6872 11.6117 89.7425 11.75 89.7646 11.8828C89.7646 11.9049 89.7646 11.9492 89.7646 12.0156C89.7646 12.082 89.7646 12.154 89.7646 12.2314C89.7646 12.3089 89.7646 12.3809 89.7646 12.4473C89.7646 12.5137 89.7646 12.5635 89.7646 12.5967C89.7646 12.9066 89.7204 13.2054 89.6318 13.4932C89.5433 13.7809 89.499 14.0576 89.499 14.3232V14.373C89.5322 14.3509 89.6097 14.3122 89.7314 14.2568C89.8532 14.2015 89.9915 14.1406 90.1465 14.0742C90.3125 14.0078 90.4896 13.9359 90.6777 13.8584C90.877 13.7809 91.0651 13.709 91.2422 13.6426C91.4193 13.5762 91.5742 13.5264 91.707 13.4932C91.8509 13.4489 91.9505 13.4268 92.0059 13.4268C92.1387 13.4268 92.2161 13.4489 92.2383 13.4932C92.2715 13.5264 92.2881 13.5872 92.2881 13.6758C92.2881 13.7975 92.2161 13.9193 92.0723 14.041C91.9284 14.1628 91.7402 14.279 91.5078 14.3896C91.2865 14.5003 91.0374 14.6055 90.7607 14.7051C90.4951 14.7936 90.235 14.8766 89.9805 14.9541C89.737 15.0316 89.5212 15.109 89.333 15.1865C89.1449 15.2529 89.0176 15.3027 88.9512 15.3359C88.8294 15.4245 88.7132 15.5186 88.6025 15.6182C88.5029 15.7178 88.3978 15.8063 88.2871 15.8838C88.1764 15.9613 88.0602 16.0277 87.9385 16.083C87.8167 16.1383 87.6784 16.166 87.5234 16.166C87.291 16.166 87.0641 16.1051 86.8428 15.9834C86.6325 15.8506 86.4388 15.7178 86.2617 15.585L86.1787 15.6514C86.1787 15.6624 86.14 15.8118 86.0625 16.0996C85.9961 16.3874 85.9131 16.7194 85.8135 17.0957C85.7249 17.4831 85.6309 17.8649 85.5312 18.2412C85.4427 18.6175 85.3708 18.9108 85.3154 19.1211C85.2933 19.2428 85.2767 19.3646 85.2656 19.4863C85.2546 19.6191 85.2269 19.7409 85.1826 19.8516C85.1494 19.9733 85.0885 20.0729 85 20.1504C84.9115 20.2279 84.7897 20.2666 84.6348 20.2666H84.4189C84.3525 20.1338 84.3083 20.012 84.2861 19.9014C84.264 19.8018 84.2529 19.68 84.2529 19.5361ZM86.4775 14.6387C86.5993 14.7161 86.7266 14.7604 86.8594 14.7715C86.9922 14.7826 87.1195 14.7826 87.2412 14.7715C87.374 14.7493 87.5013 14.7217 87.623 14.6885C87.7559 14.6553 87.8831 14.6387 88.0049 14.6387C88.027 14.6387 88.0768 14.6387 88.1543 14.6387C88.2318 14.6276 88.276 14.6221 88.2871 14.6221C88.4199 14.5557 88.5251 14.4339 88.6025 14.2568C88.68 14.0798 88.7354 13.8916 88.7686 13.6924C88.8128 13.4932 88.8405 13.2995 88.8516 13.1113C88.8626 12.9121 88.8682 12.7572 88.8682 12.6465C88.8682 12.5469 88.8626 12.4417 88.8516 12.3311C88.8405 12.2204 88.8128 12.1208 88.7686 12.0322C88.7354 11.9326 88.6855 11.8496 88.6191 11.7832C88.5527 11.7168 88.4587 11.6836 88.3369 11.6836C88.3148 11.6836 88.276 11.6891 88.2207 11.7002C88.1764 11.7002 88.1432 11.7002 88.1211 11.7002C88.0768 11.833 87.9827 12.0156 87.8389 12.248C87.7061 12.4694 87.5622 12.7018 87.4072 12.9453C87.2633 13.1888 87.1305 13.4268 87.0088 13.6592C86.887 13.8805 86.8262 14.0521 86.8262 14.1738L86.4775 14.6387ZM92.0723 12.9951C92.0723 12.9951 92.0778 12.9896 92.0889 12.9785C92.111 12.9564 92.1276 12.9398 92.1387 12.9287C92.1608 12.8291 92.2051 12.6576 92.2715 12.4141C92.3379 12.1706 92.4098 11.9105 92.4873 11.6338C92.5648 11.346 92.6367 11.0804 92.7031 10.8369C92.7806 10.5934 92.8359 10.4274 92.8691 10.3389C92.8802 10.2946 92.9134 10.2005 92.9688 10.0566C93.0352 9.90169 93.1071 9.73568 93.1846 9.55859C93.262 9.38151 93.3395 9.20443 93.417 9.02734C93.4945 8.85026 93.5498 8.71745 93.583 8.62891C93.6605 8.47396 93.7767 8.26921 93.9316 8.01465C94.0977 7.76009 94.2803 7.52214 94.4795 7.30078C94.6898 7.06836 94.9056 6.86914 95.127 6.70312C95.3483 6.52604 95.5531 6.4375 95.7412 6.4375C95.8408 6.4375 95.9183 6.46517 95.9736 6.52051C96.04 6.57585 96.0843 6.64225 96.1064 6.71973C96.1396 6.78613 96.1618 6.86361 96.1729 6.95215C96.1839 7.04069 96.1895 7.11816 96.1895 7.18457C96.1895 7.76009 96.1064 8.33561 95.9404 8.91113C95.7855 9.47559 95.5697 10.0179 95.293 10.5381C95.0163 11.0583 94.6842 11.5508 94.2969 12.0156C93.9206 12.4694 93.5221 12.8789 93.1016 13.2441C93.0905 13.2773 93.0739 13.3438 93.0518 13.4434C93.0407 13.543 93.0296 13.6149 93.0186 13.6592V13.6924C93.0186 13.9137 93.0739 14.0908 93.1846 14.2236C93.3063 14.3564 93.4502 14.4561 93.6162 14.5225C93.7822 14.5778 93.9648 14.6165 94.1641 14.6387C94.3743 14.6608 94.5736 14.6719 94.7617 14.6719C94.8613 14.6719 95.0052 14.6221 95.1934 14.5225C95.3926 14.4229 95.5918 14.3122 95.791 14.1904C96.0013 14.0576 96.2061 13.9414 96.4053 13.8418C96.6045 13.7422 96.7539 13.6924 96.8535 13.6924C96.9531 13.6924 97.0306 13.7256 97.0859 13.792C97.1413 13.8584 97.1689 13.9414 97.1689 14.041C97.1689 14.207 97.0417 14.3841 96.7871 14.5723C96.5326 14.7604 96.2393 14.9375 95.9072 15.1035C95.5752 15.2585 95.2542 15.3913 94.9443 15.502C94.6455 15.6126 94.4463 15.668 94.3467 15.668C94.0146 15.7344 93.7048 15.7399 93.417 15.6846C93.1292 15.6182 92.8802 15.513 92.6699 15.3691C92.4596 15.2142 92.2826 15.0316 92.1387 14.8213C92.0059 14.5999 91.9229 14.373 91.8896 14.1406L92.0723 12.9951ZM95.21 8.04785C95.1104 8.04785 94.9941 8.13086 94.8613 8.29688C94.7396 8.45182 94.6178 8.63444 94.4961 8.84473C94.3743 9.05501 94.2637 9.25977 94.1641 9.45898C94.0755 9.64714 94.0257 9.77441 94.0146 9.84082C93.9814 9.91829 93.9316 10.0456 93.8652 10.2227C93.7988 10.3997 93.7324 10.5879 93.666 10.7871C93.5996 10.9753 93.5332 11.1579 93.4668 11.335C93.4115 11.512 93.3727 11.6393 93.3506 11.7168H93.4336C93.4336 11.7168 93.4668 11.6781 93.5332 11.6006C93.5996 11.512 93.6715 11.4124 93.749 11.3018C93.8376 11.1911 93.9261 11.0804 94.0146 10.9697C94.1143 10.848 94.1862 10.7484 94.2305 10.6709C94.2747 10.6045 94.3356 10.5049 94.4131 10.3721C94.4906 10.2282 94.5404 10.1396 94.5625 10.1064C94.6068 9.9847 94.6676 9.82422 94.7451 9.625C94.8226 9.41471 94.8945 9.20996 94.9609 9.01074C95.0273 8.81152 95.0827 8.63997 95.127 8.49609C95.1823 8.34115 95.21 8.2526 95.21 8.23047V8.04785ZM96.8535 14.7051C96.8535 14.694 96.859 14.6553 96.8701 14.5889C96.8812 14.5225 96.8923 14.4561 96.9033 14.3896C96.9144 14.3122 96.9255 14.2458 96.9365 14.1904C96.9476 14.124 96.9531 14.0798 96.9531 14.0576V13.9912V13.8916L97.1855 12.8457C97.3737 12.4473 97.5674 12.0654 97.7666 11.7002C97.9769 11.335 98.2148 11.014 98.4805 10.7373C98.7461 10.4606 99.0505 10.2393 99.3936 10.0732C99.7477 9.90723 100.174 9.82422 100.672 9.82422C100.771 9.82422 100.893 9.85742 101.037 9.92383C101.192 9.97917 101.341 10.0511 101.485 10.1396C101.64 10.2282 101.779 10.3223 101.9 10.4219C102.033 10.5104 102.133 10.5934 102.199 10.6709C102.542 10.6156 102.791 10.5879 102.946 10.5879C103.101 10.5768 103.234 10.5713 103.345 10.5713C103.455 10.5602 103.572 10.5381 103.693 10.5049C103.826 10.4717 104.025 10.3997 104.291 10.2891C104.479 10.2337 104.662 10.2061 104.839 10.2061C104.916 10.2061 104.988 10.2393 105.055 10.3057C105.132 10.3721 105.171 10.4495 105.171 10.5381C105.171 10.6488 105.132 10.7484 105.055 10.8369C104.977 10.9255 104.883 10.9808 104.772 11.0029L102.697 11.4678L102.515 11.5508C102.504 12.1484 102.371 12.7184 102.116 13.2607C101.862 13.8031 101.524 14.279 101.104 14.6885C100.683 15.098 100.196 15.4245 99.6426 15.668C99.0892 15.9004 98.5137 16.0166 97.916 16.0166C97.8717 16.0166 97.7998 16.0111 97.7002 16C97.6006 16 97.5342 16 97.501 16C97.2575 15.9004 97.0859 15.7178 96.9863 15.4521C96.8978 15.1865 96.8535 14.9375 96.8535 14.7051ZM97.916 15.0371C97.9271 15.0924 97.9714 15.1201 98.0488 15.1201C98.1263 15.1201 98.1816 15.1201 98.2148 15.1201C98.6133 15.1201 99.0228 15.0205 99.4434 14.8213C99.8639 14.611 100.24 14.3454 100.572 14.0244C100.915 13.6924 101.192 13.3216 101.402 12.9121C101.624 12.4915 101.734 12.071 101.734 11.6504C101.38 11.6504 101.026 11.6227 100.672 11.5674C100.318 11.501 99.9746 11.4678 99.6426 11.4678H99.626L98.248 12.9287C98.1706 13.0062 98.1097 13.1113 98.0654 13.2441C98.0212 13.377 97.988 13.5208 97.9658 13.6758C97.9437 13.8307 97.9271 13.9857 97.916 14.1406C97.9049 14.2956 97.8994 14.4339 97.8994 14.5557C97.8994 14.5889 97.8994 14.6663 97.8994 14.7881C97.8994 14.9098 97.9049 14.9928 97.916 15.0371ZM104.258 14.0244C104.568 13.792 104.795 13.5651 104.938 13.3438C105.093 13.1224 105.215 12.901 105.304 12.6797C105.392 12.4583 105.464 12.2259 105.52 11.9824C105.575 11.7279 105.663 11.4512 105.785 11.1523C105.741 11.0749 105.713 11.0085 105.702 10.9531C105.702 10.8867 105.702 10.8092 105.702 10.7207C105.702 10.6322 105.713 10.527 105.735 10.4053C105.769 10.2835 105.813 10.1729 105.868 10.0732C105.924 9.96257 105.99 9.86849 106.067 9.79102C106.145 9.71354 106.239 9.6748 106.35 9.6748C106.339 9.71908 106.399 9.76888 106.532 9.82422C106.676 9.87956 106.848 9.94043 107.047 10.0068C107.257 10.0732 107.479 10.1452 107.711 10.2227C107.943 10.3001 108.148 10.3831 108.325 10.4717C108.524 10.5824 108.663 10.7041 108.74 10.8369C108.829 10.9587 108.873 11.1357 108.873 11.3682C108.873 11.5785 108.845 11.8164 108.79 12.082C108.746 12.3477 108.696 12.6188 108.641 12.8955C108.596 13.1611 108.547 13.4323 108.491 13.709C108.447 13.9746 108.425 14.2181 108.425 14.4395V14.8711C108.414 14.9707 108.436 15.026 108.491 15.0371C108.558 15.0371 108.618 15.0371 108.674 15.0371C108.807 15.0371 108.928 15.015 109.039 14.9707C109.15 14.9264 109.26 14.8766 109.371 14.8213C109.493 14.766 109.609 14.7161 109.72 14.6719C109.83 14.6165 109.947 14.5778 110.068 14.5557L111.529 13.6592C111.574 13.5817 111.629 13.5208 111.695 13.4766C111.773 13.4212 111.845 13.3714 111.911 13.3271C112.022 13.2607 112.155 13.1667 112.31 13.0449C112.387 12.9785 112.47 12.9121 112.559 12.8457H113.057C113.09 12.8457 113.112 12.8789 113.123 12.9453C113.134 13.0117 113.14 13.0615 113.14 13.0947C113.14 13.2275 113.046 13.3936 112.857 13.5928C112.669 13.792 112.426 13.9967 112.127 14.207C111.828 14.4173 111.496 14.6276 111.131 14.8379C110.766 15.0371 110.406 15.2197 110.052 15.3857C109.709 15.5518 109.388 15.6846 109.089 15.7842C108.801 15.8838 108.58 15.9336 108.425 15.9336C108.226 15.9336 108.065 15.8838 107.943 15.7842C107.822 15.6846 107.722 15.5628 107.645 15.4189C107.567 15.2751 107.512 15.1201 107.479 14.9541C107.456 14.777 107.445 14.6055 107.445 14.4395C107.445 14.3177 107.484 14.1462 107.562 13.9248C107.639 13.7035 107.728 13.4766 107.827 13.2441C107.927 13.0117 108.015 12.7848 108.093 12.5635C108.17 12.3421 108.209 12.165 108.209 12.0322C108.209 12.0212 108.126 11.9769 107.96 11.8994C107.805 11.8219 107.633 11.7389 107.445 11.6504C107.257 11.5508 107.08 11.4678 106.914 11.4014C106.759 11.3239 106.682 11.2796 106.682 11.2686C106.438 11.5231 106.267 11.7943 106.167 12.082C106.078 12.3698 105.984 12.6686 105.885 12.9785C105.796 13.2884 105.658 13.5983 105.47 13.9082C105.293 14.2181 104.988 14.5225 104.557 14.8213C104.546 14.8213 104.523 14.8158 104.49 14.8047C104.446 14.7936 104.407 14.766 104.374 14.7217C104.33 14.6663 104.297 14.5889 104.274 14.4893C104.252 14.3786 104.247 14.2236 104.258 14.0244ZM112.426 13.4102C112.448 13.3438 112.481 13.2275 112.525 13.0615C112.581 12.8844 112.631 12.6963 112.675 12.4971C112.73 12.2979 112.774 12.1097 112.808 11.9326C112.852 11.7445 112.885 11.6172 112.907 11.5508C112.974 11.2852 113.051 10.9974 113.14 10.6875C113.239 10.3776 113.372 10.0898 113.538 9.82422C113.704 9.55859 113.914 9.34277 114.169 9.17676C114.435 8.99967 114.761 8.91113 115.148 8.91113C115.292 8.91113 115.392 8.96647 115.447 9.07715C115.514 9.17676 115.569 9.28743 115.613 9.40918C115.613 9.45345 115.613 9.53646 115.613 9.6582C115.624 9.76888 115.63 9.84635 115.63 9.89062C115.63 10.3665 115.58 10.7871 115.48 11.1523C115.392 11.5176 115.248 11.8551 115.049 12.165C114.861 12.4749 114.628 12.7682 114.352 13.0449C114.075 13.3105 113.759 13.5928 113.405 13.8916C113.394 13.9248 113.378 13.9801 113.355 14.0576C113.333 14.1351 113.322 14.1904 113.322 14.2236V14.2568C113.322 14.4561 113.355 14.6165 113.422 14.7383C113.488 14.86 113.577 14.9596 113.688 15.0371C113.809 15.1035 113.942 15.1478 114.086 15.1699C114.241 15.181 114.407 15.1865 114.584 15.1865C115.104 15.1865 115.602 15.1146 116.078 14.9707C116.554 14.8268 116.991 14.5944 117.39 14.2734C117.445 14.2181 117.511 14.1406 117.589 14.041C117.677 13.9303 117.766 13.8197 117.854 13.709C117.943 13.5983 118.037 13.5042 118.137 13.4268C118.236 13.3382 118.341 13.2939 118.452 13.2939C118.563 13.2939 118.629 13.3382 118.651 13.4268C118.674 13.5153 118.685 13.6038 118.685 13.6924C118.685 13.9359 118.607 14.1683 118.452 14.3896C118.308 14.5999 118.115 14.7936 117.871 14.9707C117.639 15.1367 117.368 15.2861 117.058 15.4189C116.759 15.5518 116.46 15.6624 116.161 15.751C115.862 15.8395 115.575 15.9059 115.298 15.9502C115.032 15.9945 114.805 16.0166 114.617 16.0166C114.031 16.0166 113.538 15.9225 113.14 15.7344C112.752 15.5352 112.487 15.1423 112.343 14.5557L112.426 13.4102ZM114.8 10.1396C114.578 10.3389 114.401 10.5215 114.269 10.6875C114.147 10.8424 114.047 11.0085 113.97 11.1855C113.903 11.3516 113.842 11.5342 113.787 11.7334C113.743 11.9326 113.693 12.165 113.638 12.4307C113.848 12.2646 114.02 12.0986 114.152 11.9326C114.296 11.7666 114.412 11.5951 114.501 11.418C114.59 11.2409 114.656 11.0527 114.7 10.8535C114.744 10.6432 114.778 10.4053 114.8 10.1396Z" fill="#16B016"/>
</svg>
