<svg width="49" height="49" viewBox="0 0 49 49" fill="none" xmlns="http://www.w3.org/2000/svg">
<path d="M48.9999 23.1389C49.0093 26.7319 48.1698 30.2763 46.5499 33.4834C44.6292 37.3264 41.6765 40.5589 38.0224 42.8186C34.3684 45.0783 30.1574 46.2761 25.8611 46.2778C22.2681 46.2871 18.7237 45.4477 15.5166 43.8278L0 49L5.17221 33.4834C3.55231 30.2763 2.71285 26.7319 2.72222 23.1389C2.72388 18.8426 3.92166 14.6316 6.18139 10.9776C8.44112 7.32352 11.6736 4.37078 15.5166 2.45007C18.7237 0.830167 22.2681 -0.00929029 25.8611 7.75508e-05H27.2222C32.8962 0.31311 38.2554 2.70803 42.2737 6.72629C46.292 10.7446 48.6869 16.1038 48.9999 21.7778V23.1389Z" fill="black"/>
<path d="M37.9993 29.2199V32.6823C38.0006 33.0038 37.9346 33.3219 37.8056 33.6164C37.6766 33.911 37.4873 34.1753 37.25 34.3926C37.0127 34.6099 36.7325 34.7754 36.4274 34.8783C36.1223 34.9813 35.799 35.0196 35.4783 34.9906C31.9197 34.6047 28.5015 33.3912 25.4982 31.4474C22.7041 29.6754 20.3352 27.3112 18.5596 24.5226C16.6052 21.5116 15.389 18.0836 15.0094 14.5161C14.9805 14.197 15.0185 13.8753 15.121 13.5716C15.2235 13.2679 15.3882 12.9889 15.6047 12.7522C15.8212 12.5155 16.0846 12.3264 16.3784 12.1969C16.6721 12.0674 16.9896 12.0004 17.3107 12.0001H20.78C21.3412 11.9946 21.8853 12.1929 22.3108 12.5582C22.7364 12.9234 23.0143 13.4306 23.0929 13.9852C23.2393 15.0933 23.5109 16.1813 23.9024 17.2284C24.058 17.6415 24.0916 18.0904 23.9994 18.522C23.9072 18.9536 23.6929 19.3498 23.382 19.6636L21.9133 21.1294C23.5595 24.0188 25.9567 26.4112 28.8519 28.0542L30.3206 26.5885C30.635 26.2782 31.032 26.0643 31.4644 25.9723C31.8969 25.8802 32.3467 25.9138 32.7606 26.0691C33.8098 26.4598 34.9 26.7309 36.0102 26.877C36.572 26.9561 37.085 27.2385 37.4518 27.6705C37.8185 28.1025 38.0134 28.6539 37.9993 29.2199Z" fill="#D9D9D9"/>
</svg>
